<svg width="1092" height="293" viewBox="0 0 1092 293" fill="none" xmlns="http://www.w3.org/2000/svg">
<g opacity="0.8">
<mask id="mask0_216_4743" style="mask-type:alpha" maskUnits="userSpaceOnUse" x="0" y="0" width="1092" height="293">
<rect width="1092" height="293" rx="20" fill="#D9D9D9"/>
</mask>
<g mask="url(#mask0_216_4743)">
<g opacity="0.11">
<path fill-rule="evenodd" clip-rule="evenodd" d="M847.905 781.966C1044.47 781.966 1226.18 634.311 1241.07 449.659C1242.09 443.808 1242.44 437.838 1242.06 431.91C1244.16 345.225 1209.02 288.914 1157.03 234.199C1126.67 202.248 1089.08 178.215 1047.49 164.16L792.291 77.9281C781.658 74.3353 769.922 77.3199 762.239 85.571L575.728 285.873C568.977 293.123 566.378 303.359 568.843 312.989L638.198 584.006C640.782 594.105 648.543 602.021 658.521 604.734L924.959 677.189C934.97 679.911 947.958 677.746 952.928 669.505C952.928 669.505 1014.79 568.846 1023.09 553.333C1031.38 537.819 1033.87 521.404 1020.83 510.604C1006.31 499.312 989.919 498.018 969.808 502.242C949.697 506.467 899.216 518.695 816.78 541.939C734.344 565.184 678.082 512.08 697.079 440.658L744.044 258.524C760.279 197.482 833.537 173.709 881.924 213.78L1121.35 423.258C1160.48 455.659 1163.61 514.979 1128.13 551.444L993.896 710.125C972.092 732.533 940.022 741.344 909.99 733.177L643.551 660.722C613.62 652.582 590.336 628.835 582.583 598.537L513.228 327.521C505.834 298.631 513.632 267.923 533.885 246.173L720.396 45.8707C743.445 21.1175 778.651 12.1636 810.55 22.9422L1065.75 109.174C1116.16 126.206 1161.71 155.331 1198.5 194.05C1200.45 196.111 1202.36 193.172 1201.04 190.648C1134.11 63.1176 1001.3 -23.75 848.341 -23.75C627.933 -23.75 449.16 156.616 449.04 379.108C448.92 601.6 627.497 781.966 847.905 781.966Z" fill="#6D63EB"/>
</g>
<g opacity="0.3">
<line x1="61.6488" y1="1" x2="61.6488" y2="622.647" stroke="#6D63EB" stroke-dasharray="2 2"/>
<line x1="742.262" y1="1" x2="742.262" y2="622.647" stroke="#6D63EB" stroke-dasharray="2 2"/>
<line x1="401.955" y1="1" x2="401.955" y2="622.647" stroke="#6D63EB" stroke-dasharray="2 2"/>
<line x1="1082.57" y1="1" x2="1082.57" y2="622.647" stroke="#6D63EB" stroke-dasharray="2 2"/>
<line x1="231.802" y1="1" x2="231.802" y2="622.647" stroke="#6D63EB" stroke-dasharray="2 2"/>
<line x1="912.415" y1="1" x2="912.415" y2="622.647" stroke="#6D63EB" stroke-dasharray="2 2"/>
<line x1="572.109" y1="1" x2="572.109" y2="622.647" stroke="#6D63EB" stroke-dasharray="2 2"/>
<line x1="146.725" y1="1" x2="146.725" y2="622.647" stroke="#6D63EB" stroke-dasharray="2 2"/>
<line x1="827.338" y1="1" x2="827.338" y2="622.647" stroke="#6D63EB" stroke-dasharray="2 2"/>
<line x1="487.032" y1="1" x2="487.032" y2="622.647" stroke="#6D63EB" stroke-dasharray="2 2"/>
<line x1="316.878" y1="1" x2="316.878" y2="622.647" stroke="#6D63EB" stroke-dasharray="2 2"/>
<line x1="997.492" y1="1" x2="997.492" y2="622.647" stroke="#6D63EB" stroke-dasharray="2 2"/>
<line x1="657.185" y1="1" x2="657.185" y2="622.647" stroke="#6D63EB" stroke-dasharray="2 2"/>
<line x1="82.918" y1="1" x2="82.918" y2="622.647" stroke="#6D63EB" stroke-dasharray="2 2"/>
<line x1="763.531" y1="1" x2="763.531" y2="622.647" stroke="#6D63EB" stroke-dasharray="2 2"/>
<line x1="423.225" y1="1" x2="423.224" y2="622.647" stroke="#6D63EB" stroke-dasharray="2 2"/>
<line x1="253.071" y1="1" x2="253.071" y2="622.647" stroke="#6D63EB" stroke-dasharray="2 2"/>
<line x1="933.684" y1="1" x2="933.684" y2="622.647" stroke="#6D63EB" stroke-dasharray="2 2"/>
<line x1="593.378" y1="1" x2="593.378" y2="622.647" stroke="#6D63EB" stroke-dasharray="2 2"/>
<line x1="167.995" y1="1" x2="167.995" y2="622.647" stroke="#6D63EB" stroke-dasharray="2 2"/>
<line x1="848.608" y1="1" x2="848.608" y2="622.647" stroke="#6D63EB" stroke-dasharray="2 2"/>
<line x1="508.301" y1="1" x2="508.301" y2="622.647" stroke="#6D63EB" stroke-dasharray="2 2"/>
<line x1="338.148" y1="1" x2="338.148" y2="622.647" stroke="#6D63EB" stroke-dasharray="2 2"/>
<line x1="1018.76" y1="1" x2="1018.76" y2="622.647" stroke="#6D63EB" stroke-dasharray="2 2"/>
<line x1="678.454" y1="1" x2="678.454" y2="622.647" stroke="#6D63EB" stroke-dasharray="2 2"/>
<line x1="104.187" y1="1" x2="104.187" y2="622.647" stroke="#6D63EB" stroke-dasharray="2 2"/>
<line x1="784.8" y1="1" x2="784.8" y2="622.647" stroke="#6D63EB" stroke-dasharray="2 2"/>
<line x1="444.494" y1="1" x2="444.494" y2="622.647" stroke="#6D63EB" stroke-dasharray="2 2"/>
<line x1="274.34" y1="1" x2="274.34" y2="622.647" stroke="#6D63EB" stroke-dasharray="2 2"/>
<line x1="954.953" y1="1" x2="954.953" y2="622.647" stroke="#6D63EB" stroke-dasharray="2 2"/>
<line x1="614.647" y1="1" x2="614.647" y2="622.647" stroke="#6D63EB" stroke-dasharray="2 2"/>
<line x1="189.264" y1="1" x2="189.264" y2="622.647" stroke="#6D63EB" stroke-dasharray="2 2"/>
<line x1="869.877" y1="1" x2="869.877" y2="622.647" stroke="#6D63EB" stroke-dasharray="2 2"/>
<line x1="529.57" y1="1" x2="529.57" y2="622.647" stroke="#6D63EB" stroke-dasharray="2 2"/>
<line x1="359.417" y1="1" x2="359.417" y2="622.647" stroke="#6D63EB" stroke-dasharray="2 2"/>
<line x1="1040.03" y1="1" x2="1040.03" y2="622.647" stroke="#6D63EB" stroke-dasharray="2 2"/>
<line x1="699.724" y1="1" x2="699.724" y2="622.647" stroke="#6D63EB" stroke-dasharray="2 2"/>
<line x1="125.456" y1="1" x2="125.456" y2="622.647" stroke="#6D63EB" stroke-dasharray="2 2"/>
<line x1="806.069" y1="1" x2="806.069" y2="622.647" stroke="#6D63EB" stroke-dasharray="2 2"/>
<line x1="465.763" y1="1" x2="465.763" y2="622.647" stroke="#6D63EB" stroke-dasharray="2 2"/>
<line x1="295.61" y1="1" x2="295.609" y2="622.647" stroke="#6D63EB" stroke-dasharray="2 2"/>
<line x1="976.223" y1="1" x2="976.223" y2="622.647" stroke="#6D63EB" stroke-dasharray="2 2"/>
<line x1="635.916" y1="1" x2="635.916" y2="622.647" stroke="#6D63EB" stroke-dasharray="2 2"/>
<line x1="210.533" y1="1" x2="210.533" y2="622.647" stroke="#6D63EB" stroke-dasharray="2 2"/>
<line x1="891.146" y1="1" x2="891.146" y2="622.647" stroke="#6D63EB" stroke-dasharray="2 2"/>
<line x1="550.839" y1="1" x2="550.839" y2="622.647" stroke="#6D63EB" stroke-dasharray="2 2"/>
<line x1="380.686" y1="1" x2="380.686" y2="622.647" stroke="#6D63EB" stroke-dasharray="2 2"/>
<line x1="1061.3" y1="1" x2="1061.3" y2="622.647" stroke="#6D63EB" stroke-dasharray="2 2"/>
<line x1="720.993" y1="1" x2="720.993" y2="622.647" stroke="#6D63EB" stroke-dasharray="2 2"/>
<line y1="52.248" x2="1443.64" y2="52.248" stroke="#6D63EB" stroke-dasharray="2 2"/>
<line y1="73.4784" x2="1443.64" y2="73.4784" stroke="#6D63EB" stroke-dasharray="2 2"/>
<line y1="94.709" x2="1443.64" y2="94.709" stroke="#6D63EB" stroke-dasharray="2 2"/>
<line y1="115.939" x2="1443.64" y2="115.939" stroke="#6D63EB" stroke-dasharray="2 2"/>
<line y1="137.17" x2="1443.64" y2="137.17" stroke="#6D63EB" stroke-dasharray="2 2"/>
<line y1="158.398" x2="1443.64" y2="158.398" stroke="#6D63EB" stroke-dasharray="2 2"/>
<line y1="179.629" x2="1443.64" y2="179.629" stroke="#6D63EB" stroke-dasharray="2 2"/>
<line y1="200.86" x2="1443.64" y2="200.86" stroke="#6D63EB" stroke-dasharray="2 2"/>
<line y1="222.09" x2="1443.64" y2="222.09" stroke="#6D63EB" stroke-dasharray="2 2"/>
<line y1="243.32" x2="1443.64" y2="243.32" stroke="#6D63EB" stroke-dasharray="2 2"/>
<line y1="264.551" x2="1443.64" y2="264.551" stroke="#6D63EB" stroke-dasharray="2 2"/>
<line y1="285.781" x2="1443.64" y2="285.781" stroke="#6D63EB" stroke-dasharray="2 2"/>
</g>
</g>
</g>
</svg>
