<svg width="1440" height="625" viewBox="0 0 1440 625" fill="none" xmlns="http://www.w3.org/2000/svg">
<g opacity="0.1">
<line x1="61.4945" y1="2.18557e-08" x2="61.4945" y2="621.647" stroke="#6D63EB" stroke-dasharray="2 2"/>
<line x1="740.389" y1="2.18709e-08" x2="740.389" y2="621.647" stroke="#6D63EB" stroke-dasharray="2 2"/>
<line x1="400.942" y1="2.18709e-08" x2="400.942" y2="621.647" stroke="#6D63EB" stroke-dasharray="2 2"/>
<line x1="1079.84" y1="2.18709e-08" x2="1079.84" y2="621.647" stroke="#6D63EB" stroke-dasharray="2 2"/>
<line x1="231.218" y1="2.18709e-08" x2="231.218" y2="621.647" stroke="#6D63EB" stroke-dasharray="2 2"/>
<line x1="910.113" y1="2.18709e-08" x2="910.113" y2="621.647" stroke="#6D63EB" stroke-dasharray="2 2"/>
<line x1="570.666" y1="2.18709e-08" x2="570.666" y2="621.647" stroke="#6D63EB" stroke-dasharray="2 2"/>
<line x1="1249.56" y1="2.18709e-08" x2="1249.56" y2="621.647" stroke="#6D63EB" stroke-dasharray="2 2"/>
<line x1="146.356" y1="2.18709e-08" x2="146.356" y2="621.647" stroke="#6D63EB" stroke-dasharray="2 2"/>
<line x1="825.251" y1="2.18709e-08" x2="825.251" y2="621.647" stroke="#6D63EB" stroke-dasharray="2 2"/>
<line x1="485.804" y1="2.18709e-08" x2="485.804" y2="621.647" stroke="#6D63EB" stroke-dasharray="2 2"/>
<line x1="1164.7" y1="2.18709e-08" x2="1164.7" y2="621.647" stroke="#6D63EB" stroke-dasharray="2 2"/>
<line x1="316.08" y1="2.18709e-08" x2="316.08" y2="621.647" stroke="#6D63EB" stroke-dasharray="2 2"/>
<line x1="994.975" y1="2.18709e-08" x2="994.975" y2="621.647" stroke="#6D63EB" stroke-dasharray="2 2"/>
<line x1="655.528" y1="2.18709e-08" x2="655.528" y2="621.647" stroke="#6D63EB" stroke-dasharray="2 2"/>
<line x1="1334.42" y1="2.18709e-08" x2="1334.42" y2="621.647" stroke="#6D63EB" stroke-dasharray="2 2"/>
<line x1="82.71" y1="2.18709e-08" x2="82.7099" y2="621.647" stroke="#6D63EB" stroke-dasharray="2 2"/>
<line x1="761.605" y1="2.18709e-08" x2="761.605" y2="621.647" stroke="#6D63EB" stroke-dasharray="2 2"/>
<line x1="422.157" y1="2.18709e-08" x2="422.157" y2="621.647" stroke="#6D63EB" stroke-dasharray="2 2"/>
<line x1="1101.05" y1="2.18709e-08" x2="1101.05" y2="621.647" stroke="#6D63EB" stroke-dasharray="2 2"/>
<line x1="252.434" y1="2.18709e-08" x2="252.434" y2="621.647" stroke="#6D63EB" stroke-dasharray="2 2"/>
<line x1="931.329" y1="2.18709e-08" x2="931.329" y2="621.647" stroke="#6D63EB" stroke-dasharray="2 2"/>
<line x1="591.881" y1="2.18709e-08" x2="591.881" y2="621.647" stroke="#6D63EB" stroke-dasharray="2 2"/>
<line x1="1270.78" y1="2.18709e-08" x2="1270.78" y2="621.647" stroke="#6D63EB" stroke-dasharray="2 2"/>
<line x1="167.572" y1="2.18709e-08" x2="167.572" y2="621.647" stroke="#6D63EB" stroke-dasharray="2 2"/>
<line x1="846.467" y1="2.18709e-08" x2="846.467" y2="621.647" stroke="#6D63EB" stroke-dasharray="2 2"/>
<line x1="507.019" y1="2.18709e-08" x2="507.019" y2="621.647" stroke="#6D63EB" stroke-dasharray="2 2"/>
<line x1="1185.91" y1="2.18709e-08" x2="1185.91" y2="621.647" stroke="#6D63EB" stroke-dasharray="2 2"/>
<line x1="337.296" y1="2.18709e-08" x2="337.296" y2="621.647" stroke="#6D63EB" stroke-dasharray="2 2"/>
<line x1="1016.19" y1="2.18709e-08" x2="1016.19" y2="621.647" stroke="#6D63EB" stroke-dasharray="2 2"/>
<line x1="676.743" y1="2.18709e-08" x2="676.743" y2="621.647" stroke="#6D63EB" stroke-dasharray="2 2"/>
<line x1="1355.64" y1="2.18709e-08" x2="1355.64" y2="621.647" stroke="#6D63EB" stroke-dasharray="2 2"/>
<line x1="103.925" y1="2.18709e-08" x2="103.925" y2="621.647" stroke="#6D63EB" stroke-dasharray="2 2"/>
<line x1="782.82" y1="2.18709e-08" x2="782.82" y2="621.647" stroke="#6D63EB" stroke-dasharray="2 2"/>
<line x1="443.373" y1="2.18709e-08" x2="443.373" y2="621.647" stroke="#6D63EB" stroke-dasharray="2 2"/>
<line x1="1122.27" y1="2.18709e-08" x2="1122.27" y2="621.647" stroke="#6D63EB" stroke-dasharray="2 2"/>
<line x1="273.649" y1="2.18709e-08" x2="273.649" y2="621.647" stroke="#6D63EB" stroke-dasharray="2 2"/>
<line x1="952.544" y1="2.18709e-08" x2="952.544" y2="621.647" stroke="#6D63EB" stroke-dasharray="2 2"/>
<line x1="613.097" y1="2.18709e-08" x2="613.097" y2="621.647" stroke="#6D63EB" stroke-dasharray="2 2"/>
<line x1="1291.99" y1="2.18709e-08" x2="1291.99" y2="621.647" stroke="#6D63EB" stroke-dasharray="2 2"/>
<line x1="188.787" y1="2.18709e-08" x2="188.787" y2="621.647" stroke="#6D63EB" stroke-dasharray="2 2"/>
<line x1="867.682" y1="2.18709e-08" x2="867.682" y2="621.647" stroke="#6D63EB" stroke-dasharray="2 2"/>
<line x1="528.235" y1="2.18709e-08" x2="528.235" y2="621.647" stroke="#6D63EB" stroke-dasharray="2 2"/>
<line x1="1207.13" y1="2.18709e-08" x2="1207.13" y2="621.647" stroke="#6D63EB" stroke-dasharray="2 2"/>
<line x1="358.511" y1="2.18709e-08" x2="358.511" y2="621.647" stroke="#6D63EB" stroke-dasharray="2 2"/>
<line x1="1037.41" y1="2.18709e-08" x2="1037.41" y2="621.647" stroke="#6D63EB" stroke-dasharray="2 2"/>
<line x1="697.959" y1="2.18709e-08" x2="697.959" y2="621.647" stroke="#6D63EB" stroke-dasharray="2 2"/>
<line x1="1376.85" y1="2.18709e-08" x2="1376.85" y2="621.647" stroke="#6D63EB" stroke-dasharray="2 2"/>
<line x1="125.141" y1="2.18709e-08" x2="125.141" y2="621.647" stroke="#6D63EB" stroke-dasharray="2 2"/>
<line x1="804.036" y1="2.18709e-08" x2="804.036" y2="621.647" stroke="#6D63EB" stroke-dasharray="2 2"/>
<line x1="464.588" y1="2.18709e-08" x2="464.588" y2="621.647" stroke="#6D63EB" stroke-dasharray="2 2"/>
<line x1="1143.48" y1="2.18709e-08" x2="1143.48" y2="621.647" stroke="#6D63EB" stroke-dasharray="2 2"/>
<line x1="294.865" y1="2.18709e-08" x2="294.865" y2="621.647" stroke="#6D63EB" stroke-dasharray="2 2"/>
<line x1="973.76" y1="2.18709e-08" x2="973.76" y2="621.647" stroke="#6D63EB" stroke-dasharray="2 2"/>
<line x1="634.312" y1="2.18709e-08" x2="634.312" y2="621.647" stroke="#6D63EB" stroke-dasharray="2 2"/>
<line x1="1313.21" y1="2.18709e-08" x2="1313.21" y2="621.647" stroke="#6D63EB" stroke-dasharray="2 2"/>
<line x1="210.003" y1="2.18709e-08" x2="210.003" y2="621.647" stroke="#6D63EB" stroke-dasharray="2 2"/>
<line x1="888.898" y1="2.18709e-08" x2="888.898" y2="621.647" stroke="#6D63EB" stroke-dasharray="2 2"/>
<line x1="549.45" y1="2.18709e-08" x2="549.45" y2="621.647" stroke="#6D63EB" stroke-dasharray="2 2"/>
<line x1="1228.35" y1="2.18709e-08" x2="1228.35" y2="621.647" stroke="#6D63EB" stroke-dasharray="2 2"/>
<line x1="379.727" y1="2.18709e-08" x2="379.726" y2="621.647" stroke="#6D63EB" stroke-dasharray="2 2"/>
<line x1="1058.62" y1="2.18709e-08" x2="1058.62" y2="621.647" stroke="#6D63EB" stroke-dasharray="2 2"/>
<line x1="719.174" y1="2.18709e-08" x2="719.174" y2="621.647" stroke="#6D63EB" stroke-dasharray="2 2"/>
<line x1="1398.07" y1="2.18709e-08" x2="1398.07" y2="621.647" stroke="#6D63EB" stroke-dasharray="2 2"/>
<line y1="51.2485" x2="1440" y2="51.2485" stroke="#6D63EB" stroke-dasharray="2 2"/>
<line y1="72.4788" x2="1440" y2="72.4788" stroke="#6D63EB" stroke-dasharray="2 2"/>
<line y1="93.709" x2="1440" y2="93.709" stroke="#6D63EB" stroke-dasharray="2 2"/>
<line y1="114.939" x2="1440" y2="114.939" stroke="#6D63EB" stroke-dasharray="2 2"/>
<line y1="136.17" x2="1440" y2="136.17" stroke="#6D63EB" stroke-dasharray="2 2"/>
<line y1="157.4" x2="1440" y2="157.4" stroke="#6D63EB" stroke-dasharray="2 2"/>
<line y1="178.63" x2="1440" y2="178.63" stroke="#6D63EB" stroke-dasharray="2 2"/>
<line y1="199.86" x2="1440" y2="199.86" stroke="#6D63EB" stroke-dasharray="2 2"/>
<line y1="221.09" x2="1440" y2="221.09" stroke="#6D63EB" stroke-dasharray="2 2"/>
<line y1="242.321" x2="1440" y2="242.321" stroke="#6D63EB" stroke-dasharray="2 2"/>
<line y1="263.551" x2="1440" y2="263.551" stroke="#6D63EB" stroke-dasharray="2 2"/>
<line y1="284.781" x2="1440" y2="284.781" stroke="#6D63EB" stroke-dasharray="2 2"/>
<line y1="306.011" x2="1440" y2="306.011" stroke="#6D63EB" stroke-dasharray="2 2"/>
<line y1="327.241" x2="1440" y2="327.241" stroke="#6D63EB" stroke-dasharray="2 2"/>
<line y1="348.472" x2="1440" y2="348.472" stroke="#6D63EB" stroke-dasharray="2 2"/>
<line y1="369.702" x2="1440" y2="369.702" stroke="#6D63EB" stroke-dasharray="2 2"/>
<line y1="390.932" x2="1440" y2="390.932" stroke="#6D63EB" stroke-dasharray="2 2"/>
<line y1="412.162" x2="1440" y2="412.162" stroke="#6D63EB" stroke-dasharray="2 2"/>
<line y1="433.392" x2="1440" y2="433.392" stroke="#6D63EB" stroke-dasharray="2 2"/>
<line y1="454.623" x2="1440" y2="454.623" stroke="#6D63EB" stroke-dasharray="2 2"/>
<line y1="475.853" x2="1440" y2="475.853" stroke="#6D63EB" stroke-dasharray="2 2"/>
<line y1="497.083" x2="1440" y2="497.083" stroke="#6D63EB" stroke-dasharray="2 2"/>
<line y1="518.313" x2="1440" y2="518.313" stroke="#6D63EB" stroke-dasharray="2 2"/>
<line y1="539.543" x2="1440" y2="539.543" stroke="#6D63EB" stroke-dasharray="2 2"/>
<line y1="560.774" x2="1440" y2="560.774" stroke="#6D63EB" stroke-dasharray="2 2"/>
<line y1="582.004" x2="1440" y2="582.004" stroke="#6D63EB" stroke-dasharray="2 2"/>
<line y1="603.234" x2="1440" y2="603.234" stroke="#6D63EB" stroke-dasharray="2 2"/>
<line y1="624.464" x2="1440" y2="624.464" stroke="#6D63EB" stroke-dasharray="2 2"/>
</g>
</svg>
