<svg width="120" height="29" viewBox="0 0 120 29" fill="none" xmlns="http://www.w3.org/2000/svg">
<path d="M40.667 18.3501H50.7079C51.0974 18.3501 51.4382 18.0751 51.4872 17.6843C51.5336 17.315 51.5568 16.934 51.5568 16.5414C51.5568 11.9895 48.2989 8.58313 43.8947 8.58313C39.1285 8.58313 35.8706 12.0498 35.8706 16.5414C35.8706 21.0331 39.0682 24.4998 44.2265 24.4998C46.7348 24.4998 48.7577 23.6915 50.2145 22.1155C50.551 21.7514 50.4273 21.1791 49.9989 20.9329L47.7534 19.6427C47.4194 19.4507 47.0028 19.5262 46.6872 19.7476C46.0743 20.1777 45.2336 20.4603 44.2869 20.4603C42.6278 20.4603 41.2401 19.9177 40.667 18.3501ZM40.5765 14.9739C40.9988 13.4365 42.1451 12.5924 43.8646 12.5924C45.222 12.5924 46.5795 13.2255 47.0621 14.9739H40.5765Z" fill="white"/>
<path d="M62.9619 8.58313C60.9709 8.58313 59.4626 9.30661 58.6482 10.422V9.8397C58.6482 9.3788 58.2787 9.00516 57.823 9.00516H54.9485C54.4927 9.00516 54.1233 9.3788 54.1233 9.8397V23.2432C54.1233 23.7041 54.4927 24.0777 54.9485 24.0777H57.823C58.2787 24.0777 58.6482 23.7041 58.6482 23.2432V15.8481C58.6482 13.7078 59.7945 12.7432 61.4536 12.7432C62.9016 12.7432 64.078 13.6174 64.078 15.4864V23.2432C64.078 23.7041 64.4475 24.0777 64.9032 24.0777H67.7777C68.2334 24.0777 68.6029 23.7041 68.6029 23.2432V14.8232C68.6029 10.7536 66.0086 8.58313 62.9619 8.58313Z" fill="white"/>
<path d="M71.7102 23.2432C71.7102 23.7041 72.0797 24.0777 72.5354 24.0777H75.4099C75.8656 24.0777 76.2351 23.7041 76.2351 23.2432V2.90632C76.2351 2.44542 75.8656 2.07178 75.4099 2.07178H72.5354C72.0797 2.07178 71.7102 2.44542 71.7102 2.90632V23.2432Z" fill="white"/>
<path d="M79.502 23.243C79.502 23.7039 79.8714 24.0775 80.3272 24.0775H83.2017C83.6574 24.0775 84.0269 23.7039 84.0269 23.243V9.60212C84.0269 9.14122 83.6574 8.76758 83.2017 8.76758H80.3272C79.8714 8.76758 79.502 9.14122 79.502 9.60212V23.243Z" fill="white"/>
<path d="M79.502 6.03434C79.502 6.49524 79.8714 6.86888 80.3272 6.86888H83.2017C83.6574 6.86888 84.0269 6.49524 84.0269 6.03434V2.83747C84.0269 2.37657 83.6574 2.00293 83.2017 2.00293H80.3272C79.8714 2.00293 79.502 2.37657 79.502 2.83747V6.03434Z" fill="white"/>
<path d="M96.1063 8.58301C94.1153 8.58301 92.607 9.30649 91.7926 10.4219V9.83958C91.7926 9.37868 91.4231 9.00504 90.9674 9.00504H88.0929C87.6371 9.00504 87.2677 9.37868 87.2677 9.83958V23.2431C87.2677 23.704 87.6371 24.0776 88.0929 24.0776H90.9674C91.4231 24.0776 91.7926 23.704 91.7926 23.2431V15.848C91.7926 13.7077 92.9389 12.743 94.598 12.743C96.0459 12.743 97.2224 13.6172 97.2224 15.4862V23.2431C97.2224 23.704 97.5919 24.0776 98.0476 24.0776H100.922C101.378 24.0776 101.747 23.704 101.747 23.2431V14.8231C101.747 10.7535 99.153 8.58301 96.1063 8.58301Z" fill="white"/>
<path d="M109.11 18.35H119.151C119.541 18.35 119.881 18.075 119.93 17.6842C119.977 17.3149 120 16.9339 120 16.5413C120 11.9894 116.742 8.58301 112.338 8.58301C107.572 8.58301 104.314 12.0497 104.314 16.5413C104.314 21.033 107.511 24.4996 112.67 24.4996C115.178 24.4996 117.201 23.6914 118.658 22.1153C118.994 21.7513 118.87 21.179 118.442 20.9328L116.197 19.6425C115.862 19.4506 115.446 19.526 115.13 19.7475C114.517 20.1776 113.677 20.4602 112.73 20.4602C111.071 20.4602 109.683 19.9176 109.11 18.35ZM109.02 14.9738C109.442 13.4364 110.588 12.5923 112.308 12.5923C113.665 12.5923 115.023 13.2254 115.505 14.9738H109.02Z" fill="white"/>
<path fill-rule="evenodd" clip-rule="evenodd" d="M14.2329 27.7957C20.9222 27.6334 26.984 22.4493 27.3377 16.1416C27.3678 15.9412 27.3748 15.7374 27.3567 15.5356C27.3567 12.5785 26.1141 10.6877 24.2996 8.86517C23.2401 7.80094 21.941 7.01259 20.5139 6.56778L11.7579 3.83856C11.393 3.72485 10.9961 3.8363 10.7415 4.12395L4.56006 11.107C4.33632 11.3597 4.25633 11.7108 4.34816 12.0371L6.9326 21.2197C7.02891 21.5619 7.29957 21.8254 7.64135 21.9097L16.7685 24.1599C17.1114 24.2444 17.5516 24.1599 17.7139 23.8748C17.7139 23.8748 19.736 20.3919 20.0054 19.8562C20.2747 19.3204 20.3458 18.7587 19.8931 18.4013C19.3897 18.0283 18.8309 17.9977 18.15 18.1583C17.4691 18.3189 15.7613 18.7775 12.9751 19.6381C10.189 20.4986 8.2304 18.7346 8.81779 16.2839L10.2654 10.0356C10.7674 7.94101 13.2407 7.07001 14.9206 8.39619L23.2418 15.3403C24.6001 16.4127 24.756 18.4325 23.5787 19.705L19.1417 25.2258C18.4182 26.0078 17.3341 26.3347 16.3054 26.0811L7.17825 23.8308C6.15291 23.5781 5.34091 22.7876 5.05199 21.7611L2.46755 12.5785C2.19205 11.5996 2.43202 10.5463 3.10325 9.788L9.28469 2.80499C10.0486 1.94203 11.2393 1.60769 12.3338 1.94883L21.0898 4.67804C22.8192 5.21708 24.3935 6.17244 25.6775 7.46212C25.7458 7.53078 25.8083 7.429 25.7611 7.34404C23.3782 3.05135 18.7866 0.199413 13.5812 0.325723C6.0805 0.507729 0.145893 6.80464 0.32586 14.3903C0.505828 21.9759 6.73222 27.9777 14.2329 27.7957Z" fill="url(#paint0_linear_454_4073)"/>
<defs>
<linearGradient id="paint0_linear_454_4073" x1="22.6899" y1="8.34507" x2="0.319742" y2="23.5928" gradientUnits="userSpaceOnUse">
<stop stop-color="#6A61EA"/>
<stop offset="1" stop-color="#C23D93"/>
</linearGradient>
</defs>
</svg>
