<svg width="120" height="29" viewBox="0 0 120 29" fill="none" xmlns="http://www.w3.org/2000/svg">
<path d="M40.667 18.3499H50.7079C51.0974 18.3499 51.4382 18.0749 51.4872 17.6841C51.5336 17.3147 51.5568 16.9338 51.5568 16.5412C51.5568 11.9893 48.2989 8.58288 43.8947 8.58288C39.1285 8.58288 35.8706 12.0496 35.8706 16.5412C35.8706 21.0328 39.0682 24.4995 44.2265 24.4995C46.7348 24.4995 48.7577 23.6913 50.2145 22.1152C50.551 21.7512 50.4273 21.1788 49.9989 20.9327L47.7534 19.6424C47.4194 19.4505 47.0028 19.5259 46.6872 19.7474C46.0743 20.1774 45.2336 20.4601 44.2869 20.4601C42.6278 20.4601 41.2401 19.9175 40.667 18.3499ZM40.5765 14.9737C40.9988 13.4362 42.1451 12.5922 43.8646 12.5922C45.222 12.5922 46.5795 13.2252 47.0621 14.9737H40.5765Z" fill="#343E53"/>
<path d="M62.9619 8.58288C60.9709 8.58288 59.4626 9.30637 58.6482 10.4217V9.83946C58.6482 9.37855 58.2787 9.00491 57.823 9.00491H54.9485C54.4927 9.00491 54.1233 9.37855 54.1233 9.83946V23.2429C54.1233 23.7038 54.4927 24.0775 54.9485 24.0775H57.823C58.2787 24.0775 58.6482 23.7038 58.6482 23.2429V15.8479C58.6482 13.7076 59.7945 12.7429 61.4536 12.7429C62.9016 12.7429 64.078 13.6171 64.078 15.4861V23.2429C64.078 23.7038 64.4475 24.0775 64.9032 24.0775H67.7777C68.2334 24.0775 68.6029 23.7038 68.6029 23.2429V14.8229C68.6029 10.7533 66.0086 8.58288 62.9619 8.58288Z" fill="#343E53"/>
<path d="M71.7102 23.2429C71.7102 23.7038 72.0797 24.0775 72.5354 24.0775H75.4099C75.8656 24.0775 76.2351 23.7038 76.2351 23.2429V2.90608C76.2351 2.44517 75.8656 2.07153 75.4099 2.07153H72.5354C72.0797 2.07153 71.7102 2.44517 71.7102 2.90608V23.2429Z" fill="#343E53"/>
<path d="M79.502 23.2432C79.502 23.7041 79.8714 24.0778 80.3272 24.0778H83.2016C83.6574 24.0778 84.0268 23.7041 84.0268 23.2432V9.60237C84.0268 9.14146 83.6574 8.76782 83.2016 8.76782H80.3272C79.8714 8.76782 79.502 9.14146 79.502 9.60237V23.2432Z" fill="#343E53"/>
<path d="M79.502 6.03434C79.502 6.49524 79.8714 6.86888 80.3272 6.86888H83.2016C83.6574 6.86888 84.0268 6.49524 84.0268 6.03434V2.83747C84.0268 2.37657 83.6574 2.00293 83.2016 2.00293H80.3272C79.8714 2.00293 79.502 2.37657 79.502 2.83747V6.03434Z" fill="#343E53"/>
<path d="M96.1063 8.58301C94.1154 8.58301 92.6071 9.30649 91.7926 10.4219V9.83958C91.7926 9.37868 91.4231 9.00504 90.9674 9.00504H88.0929C87.6372 9.00504 87.2677 9.37868 87.2677 9.83958V23.2431C87.2677 23.704 87.6372 24.0776 88.0929 24.0776H90.9674C91.4231 24.0776 91.7926 23.704 91.7926 23.2431V15.848C91.7926 13.7077 92.9389 12.743 94.598 12.743C96.046 12.743 97.2224 13.6172 97.2224 15.4862V23.2431C97.2224 23.704 97.5919 24.0776 98.0476 24.0776H100.922C101.378 24.0776 101.747 23.704 101.747 23.2431V14.8231C101.747 10.7535 99.153 8.58301 96.1063 8.58301Z" fill="#343E53"/>
<path d="M109.11 18.35H119.151C119.541 18.35 119.881 18.075 119.93 17.6842C119.977 17.3149 120 16.9339 120 16.5413C120 11.9894 116.742 8.58301 112.338 8.58301C107.572 8.58301 104.314 12.0497 104.314 16.5413C104.314 21.033 107.511 24.4996 112.67 24.4996C115.178 24.4996 117.201 23.6914 118.658 22.1153C118.994 21.7513 118.87 21.179 118.442 20.9328L116.197 19.6425C115.862 19.4506 115.446 19.526 115.13 19.7475C114.517 20.1776 113.677 20.4602 112.73 20.4602C111.071 20.4602 109.683 19.9176 109.11 18.35ZM109.02 14.9738C109.442 13.4364 110.588 12.5923 112.308 12.5923C113.665 12.5923 115.023 13.2254 115.505 14.9738H109.02Z" fill="#343E53"/>
<path fill-rule="evenodd" clip-rule="evenodd" d="M14.2329 27.7955C20.9222 27.6332 26.984 22.449 27.3377 16.1413C27.3678 15.941 27.3748 15.7372 27.3567 15.5354C27.3567 12.5782 26.1141 10.6874 24.2996 8.86493C23.2401 7.8007 21.941 7.01235 20.5139 6.56754L11.7579 3.83832C11.393 3.72461 10.9961 3.83605 10.7415 4.12371L4.56006 11.1067C4.33632 11.3595 4.25633 11.7106 4.34816 12.0369L6.9326 21.2195C7.02891 21.5617 7.29957 21.8251 7.64135 21.9094L16.7685 24.1596C17.1114 24.2442 17.5516 24.1596 17.7139 23.8746C17.7139 23.8746 19.736 20.3917 20.0054 19.8559C20.2747 19.3201 20.3458 18.7585 19.8931 18.401C19.3897 18.028 18.8309 17.9974 18.15 18.1581C17.4691 18.3187 15.7613 18.7773 12.9751 19.6378C10.189 20.4984 8.2304 18.7344 8.81779 16.2837L10.2654 10.0353C10.7674 7.94076 13.2407 7.06976 14.9206 8.39595L23.2418 15.3401C24.6001 16.4124 24.756 18.4323 23.5787 19.7048L19.1417 25.2256C18.4182 26.0076 17.3341 26.3344 16.3054 26.0808L7.17825 23.8306C6.15291 23.5778 5.34091 22.7874 5.05199 21.7608L2.46755 12.5782C2.19205 11.5994 2.43202 10.546 3.10325 9.78775L9.28469 2.80474C10.0486 1.94179 11.2393 1.60744 12.3338 1.94858L21.0898 4.6778C22.8192 5.21684 24.3935 6.17219 25.6775 7.46188C25.7458 7.53053 25.8083 7.42875 25.7611 7.3438C23.3782 3.05111 18.7866 0.199169 13.5812 0.325478C6.0805 0.507484 0.145893 6.8044 0.32586 14.39C0.505828 21.9757 6.73222 27.9775 14.2329 27.7955Z" fill="url(#paint0_linear_454_837)"/>
<defs>
<linearGradient id="paint0_linear_454_837" x1="22.6899" y1="8.34483" x2="0.319742" y2="23.5926" gradientUnits="userSpaceOnUse">
<stop stop-color="#6A61EA"/>
<stop offset="1" stop-color="#C23D93"/>
</linearGradient>
</defs>
</svg>
