<svg width="177" height="40" viewBox="0 0 177 40" fill="none" xmlns="http://www.w3.org/2000/svg">
<rect width="177" height="40" rx="20" fill="url(#paint0_linear_947_783)"/>
<rect x="6" y="6" width="28" height="28" rx="14" fill="white"/>
<path fill-rule="evenodd" clip-rule="evenodd" d="M22.5709 25.163C21.7946 26.4569 20.8558 27.04 20 27.04C19.1442 27.04 18.2054 26.4569 17.4291 25.163C16.6642 23.8882 16.16 22.065 16.16 20C16.16 17.9349 16.6642 16.1119 17.4291 14.8371C18.2054 13.5432 19.1442 12.96 20 12.96C20.8558 12.96 21.7946 13.5432 22.5709 14.8371C23.3358 16.1119 23.84 17.9349 23.84 20C23.84 22.065 23.3358 23.8882 22.5709 25.163ZM28 20C28 15.5817 24.4182 12 20 12C15.5817 12 12 15.5817 12 20C12 24.4182 15.5817 28 20 28C24.4182 28 28 24.4182 28 20ZM12.96 20C12.96 22.8744 14.6826 25.3464 17.1518 26.44C15.9679 24.9831 15.2 22.641 15.2 20C15.2 17.359 15.9679 15.0169 17.1518 13.56C14.6826 14.6536 12.96 17.1256 12.96 20ZM27.04 20C27.04 22.8744 25.3174 25.3464 22.8482 26.44C24.0322 24.9831 24.8 22.641 24.8 20C24.8 17.359 24.0322 15.0169 22.8482 13.56C25.3174 14.6536 27.04 17.1256 27.04 20ZM20 20.88C20.486 20.88 20.88 20.486 20.88 20C20.88 19.514 20.486 19.12 20 19.12C19.514 19.12 19.12 19.514 19.12 20C19.12 20.486 19.514 20.88 20 20.88Z" fill="#5A296E"/>
<path d="M43.008 26V15.57H49.938V17.25H44.912V19.924H49.658V21.604H44.912V24.32H49.938V26H43.008ZM51.1802 26V18.384H52.9022V19.882L52.7622 19.616C52.9395 19.1587 53.2288 18.8133 53.6302 18.58C54.0408 18.3373 54.5168 18.216 55.0582 18.216C55.6182 18.216 56.1128 18.3373 56.5422 18.58C56.9808 18.8227 57.3215 19.1633 57.5642 19.602C57.8068 20.0313 57.9282 20.5307 57.9282 21.1V26H56.0942V21.534C56.0942 21.198 56.0288 20.9087 55.8982 20.666C55.7675 20.4233 55.5855 20.2367 55.3522 20.106C55.1282 19.966 54.8622 19.896 54.5542 19.896C54.2555 19.896 53.9895 19.966 53.7562 20.106C53.5228 20.2367 53.3408 20.4233 53.2102 20.666C53.0795 20.9087 53.0142 21.198 53.0142 21.534V26H51.1802ZM59.479 26V15.402H61.313V26H59.479ZM63.0063 26V18.384H64.8403V26H63.0063ZM63.0063 17.53V15.57H64.8403V17.53H63.0063ZM66.5337 26V18.384H68.2557V19.882L68.1157 19.616C68.293 19.1587 68.5824 18.8133 68.9837 18.58C69.3944 18.3373 69.8704 18.216 70.4117 18.216C70.9717 18.216 71.4664 18.3373 71.8957 18.58C72.3344 18.8227 72.675 19.1633 72.9177 19.602C73.1604 20.0313 73.2817 20.5307 73.2817 21.1V26H71.4477V21.534C71.4477 21.198 71.3824 20.9087 71.2517 20.666C71.121 20.4233 70.939 20.2367 70.7057 20.106C70.4817 19.966 70.2157 19.896 69.9077 19.896C69.609 19.896 69.343 19.966 69.1097 20.106C68.8764 20.2367 68.6944 20.4233 68.5637 20.666C68.433 20.9087 68.3677 21.198 68.3677 21.534V26H66.5337ZM78.4445 26.168C77.6605 26.168 76.9745 25.9907 76.3865 25.636C75.7985 25.2813 75.3412 24.8007 75.0145 24.194C74.6878 23.5873 74.5245 22.9153 74.5245 22.178C74.5245 21.4127 74.6878 20.736 75.0145 20.148C75.3505 19.5507 75.8032 19.0793 76.3725 18.734C76.9512 18.3887 77.5952 18.216 78.3045 18.216C78.9018 18.216 79.4245 18.314 79.8725 18.51C80.3298 18.706 80.7172 18.9767 81.0345 19.322C81.3518 19.6673 81.5945 20.064 81.7625 20.512C81.9305 20.9507 82.0145 21.4267 82.0145 21.94C82.0145 22.0707 82.0052 22.206 81.9865 22.346C81.9772 22.486 81.9538 22.6073 81.9165 22.71H76.0365V21.31H80.8805L80.0125 21.968C80.0965 21.5387 80.0732 21.156 79.9425 20.82C79.8212 20.484 79.6158 20.218 79.3265 20.022C79.0465 19.826 78.7058 19.728 78.3045 19.728C77.9218 19.728 77.5812 19.826 77.2825 20.022C76.9838 20.2087 76.7552 20.4887 76.5965 20.862C76.4472 21.226 76.3912 21.6693 76.4285 22.192C76.3912 22.6587 76.4518 23.074 76.6105 23.438C76.7785 23.7927 77.0212 24.068 77.3385 24.264C77.6652 24.46 78.0385 24.558 78.4585 24.558C78.8785 24.558 79.2332 24.4693 79.5225 24.292C79.8212 24.1147 80.0545 23.8767 80.2225 23.578L81.7065 24.306C81.5572 24.67 81.3238 24.992 81.0065 25.272C80.6892 25.552 80.3112 25.7713 79.8725 25.93C79.4432 26.0887 78.9672 26.168 78.4445 26.168ZM89.7711 26.168C89.1084 26.168 88.4924 26.0467 87.9231 25.804C87.3631 25.5613 86.8777 25.2253 86.4671 24.796C86.0657 24.3573 85.7717 23.8487 85.5851 23.27L87.1671 22.584C87.4191 23.1813 87.7831 23.6527 88.2591 23.998C88.7351 24.334 89.2717 24.502 89.8691 24.502C90.2051 24.502 90.4944 24.4507 90.7371 24.348C90.9891 24.236 91.1804 24.0867 91.3111 23.9C91.4511 23.7133 91.5211 23.4893 91.5211 23.228C91.5211 22.92 91.4277 22.668 91.2411 22.472C91.0637 22.2667 90.7931 22.108 90.4291 21.996L88.4271 21.352C87.6151 21.1 87.0037 20.722 86.5931 20.218C86.1824 19.714 85.9771 19.1213 85.9771 18.44C85.9771 17.8427 86.1217 17.3153 86.4111 16.858C86.7097 16.4007 87.1204 16.046 87.6431 15.794C88.1751 15.5327 88.7817 15.402 89.4631 15.402C90.0884 15.402 90.6624 15.514 91.1851 15.738C91.7077 15.9527 92.1557 16.256 92.5291 16.648C92.9117 17.0307 93.1964 17.4833 93.3831 18.006L91.8151 18.706C91.6097 18.1833 91.3017 17.782 90.8911 17.502C90.4804 17.2127 90.0044 17.068 89.4631 17.068C89.1457 17.068 88.8657 17.124 88.6231 17.236C88.3804 17.3387 88.1891 17.488 88.0491 17.684C87.9184 17.8707 87.8531 18.0947 87.8531 18.356C87.8531 18.6453 87.9464 18.902 88.1331 19.126C88.3197 19.3407 88.6044 19.5087 88.9871 19.63L90.9051 20.232C91.7357 20.5027 92.3564 20.876 92.7671 21.352C93.1871 21.828 93.3971 22.416 93.3971 23.116C93.3971 23.7133 93.2431 24.2407 92.9351 24.698C92.6271 25.1553 92.2024 25.5147 91.6611 25.776C91.1197 26.0373 90.4897 26.168 89.7711 26.168ZM97.1992 26.168C96.6672 26.168 96.2052 26.0793 95.8132 25.902C95.4212 25.7247 95.1178 25.4727 94.9032 25.146C94.6885 24.81 94.5812 24.4227 94.5812 23.984C94.5812 23.564 94.6745 23.1907 94.8612 22.864C95.0478 22.528 95.3372 22.248 95.7292 22.024C96.1212 21.8 96.6158 21.6413 97.2132 21.548L99.7052 21.142V22.542L97.5632 22.906C97.1992 22.9713 96.9285 23.088 96.7512 23.256C96.5738 23.424 96.4852 23.6433 96.4852 23.914C96.4852 24.1753 96.5832 24.3853 96.7792 24.544C96.9845 24.6933 97.2365 24.768 97.5352 24.768C97.9178 24.768 98.2538 24.6887 98.5432 24.53C98.8418 24.362 99.0705 24.1333 99.2292 23.844C99.3972 23.5547 99.4812 23.2373 99.4812 22.892V20.932C99.4812 20.6053 99.3505 20.3347 99.0892 20.12C98.8372 19.896 98.5012 19.784 98.0812 19.784C97.6892 19.784 97.3392 19.8913 97.0312 20.106C96.7325 20.3113 96.5132 20.5867 96.3732 20.932L94.8752 20.204C95.0245 19.8027 95.2578 19.4573 95.5752 19.168C95.9018 18.8693 96.2845 18.636 96.7232 18.468C97.1618 18.3 97.6378 18.216 98.1512 18.216C98.7765 18.216 99.3272 18.3327 99.8032 18.566C100.279 18.79 100.648 19.1073 100.909 19.518C101.18 19.9193 101.315 20.3907 101.315 20.932V26H99.5792V24.698L99.9712 24.67C99.7752 24.9967 99.5418 25.272 99.2712 25.496C99.0005 25.7107 98.6925 25.8787 98.3472 26C98.0018 26.112 97.6192 26.168 97.1992 26.168ZM103.797 26V20.022H102.453V18.384H103.797V18.132C103.797 17.5533 103.913 17.0633 104.147 16.662C104.389 16.2513 104.725 15.9387 105.155 15.724C105.584 15.5093 106.093 15.402 106.681 15.402C106.793 15.402 106.914 15.4113 107.045 15.43C107.185 15.4393 107.301 15.4533 107.395 15.472V17.054C107.301 17.0353 107.213 17.026 107.129 17.026C107.054 17.0167 106.984 17.012 106.919 17.012C106.508 17.012 106.191 17.1053 105.967 17.292C105.743 17.4693 105.631 17.7493 105.631 18.132V18.384H107.325V20.022H105.631V26H103.797ZM112.009 26.168C111.225 26.168 110.539 25.9907 109.951 25.636C109.363 25.2813 108.906 24.8007 108.579 24.194C108.252 23.5873 108.089 22.9153 108.089 22.178C108.089 21.4127 108.252 20.736 108.579 20.148C108.915 19.5507 109.368 19.0793 109.937 18.734C110.516 18.3887 111.16 18.216 111.869 18.216C112.466 18.216 112.989 18.314 113.437 18.51C113.894 18.706 114.282 18.9767 114.599 19.322C114.916 19.6673 115.159 20.064 115.327 20.512C115.495 20.9507 115.579 21.4267 115.579 21.94C115.579 22.0707 115.57 22.206 115.551 22.346C115.542 22.486 115.518 22.6073 115.481 22.71H109.601V21.31H114.445L113.577 21.968C113.661 21.5387 113.638 21.156 113.507 20.82C113.386 20.484 113.18 20.218 112.891 20.022C112.611 19.826 112.27 19.728 111.869 19.728C111.486 19.728 111.146 19.826 110.847 20.022C110.548 20.2087 110.32 20.4887 110.161 20.862C110.012 21.226 109.956 21.6693 109.993 22.192C109.956 22.6587 110.016 23.074 110.175 23.438C110.343 23.7927 110.586 24.068 110.903 24.264C111.23 24.46 111.603 24.558 112.023 24.558C112.443 24.558 112.798 24.4693 113.087 24.292C113.386 24.1147 113.619 23.8767 113.787 23.578L115.271 24.306C115.122 24.67 114.888 24.992 114.571 25.272C114.254 25.552 113.876 25.7713 113.437 25.93C113.008 26.0887 112.532 26.168 112.009 26.168ZM122.065 26.168C121.319 26.168 120.628 26.0327 119.993 25.762C119.359 25.4913 118.803 25.1133 118.327 24.628C117.851 24.1427 117.478 23.5733 117.207 22.92C116.946 22.2667 116.815 21.5527 116.815 20.778C116.815 20.0033 116.941 19.2893 117.193 18.636C117.455 17.9733 117.819 17.404 118.285 16.928C118.761 16.4427 119.317 16.0693 119.951 15.808C120.586 15.5373 121.277 15.402 122.023 15.402C122.77 15.402 123.437 15.528 124.025 15.78C124.623 16.032 125.127 16.368 125.537 16.788C125.948 17.1987 126.242 17.6513 126.419 18.146L124.725 18.958C124.529 18.4167 124.198 17.978 123.731 17.642C123.265 17.306 122.695 17.138 122.023 17.138C121.37 17.138 120.791 17.292 120.287 17.6C119.793 17.908 119.405 18.3327 119.125 18.874C118.855 19.4153 118.719 20.05 118.719 20.778C118.719 21.506 118.859 22.1453 119.139 22.696C119.429 23.2373 119.825 23.662 120.329 23.97C120.833 24.278 121.412 24.432 122.065 24.432C122.597 24.432 123.087 24.3293 123.535 24.124C123.983 23.9093 124.343 23.6107 124.613 23.228C124.884 22.836 125.019 22.374 125.019 21.842V21.044L125.887 21.8H122.023V20.19H126.923V21.24C126.923 22.0427 126.788 22.752 126.517 23.368C126.247 23.984 125.878 24.502 125.411 24.922C124.954 25.3327 124.436 25.6453 123.857 25.86C123.279 26.0653 122.681 26.168 122.065 26.168ZM130.992 26.168C130.404 26.168 129.891 26.0373 129.452 25.776C129.023 25.5147 128.691 25.1507 128.458 24.684C128.234 24.2173 128.122 23.6713 128.122 23.046V18.384H129.956V22.892C129.956 23.2093 130.017 23.4893 130.138 23.732C130.269 23.9653 130.451 24.152 130.684 24.292C130.927 24.4227 131.197 24.488 131.496 24.488C131.795 24.488 132.061 24.4227 132.294 24.292C132.527 24.152 132.709 23.9607 132.84 23.718C132.971 23.4753 133.036 23.186 133.036 22.85V18.384H134.87V26H133.134V24.502L133.288 24.768C133.111 25.2347 132.817 25.5847 132.406 25.818C132.005 26.0513 131.533 26.168 130.992 26.168ZM138.885 26.168C138.353 26.168 137.891 26.0793 137.499 25.902C137.107 25.7247 136.803 25.4727 136.589 25.146C136.374 24.81 136.267 24.4227 136.267 23.984C136.267 23.564 136.36 23.1907 136.547 22.864C136.733 22.528 137.023 22.248 137.415 22.024C137.807 21.8 138.301 21.6413 138.899 21.548L141.391 21.142V22.542L139.249 22.906C138.885 22.9713 138.614 23.088 138.437 23.256C138.259 23.424 138.171 23.6433 138.171 23.914C138.171 24.1753 138.269 24.3853 138.465 24.544C138.67 24.6933 138.922 24.768 139.221 24.768C139.603 24.768 139.939 24.6887 140.229 24.53C140.527 24.362 140.756 24.1333 140.915 23.844C141.083 23.5547 141.167 23.2373 141.167 22.892V20.932C141.167 20.6053 141.036 20.3347 140.775 20.12C140.523 19.896 140.187 19.784 139.767 19.784C139.375 19.784 139.025 19.8913 138.717 20.106C138.418 20.3113 138.199 20.5867 138.059 20.932L136.561 20.204C136.71 19.8027 136.943 19.4573 137.261 19.168C137.587 18.8693 137.97 18.636 138.409 18.468C138.847 18.3 139.323 18.216 139.837 18.216C140.462 18.216 141.013 18.3327 141.489 18.566C141.965 18.79 142.333 19.1073 142.595 19.518C142.865 19.9193 143.001 20.3907 143.001 20.932V26H141.265V24.698L141.657 24.67C141.461 24.9967 141.227 25.272 140.957 25.496C140.686 25.7107 140.378 25.8787 140.033 26C139.687 26.112 139.305 26.168 138.885 26.168ZM144.696 26V18.384H146.418V20.078L146.278 19.826C146.455 19.2567 146.73 18.86 147.104 18.636C147.486 18.412 147.944 18.3 148.476 18.3H148.924V19.924H148.266C147.743 19.924 147.323 20.0873 147.006 20.414C146.688 20.7313 146.53 21.1793 146.53 21.758V26H144.696ZM153.474 26.168C152.737 26.168 152.079 25.9953 151.5 25.65C150.921 25.2953 150.464 24.8147 150.128 24.208C149.792 23.6013 149.624 22.9293 149.624 22.192C149.624 21.4453 149.792 20.7733 150.128 20.176C150.464 19.5787 150.921 19.1027 151.5 18.748C152.088 18.3933 152.741 18.216 153.46 18.216C154.039 18.216 154.552 18.3327 155 18.566C155.457 18.79 155.817 19.1073 156.078 19.518L155.798 19.896V15.402H157.632V26H155.896V24.53L156.092 24.894C155.831 25.3047 155.467 25.622 155 25.846C154.533 26.0607 154.025 26.168 153.474 26.168ZM153.67 24.488C154.09 24.488 154.459 24.39 154.776 24.194C155.093 23.998 155.341 23.7273 155.518 23.382C155.705 23.0367 155.798 22.64 155.798 22.192C155.798 21.7533 155.705 21.3613 155.518 21.016C155.341 20.6613 155.093 20.386 154.776 20.19C154.459 19.994 154.09 19.896 153.67 19.896C153.259 19.896 152.891 19.9987 152.564 20.204C152.237 20.4 151.981 20.6707 151.794 21.016C151.617 21.352 151.528 21.744 151.528 22.192C151.528 22.64 151.617 23.0367 151.794 23.382C151.981 23.7273 152.237 23.998 152.564 24.194C152.891 24.39 153.259 24.488 153.67 24.488Z" fill="white"/>
<defs>
<linearGradient id="paint0_linear_947_783" x1="3.44167" y1="19.7182" x2="181.917" y2="19.7182" gradientUnits="userSpaceOnUse">
<stop stop-color="#5F296D"/>
<stop offset="1" stop-color="#33296D"/>
</linearGradient>
</defs>
</svg>
