<svg width="177" height="40" viewBox="0 0 177 40" fill="none" xmlns="http://www.w3.org/2000/svg">
<rect width="177" height="40" rx="20" fill="url(#paint0_linear_947_79)"/>
<rect x="6" y="6" width="28" height="28" rx="14" fill="white"/>
<path fill-rule="evenodd" clip-rule="evenodd" d="M13.3157 19.0818L13.313 19.0863C13.1491 19.3623 13.0667 19.6596 13.0667 20C13.0667 20.3598 13.1517 20.6503 13.3053 20.9009L13.3119 20.9117L13.3183 20.9227C13.4752 21.193 13.6821 21.3999 13.9522 21.5568L13.9567 21.5593L13.9611 21.562C14.2372 21.7259 14.5346 21.8083 14.875 21.8083C15.6526 21.8083 16.2343 21.5285 16.7101 20.9361C16.9969 20.5791 17.2922 20.262 17.5976 20.0032C17.5004 19.9133 17.4081 19.8194 17.3207 19.7239C16.75 19.1138 16.2906 18.7052 15.9374 18.4623C15.7088 18.3052 15.3773 18.1917 14.875 18.1917C14.531 18.1917 14.2313 18.2694 13.9569 18.4201C13.6834 18.5912 13.4749 18.8075 13.3183 19.0773L13.3157 19.0818ZM13.4166 17.5C13.8611 17.25 14.3472 17.125 14.875 17.125C15.5417 17.125 16.0972 17.2778 16.5417 17.5833C16.9861 17.8889 17.507 18.3611 18.1042 19C18.2575 19.1681 18.4081 19.3064 18.5562 19.4146C18.5848 19.4355 18.6133 19.4553 18.6417 19.474C18.8556 19.6147 19.0639 19.6921 19.2667 19.706C19.289 19.7076 19.3112 19.7083 19.3334 19.7083L19.7083 19.7083L19.7083 19.3333C19.7083 19.3115 19.7072 19.2893 19.705 19.2667C19.6873 19.0848 19.5981 18.8765 19.4377 18.6417C19.4284 18.6282 19.419 18.6146 19.4092 18.6009C19.1943 18.2977 18.8634 17.9516 18.4166 17.5625C17.5555 16.8264 17.125 15.9306 17.125 14.875C17.125 14.3472 17.25 13.8611 17.5 13.4167C17.7639 12.9861 18.1111 12.6389 18.5417 12.375C18.9861 12.125 19.4722 12 20 12C20.5278 12 21.0069 12.125 21.4375 12.375C21.8819 12.6389 22.2292 12.9861 22.4792 13.4167C22.7431 13.8611 22.875 14.3472 22.875 14.875C22.875 15.9167 22.4514 16.8056 21.6042 17.5417C21.1588 17.9286 20.8306 18.2771 20.6193 18.5873C20.6069 18.6056 20.5949 18.6237 20.5832 18.6417C20.4346 18.8718 20.3523 19.0801 20.3362 19.2667C20.3343 19.2892 20.3333 19.3114 20.3333 19.3333L20.3333 19.7083L20.6667 19.7083C20.7026 19.7083 20.7387 19.7063 20.775 19.7023C20.9778 19.6798 21.1861 19.5943 21.4 19.4459C21.411 19.4383 21.4219 19.4305 21.4329 19.4225C21.5845 19.3131 21.7388 19.1723 21.8958 19L22.3333 18.5208C22.6528 18.1736 23.0347 17.8542 23.4792 17.5625C23.9375 17.2708 24.4861 17.125 25.125 17.125C25.6528 17.125 26.1319 17.25 26.5625 17.5C27.0069 17.7639 27.3542 18.1111 27.6042 18.5417C27.8681 18.9861 28 19.4722 28 20C28 20.5278 27.8681 21.007 27.6042 21.4375C27.3403 21.8819 26.9931 22.2292 26.5625 22.4792C26.1319 22.743 25.6528 22.875 25.125 22.875C24.0833 22.875 23.1944 22.4514 22.4583 21.6042C22.0788 21.1673 21.7362 20.8431 21.4305 20.6315C21.4203 20.6245 21.4101 20.6175 21.4 20.6107C21.1705 20.4563 20.9622 20.3663 20.775 20.3409C20.7381 20.3359 20.7019 20.3334 20.6667 20.3334L20.3333 20.3334L20.3333 20.6666C20.3333 20.7021 20.3357 20.7382 20.3405 20.775C20.365 20.9647 20.4528 21.173 20.6038 21.4C20.612 21.4123 20.6204 21.4247 20.629 21.4371C20.8405 21.744 21.1656 22.0844 21.6042 22.4583C22.4514 23.1666 22.875 24.0555 22.875 25.125C22.875 25.6528 22.7431 26.1319 22.4792 26.5625C22.2292 27.007 21.8889 27.3542 21.4583 27.6042C21.0278 27.8681 20.5417 28 20 28C19.4722 28 18.9861 27.8681 18.5417 27.6042C18.1111 27.3542 17.7639 27.007 17.5 26.5625C17.25 26.1319 17.125 25.6528 17.125 25.125C17.125 24.4722 17.2847 23.9098 17.6042 23.4375C17.9236 22.9792 18.3889 22.4653 19 21.8958C19.1712 21.7397 19.3114 21.5864 19.4205 21.4357C19.4292 21.4238 19.4376 21.4119 19.4458 21.4C19.5943 21.1861 19.6797 20.9778 19.7023 20.775C19.7063 20.7387 19.7083 20.7026 19.7083 20.6666L19.7083 20.3334L19.3334 20.3334C19.3113 20.3334 19.2891 20.3341 19.2667 20.3357C19.0702 20.3494 18.8618 20.4234 18.6417 20.5576C18.609 20.5775 18.5761 20.5987 18.543 20.6212C18.2321 20.8325 17.8983 21.1602 17.5417 21.6042C16.8611 22.4514 15.9722 22.875 14.875 22.875C14.3472 22.875 13.8611 22.743 13.4166 22.4792C12.9861 22.2292 12.6458 21.8889 12.3958 21.4583C12.1319 21.0278 12 20.5417 12 20C12 19.4722 12.1319 18.9861 12.3958 18.5417C12.6458 18.1111 12.9861 17.7639 13.4166 17.5ZM20.0161 22.3883C19.9221 22.4909 19.8236 22.5882 19.7232 22.6799C19.1485 23.2158 18.7441 23.6689 18.4838 24.0409C18.3027 24.3112 18.1917 24.6567 18.1917 25.125C18.1917 25.4744 18.2717 25.7656 18.4199 26.0225C18.5942 26.3144 18.8116 26.5274 19.0773 26.6817L19.0818 26.6844L19.0863 26.687C19.3622 26.8509 19.6596 26.9333 20 26.9333C20.3598 26.9333 20.6504 26.8483 20.9009 26.6947L20.9117 26.6881L20.9227 26.6817C21.1845 26.5297 21.3905 26.3223 21.5495 26.0396L21.5593 26.0221L21.5697 26.0051C21.7261 25.75 21.8083 25.4653 21.8083 25.125C21.8083 24.3831 21.5339 23.7899 20.92 23.2767L20.9161 23.2734L20.9122 23.2701C20.5692 22.9777 20.2654 22.6838 20.0161 22.3883ZM22.3836 20.0204C22.676 20.2665 22.9694 20.5661 23.2635 20.9046C23.8148 21.539 24.4183 21.8083 25.125 21.8083C25.4654 21.8083 25.7501 21.726 26.0052 21.5697L26.016 21.5631L26.0269 21.5568C26.2939 21.4017 26.5123 21.1872 26.687 20.8929L26.6908 20.8865L26.6947 20.8801C26.851 20.6251 26.9333 20.3403 26.9333 20C26.9333 19.6596 26.8509 19.3623 26.687 19.0862L26.6843 19.0818L26.6817 19.0773C26.5274 18.8116 26.3144 18.5941 26.0225 18.4199C25.7656 18.2717 25.4744 18.1917 25.125 18.1917C24.6562 18.1917 24.3158 18.2961 24.0576 18.4588C23.681 18.7066 23.371 18.9687 23.1196 19.2417C23.1192 19.2421 23.1188 19.2426 23.1183 19.243L22.6841 19.7187C22.684 19.7188 22.6839 19.7189 22.6838 19.719C22.6837 19.719 22.6836 19.7191 22.6835 19.7192C22.5894 19.8225 22.4894 19.9238 22.3836 20.0204ZM20.005 17.6347C20.2541 17.3362 20.559 17.0367 20.9046 16.7365C21.539 16.1852 21.8083 15.5817 21.8083 14.875C21.8083 14.5346 21.7259 14.2373 21.562 13.9612L21.5593 13.9568L21.5567 13.9523C21.4024 13.6866 21.1894 13.4691 20.8975 13.2949C20.6406 13.1467 20.3494 13.0667 20 13.0667C19.6559 13.0667 19.3562 13.1444 19.0819 13.2951C18.8087 13.4659 18.591 13.6836 18.4201 13.9569C18.2694 14.2312 18.1917 14.5309 18.1917 14.875C18.1917 15.5937 18.466 16.2014 19.1097 16.7517L19.1135 16.7549L19.1172 16.7581C19.4575 17.0545 19.758 17.347 20.005 17.6347Z" fill="#5A296E"/>
<path d="M43.008 26V15.57H49.938V17.25H44.912V19.924H49.658V21.604H44.912V24.32H49.938V26H43.008ZM51.1802 26V18.384H52.9022V19.882L52.7622 19.616C52.9395 19.1587 53.2288 18.8133 53.6302 18.58C54.0408 18.3373 54.5168 18.216 55.0582 18.216C55.6182 18.216 56.1128 18.3373 56.5422 18.58C56.9808 18.8227 57.3215 19.1633 57.5642 19.602C57.8068 20.0313 57.9282 20.5307 57.9282 21.1V26H56.0942V21.534C56.0942 21.198 56.0288 20.9087 55.8982 20.666C55.7675 20.4233 55.5855 20.2367 55.3522 20.106C55.1282 19.966 54.8622 19.896 54.5542 19.896C54.2555 19.896 53.9895 19.966 53.7562 20.106C53.5228 20.2367 53.3408 20.4233 53.2102 20.666C53.0795 20.9087 53.0142 21.198 53.0142 21.534V26H51.1802ZM59.479 26V15.402H61.313V26H59.479ZM63.0063 26V18.384H64.8403V26H63.0063ZM63.0063 17.53V15.57H64.8403V17.53H63.0063ZM66.5337 26V18.384H68.2557V19.882L68.1157 19.616C68.293 19.1587 68.5824 18.8133 68.9837 18.58C69.3944 18.3373 69.8704 18.216 70.4117 18.216C70.9717 18.216 71.4664 18.3373 71.8957 18.58C72.3344 18.8227 72.675 19.1633 72.9177 19.602C73.1604 20.0313 73.2817 20.5307 73.2817 21.1V26H71.4477V21.534C71.4477 21.198 71.3824 20.9087 71.2517 20.666C71.121 20.4233 70.939 20.2367 70.7057 20.106C70.4817 19.966 70.2157 19.896 69.9077 19.896C69.609 19.896 69.343 19.966 69.1097 20.106C68.8764 20.2367 68.6944 20.4233 68.5637 20.666C68.433 20.9087 68.3677 21.198 68.3677 21.534V26H66.5337ZM78.4445 26.168C77.6605 26.168 76.9745 25.9907 76.3865 25.636C75.7985 25.2813 75.3412 24.8007 75.0145 24.194C74.6878 23.5873 74.5245 22.9153 74.5245 22.178C74.5245 21.4127 74.6878 20.736 75.0145 20.148C75.3505 19.5507 75.8032 19.0793 76.3725 18.734C76.9512 18.3887 77.5952 18.216 78.3045 18.216C78.9018 18.216 79.4245 18.314 79.8725 18.51C80.3298 18.706 80.7172 18.9767 81.0345 19.322C81.3518 19.6673 81.5945 20.064 81.7625 20.512C81.9305 20.9507 82.0145 21.4267 82.0145 21.94C82.0145 22.0707 82.0052 22.206 81.9865 22.346C81.9772 22.486 81.9538 22.6073 81.9165 22.71H76.0365V21.31H80.8805L80.0125 21.968C80.0965 21.5387 80.0732 21.156 79.9425 20.82C79.8212 20.484 79.6158 20.218 79.3265 20.022C79.0465 19.826 78.7058 19.728 78.3045 19.728C77.9218 19.728 77.5812 19.826 77.2825 20.022C76.9838 20.2087 76.7552 20.4887 76.5965 20.862C76.4472 21.226 76.3912 21.6693 76.4285 22.192C76.3912 22.6587 76.4518 23.074 76.6105 23.438C76.7785 23.7927 77.0212 24.068 77.3385 24.264C77.6652 24.46 78.0385 24.558 78.4585 24.558C78.8785 24.558 79.2332 24.4693 79.5225 24.292C79.8212 24.1147 80.0545 23.8767 80.2225 23.578L81.7065 24.306C81.5572 24.67 81.3238 24.992 81.0065 25.272C80.6892 25.552 80.3112 25.7713 79.8725 25.93C79.4432 26.0887 78.9672 26.168 78.4445 26.168ZM86.0471 26V15.57H89.9391C90.6484 15.57 91.2737 15.7007 91.8151 15.962C92.3657 16.214 92.7951 16.5873 93.1031 17.082C93.4111 17.5673 93.5651 18.16 93.5651 18.86C93.5651 19.5507 93.4064 20.1433 93.0891 20.638C92.7811 21.1233 92.3564 21.4967 91.8151 21.758C91.2737 22.0193 90.6484 22.15 89.9391 22.15H87.9511V26H86.0471ZM87.9511 20.47H89.9671C90.3124 20.47 90.6111 20.4047 90.8631 20.274C91.1151 20.134 91.3111 19.9427 91.4511 19.7C91.5911 19.4573 91.6611 19.1773 91.6611 18.86C91.6611 18.5333 91.5911 18.2533 91.4511 18.02C91.3111 17.7773 91.1151 17.5907 90.8631 17.46C90.6111 17.32 90.3124 17.25 89.9671 17.25H87.9511V20.47ZM94.9712 26V18.384H96.6932V20.078L96.5532 19.826C96.7305 19.2567 97.0059 18.86 97.3792 18.636C97.7619 18.412 98.2192 18.3 98.7512 18.3H99.1992V19.924H98.5412C98.0185 19.924 97.5985 20.0873 97.2812 20.414C96.9639 20.7313 96.8052 21.1793 96.8052 21.758V26H94.9712ZM103.82 26.168C103.036 26.168 102.35 25.9907 101.762 25.636C101.174 25.2813 100.716 24.8007 100.39 24.194C100.063 23.5873 99.8995 22.9153 99.8995 22.178C99.8995 21.4127 100.063 20.736 100.39 20.148C100.726 19.5507 101.178 19.0793 101.748 18.734C102.326 18.3887 102.97 18.216 103.68 18.216C104.277 18.216 104.8 18.314 105.248 18.51C105.705 18.706 106.092 18.9767 106.41 19.322C106.727 19.6673 106.97 20.064 107.138 20.512C107.306 20.9507 107.39 21.4267 107.39 21.94C107.39 22.0707 107.38 22.206 107.362 22.346C107.352 22.486 107.329 22.6073 107.292 22.71H101.412V21.31H106.256L105.388 21.968C105.472 21.5387 105.448 21.156 105.318 20.82C105.196 20.484 104.991 20.218 104.702 20.022C104.422 19.826 104.081 19.728 103.68 19.728C103.297 19.728 102.956 19.826 102.658 20.022C102.359 20.2087 102.13 20.4887 101.972 20.862C101.822 21.226 101.766 21.6693 101.804 22.192C101.766 22.6587 101.827 23.074 101.986 23.438C102.154 23.7927 102.396 24.068 102.714 24.264C103.04 24.46 103.414 24.558 103.834 24.558C104.254 24.558 104.608 24.4693 104.898 24.292C105.196 24.1147 105.43 23.8767 105.598 23.578L107.082 24.306C106.932 24.67 106.699 24.992 106.382 25.272C106.064 25.552 105.686 25.7713 105.248 25.93C104.818 26.0887 104.342 26.168 103.82 26.168ZM112.322 26.168C111.584 26.168 110.926 25.9953 110.348 25.65C109.769 25.2953 109.312 24.8147 108.976 24.208C108.64 23.6013 108.472 22.9293 108.472 22.192C108.472 21.4453 108.64 20.7733 108.976 20.176C109.312 19.5787 109.769 19.1027 110.348 18.748C110.936 18.3933 111.589 18.216 112.308 18.216C112.886 18.216 113.4 18.3327 113.848 18.566C114.305 18.79 114.664 19.1073 114.926 19.518L114.646 19.896V15.402H116.48V26H114.744V24.53L114.94 24.894C114.678 25.3047 114.314 25.622 113.848 25.846C113.381 26.0607 112.872 26.168 112.322 26.168ZM112.518 24.488C112.938 24.488 113.306 24.39 113.624 24.194C113.941 23.998 114.188 23.7273 114.366 23.382C114.552 23.0367 114.646 22.64 114.646 22.192C114.646 21.7533 114.552 21.3613 114.366 21.016C114.188 20.6613 113.941 20.386 113.624 20.19C113.306 19.994 112.938 19.896 112.518 19.896C112.107 19.896 111.738 19.9987 111.412 20.204C111.085 20.4 110.828 20.6707 110.642 21.016C110.464 21.352 110.376 21.744 110.376 22.192C110.376 22.64 110.464 23.0367 110.642 23.382C110.828 23.7273 111.085 23.998 111.412 24.194C111.738 24.39 112.107 24.488 112.518 24.488ZM118.186 26V18.384H120.02V26H118.186ZM118.186 17.53V15.57H120.02V17.53H118.186ZM125.381 26.168C124.625 26.168 123.944 25.9953 123.337 25.65C122.74 25.2953 122.269 24.8193 121.923 24.222C121.578 23.6153 121.405 22.934 121.405 22.178C121.405 21.422 121.578 20.7453 121.923 20.148C122.269 19.5507 122.74 19.0793 123.337 18.734C123.944 18.3887 124.625 18.216 125.381 18.216C125.923 18.216 126.427 18.314 126.893 18.51C127.36 18.6967 127.761 18.958 128.097 19.294C128.443 19.6207 128.69 20.0127 128.839 20.47L127.229 21.17C127.089 20.7873 126.851 20.4793 126.515 20.246C126.189 20.0127 125.811 19.896 125.381 19.896C124.98 19.896 124.621 19.994 124.303 20.19C123.995 20.386 123.753 20.6567 123.575 21.002C123.398 21.3473 123.309 21.744 123.309 22.192C123.309 22.64 123.398 23.0367 123.575 23.382C123.753 23.7273 123.995 23.998 124.303 24.194C124.621 24.39 124.98 24.488 125.381 24.488C125.82 24.488 126.203 24.3713 126.529 24.138C126.856 23.9047 127.089 23.592 127.229 23.2L128.839 23.928C128.69 24.3573 128.447 24.7447 128.111 25.09C127.775 25.426 127.374 25.692 126.907 25.888C126.441 26.0747 125.932 26.168 125.381 26.168ZM133.703 26.084C132.844 26.084 132.177 25.8507 131.701 25.384C131.234 24.908 131.001 24.2407 131.001 23.382V20.022H129.685V18.384H129.825C130.198 18.384 130.488 18.286 130.693 18.09C130.898 17.894 131.001 17.6093 131.001 17.236V16.648H132.835V18.384H134.585V20.022H132.835V23.284C132.835 23.536 132.877 23.7507 132.961 23.928C133.054 24.1053 133.194 24.2407 133.381 24.334C133.577 24.4273 133.824 24.474 134.123 24.474C134.188 24.474 134.263 24.4693 134.347 24.46C134.44 24.4507 134.529 24.4413 134.613 24.432V26C134.482 26.0187 134.333 26.0373 134.165 26.056C133.997 26.0747 133.843 26.084 133.703 26.084ZM136.168 26V15.57H140.06C140.769 15.57 141.395 15.7007 141.936 15.962C142.487 16.214 142.916 16.5873 143.224 17.082C143.532 17.5673 143.686 18.16 143.686 18.86C143.686 19.5507 143.527 20.1433 143.21 20.638C142.902 21.1233 142.477 21.4967 141.936 21.758C141.395 22.0193 140.769 22.15 140.06 22.15H138.072V26H136.168ZM138.072 20.47H140.088C140.433 20.47 140.732 20.4047 140.984 20.274C141.236 20.134 141.432 19.9427 141.572 19.7C141.712 19.4573 141.782 19.1773 141.782 18.86C141.782 18.5333 141.712 18.2533 141.572 18.02C141.432 17.7773 141.236 17.5907 140.984 17.46C140.732 17.32 140.433 17.25 140.088 17.25H138.072V20.47ZM145.092 26V18.384H146.814V20.078L146.674 19.826C146.852 19.2567 147.127 18.86 147.5 18.636C147.883 18.412 148.34 18.3 148.872 18.3H149.32V19.924H148.662C148.14 19.924 147.72 20.0873 147.402 20.414C147.085 20.7313 146.926 21.1793 146.926 21.758V26H145.092ZM154.053 26.168C153.306 26.168 152.625 25.9953 152.009 25.65C151.402 25.3047 150.917 24.8333 150.553 24.236C150.198 23.6387 150.021 22.9573 150.021 22.192C150.021 21.4267 150.198 20.7453 150.553 20.148C150.917 19.5507 151.402 19.0793 152.009 18.734C152.615 18.3887 153.297 18.216 154.053 18.216C154.799 18.216 155.476 18.3887 156.083 18.734C156.689 19.0793 157.17 19.5507 157.525 20.148C157.889 20.736 158.071 21.4173 158.071 22.192C158.071 22.9573 157.889 23.6387 157.525 24.236C157.161 24.8333 156.675 25.3047 156.069 25.65C155.462 25.9953 154.79 26.168 154.053 26.168ZM154.053 24.488C154.463 24.488 154.823 24.39 155.131 24.194C155.448 23.998 155.695 23.7273 155.873 23.382C156.059 23.0273 156.153 22.6307 156.153 22.192C156.153 21.744 156.059 21.352 155.873 21.016C155.695 20.6707 155.448 20.4 155.131 20.204C154.823 19.9987 154.463 19.896 154.053 19.896C153.633 19.896 153.264 19.9987 152.947 20.204C152.629 20.4 152.377 20.6707 152.191 21.016C152.013 21.352 151.925 21.744 151.925 22.192C151.925 22.6307 152.013 23.0273 152.191 23.382C152.377 23.7273 152.629 23.998 152.947 24.194C153.264 24.39 153.633 24.488 154.053 24.488Z" fill="white"/>
<defs>
<linearGradient id="paint0_linear_947_79" x1="3.44167" y1="19.7182" x2="181.917" y2="19.7182" gradientUnits="userSpaceOnUse">
<stop stop-color="#5F296D"/>
<stop offset="1" stop-color="#33296D"/>
</linearGradient>
</defs>
</svg>
