<svg width="165" height="42" viewBox="0 0 165 42" fill="none" xmlns="http://www.w3.org/2000/svg">
<rect y="0.840088" width="164.48" height="40.32" rx="20.16" fill="url(#paint0_linear_947_895)"/>
<rect x="6.0481" y="6.88818" width="28.224" height="28.224" rx="14.112" fill="white"/>
<path fill-rule="evenodd" clip-rule="evenodd" d="M12.3134 18.802C11.8383 18.6689 11.6824 18.0735 12.0312 17.7246L16.8847 12.8712C17.2336 12.5223 17.829 12.6783 17.962 13.1533L19.7979 19.7072L19.8506 19.8953C19.8923 20.044 19.8791 20.1891 19.8268 20.3149C19.761 20.4732 19.6333 20.6009 19.475 20.6667C19.3492 20.719 19.2041 20.7322 19.0554 20.6906L12.3134 18.802ZM19.475 21.3333C19.3492 21.281 19.2041 21.2678 19.0554 21.3094L12.3134 23.198C11.8383 23.3311 11.6824 23.9265 12.0312 24.2754L16.8847 29.1288C17.2336 29.4777 17.829 29.3217 17.962 28.8467L19.7979 22.2928L19.8506 22.1047C19.8923 21.956 19.8791 21.8109 19.8268 21.6851C19.761 21.5268 19.6333 21.3991 19.475 21.3333ZM20.4933 21.6851C20.4411 21.8109 20.4279 21.956 20.4695 22.1047L20.5222 22.2928L22.3581 28.8467C22.4912 29.3218 23.0866 29.4777 23.4355 29.1288L28.2889 24.2754C28.6378 23.9265 28.4818 23.3311 28.0068 23.198L21.4529 21.3622L21.2647 21.3095C21.1161 21.2678 20.9709 21.281 20.8451 21.3333C20.6869 21.3991 20.5591 21.5268 20.4933 21.6851ZM20.8451 20.6668C20.9709 20.719 21.1161 20.7322 21.2647 20.6905L21.4529 20.6378L28.0068 18.802C28.4819 18.6689 28.6378 18.0735 28.2889 17.7246L23.4355 12.8712C23.0866 12.5223 22.4911 12.6783 22.3581 13.1533L20.5222 19.7072L20.4695 19.8953C20.4279 20.044 20.441 20.1891 20.4933 20.3149C20.5591 20.4732 20.6868 20.601 20.8451 20.6668ZM18.2222 18.0681C18.3918 18.6737 17.8338 19.2318 17.2282 19.0621L14.639 18.3368C14.0451 18.1705 13.8502 17.4262 14.2863 16.9901L16.1502 15.1262C16.5863 14.6901 17.3306 14.8851 17.4969 15.4789L18.2222 18.0681ZM17.2282 22.9379C17.8338 22.7682 18.3918 23.3263 18.2222 23.9319L17.4969 26.5211C17.3306 27.1149 16.5863 27.3099 16.1502 26.8738L14.2863 25.0099C13.8502 24.5738 14.0451 23.8295 14.639 23.6631L17.2282 22.9379ZM22.098 23.9319C21.9283 23.3263 22.4864 22.7683 23.092 22.9379L25.6811 23.6632C26.275 23.8295 26.4699 24.5738 26.0338 25.0099L24.17 26.8738C23.7339 27.3099 22.9896 27.1149 22.8232 26.5211L22.098 23.9319ZM21.7112 19.4489L22.8232 15.4789C22.9896 14.8851 23.7339 14.6901 24.17 15.1262L26.0338 16.9901C26.4699 17.4262 26.275 18.1705 25.6811 18.3368L21.7112 19.4489Z" fill="#5A296E"/>
<path d="M43.352 27V16.4866H50.3374V18.18H45.2712V20.8754H50.0552V22.5688H45.2712V25.3066H50.3374V27H43.352ZM51.5896 27V19.3231H53.3253V20.8331L53.1842 20.5649C53.363 20.1039 53.6546 19.7558 54.0592 19.5206C54.4731 19.276 54.9529 19.1537 55.4986 19.1537C56.0631 19.1537 56.5617 19.276 56.9944 19.5206C57.4366 19.7652 57.78 20.1086 58.0246 20.5508C58.2692 20.9836 58.3915 21.4869 58.3915 22.0608V27H56.5429V22.4983C56.5429 22.1596 56.477 21.8679 56.3453 21.6233C56.2136 21.3787 56.0301 21.1906 55.7949 21.0588C55.5691 20.9177 55.301 20.8472 54.9905 20.8472C54.6895 20.8472 54.4214 20.9177 54.1862 21.0588C53.951 21.1906 53.7675 21.3787 53.6358 21.6233C53.5041 21.8679 53.4382 22.1596 53.4382 22.4983V27H51.5896ZM59.9548 27V16.3172H61.8034V27H59.9548ZM63.5103 27V19.3231H65.359V27H63.5103ZM63.5103 18.4622V16.4866H65.359V18.4622H63.5103ZM67.0659 27V19.3231H68.8017V20.8331L68.6606 20.5649C68.8393 20.1039 69.131 19.7558 69.5355 19.5206C69.9494 19.276 70.4293 19.1537 70.9749 19.1537C71.5394 19.1537 72.038 19.276 72.4708 19.5206C72.913 19.7652 73.2564 20.1086 73.501 20.5508C73.7456 20.9836 73.8679 21.4869 73.8679 22.0608V27H72.0192V22.4983C72.0192 22.1596 71.9534 21.8679 71.8216 21.6233C71.6899 21.3787 71.5065 21.1906 71.2713 21.0588C71.0455 20.9177 70.7774 20.8472 70.4669 20.8472C70.1658 20.8472 69.8977 20.9177 69.6625 21.0588C69.4273 21.1906 69.2438 21.3787 69.1121 21.6233C68.9804 21.8679 68.9146 22.1596 68.9146 22.4983V27H67.0659ZM79.072 27.1693C78.2817 27.1693 77.5903 26.9906 76.9975 26.6331C76.4048 26.2756 75.9439 25.7911 75.6146 25.1796C75.2853 24.568 75.1207 23.8907 75.1207 23.1474C75.1207 22.376 75.2853 21.6939 75.6146 21.1012C75.9533 20.4991 76.4095 20.024 76.9834 19.6759C77.5667 19.3278 78.2159 19.1537 78.9309 19.1537C79.533 19.1537 80.0599 19.2525 80.5114 19.4501C80.9724 19.6476 81.3629 19.9205 81.6827 20.2686C82.0026 20.6167 82.2472 21.0165 82.4166 21.4681C82.5859 21.9103 82.6706 22.3901 82.6706 22.9075C82.6706 23.0392 82.6612 23.1756 82.6423 23.3168C82.6329 23.4579 82.6094 23.5802 82.5718 23.6837H76.6447V22.2725H81.5275L80.6526 22.9357C80.7372 22.503 80.7137 22.1172 80.582 21.7786C80.4597 21.4399 80.2527 21.1717 79.9611 20.9742C79.6788 20.7766 79.3354 20.6778 78.9309 20.6778C78.5452 20.6778 78.2018 20.7766 77.9007 20.9742C77.5997 21.1623 77.3692 21.4446 77.2092 21.8209C77.0587 22.1878 77.0023 22.6347 77.0399 23.1615C77.0023 23.6319 77.0634 24.0506 77.2233 24.4175C77.3927 24.775 77.6373 25.0525 77.9572 25.2501C78.2864 25.4477 78.6628 25.5465 79.0861 25.5465C79.5095 25.5465 79.867 25.4571 80.1586 25.2783C80.4597 25.0996 80.6949 24.8597 80.8642 24.5586L82.3601 25.2924C82.2096 25.6594 81.9744 25.9839 81.6545 26.2662C81.3346 26.5484 80.9536 26.7695 80.5114 26.9294C80.0787 27.0894 79.5989 27.1693 79.072 27.1693ZM91.9145 27.1693C91.143 27.1693 90.4233 27.0329 89.7553 26.7601C89.0874 26.4873 88.5041 26.1062 88.0055 25.617C87.5068 25.1278 87.1164 24.5539 86.8342 23.8954C86.5613 23.2274 86.4249 22.5077 86.4249 21.7362C86.4249 20.9554 86.5613 20.2356 86.8342 19.5771C87.107 18.9185 87.4927 18.3446 87.9913 17.8554C88.49 17.3662 89.0733 16.9899 89.7412 16.7265C90.4092 16.4536 91.1336 16.3172 91.9145 16.3172C92.6953 16.3172 93.4198 16.4536 94.0877 16.7265C94.7557 16.9993 95.339 17.3803 95.8376 17.8695C96.3362 18.3493 96.722 18.9185 96.9948 19.5771C97.277 20.2356 97.4182 20.9554 97.4182 21.7362C97.4182 22.5077 97.277 23.2274 96.9948 23.8954C96.7126 24.5539 96.3221 25.1278 95.8235 25.617C95.3249 26.1062 94.7416 26.4873 94.0736 26.7601C93.4151 27.0329 92.6953 27.1693 91.9145 27.1693ZM91.9145 25.4195C92.4319 25.4195 92.907 25.3301 93.3398 25.1513C93.7726 24.9632 94.1489 24.7044 94.4688 24.3752C94.798 24.0459 95.0473 23.6555 95.2167 23.2039C95.3954 22.7523 95.4848 22.2631 95.4848 21.7362C95.4848 21.2094 95.3954 20.7249 95.2167 20.2827C95.0473 19.8311 94.798 19.4407 94.4688 19.1114C94.1489 18.7727 93.7726 18.514 93.3398 18.3352C92.907 18.1565 92.4319 18.0671 91.9145 18.0671C91.4065 18.0671 90.9361 18.1565 90.5033 18.3352C90.0705 18.514 89.6895 18.7727 89.3602 19.1114C89.0403 19.4407 88.791 19.8311 88.6123 20.2827C88.4335 20.7249 88.3441 21.2094 88.3441 21.7362C88.3441 22.2631 88.4335 22.7523 88.6123 23.2039C88.791 23.6555 89.0403 24.0459 89.3602 24.3752C89.6895 24.7044 90.0705 24.9632 90.5033 25.1513C90.9361 25.3301 91.4065 25.4195 91.9145 25.4195ZM98.9695 29.8224V19.3231H100.705V20.8472L100.536 20.4661C100.799 20.0522 101.157 19.7323 101.608 19.5065C102.06 19.2713 102.582 19.1537 103.175 19.1537C103.899 19.1537 104.553 19.3325 105.136 19.69C105.72 20.0475 106.181 20.5273 106.519 21.1294C106.868 21.7315 107.042 22.4089 107.042 23.1615C107.042 23.9048 106.872 24.5821 106.534 25.1937C106.195 25.8052 105.734 26.2897 105.151 26.6472C104.567 26.9953 103.904 27.1693 103.161 27.1693C102.606 27.1693 102.093 27.0612 101.623 26.8448C101.162 26.619 100.795 26.2991 100.522 25.8852L100.818 25.5182V29.8224H98.9695ZM102.949 25.4759C103.372 25.4759 103.749 25.3771 104.078 25.1796C104.407 24.982 104.661 24.7092 104.84 24.3611C105.028 24.013 105.122 23.6131 105.122 23.1615C105.122 22.71 105.028 22.3148 104.84 21.9761C104.661 21.628 104.407 21.3552 104.078 21.1576C103.749 20.9507 103.372 20.8472 102.949 20.8472C102.545 20.8472 102.178 20.946 101.848 21.1435C101.528 21.3411 101.274 21.6186 101.086 21.9761C100.908 22.3242 100.818 22.7194 100.818 23.1615C100.818 23.6131 100.908 24.013 101.086 24.3611C101.274 24.7092 101.528 24.982 101.848 25.1796C102.178 25.3771 102.545 25.4759 102.949 25.4759ZM111.813 27.0847C110.947 27.0847 110.275 26.8495 109.795 26.3791C109.325 25.8993 109.089 25.2266 109.089 24.3611V20.9742H107.763V19.3231H107.904C108.28 19.3231 108.572 19.2243 108.779 19.0267C108.986 18.8292 109.089 18.5422 109.089 18.1659V17.5732H110.938V19.3231H112.702V20.9742H110.938V24.2623C110.938 24.5163 110.98 24.7327 111.065 24.9114C111.159 25.0902 111.3 25.2266 111.488 25.3207C111.686 25.4148 111.935 25.4618 112.236 25.4618C112.302 25.4618 112.377 25.4571 112.462 25.4477C112.556 25.4383 112.646 25.4289 112.73 25.4195V27C112.599 27.0188 112.448 27.0376 112.279 27.0564C112.109 27.0753 111.954 27.0847 111.813 27.0847ZM114.143 27V19.3231H115.991V27H114.143ZM114.143 18.4622V16.4866H115.991V18.4622H114.143ZM117.853 27V16.4866H119.688L123.625 21.835H122.75L126.603 16.4866H128.437V27H126.504V18.6739L127.252 18.8574L123.258 24.1776H123.033L119.138 18.8574L119.773 18.6739V27H117.853ZM132.623 27.1693C132.086 27.1693 131.621 27.08 131.226 26.9012C130.831 26.7225 130.525 26.4684 130.308 26.1392C130.092 25.8005 129.984 25.41 129.984 24.9679C129.984 24.5445 130.078 24.1682 130.266 23.8389C130.454 23.5002 130.746 23.218 131.141 22.9922C131.536 22.7664 132.035 22.6065 132.637 22.5124L135.149 22.1031V23.5143L132.99 23.8812C132.623 23.9471 132.35 24.0647 132.171 24.234C131.992 24.4034 131.903 24.6245 131.903 24.8973C131.903 25.1607 132.002 25.3724 132.199 25.5324C132.406 25.6829 132.66 25.7581 132.961 25.7581C133.347 25.7581 133.686 25.6782 133.978 25.5182C134.279 25.3489 134.509 25.1184 134.669 24.8268C134.838 24.5351 134.923 24.2152 134.923 23.8671V21.8915C134.923 21.5622 134.791 21.2893 134.528 21.073C134.274 20.8472 133.935 20.7343 133.512 20.7343C133.117 20.7343 132.764 20.8425 132.453 21.0588C132.152 21.2658 131.931 21.5434 131.79 21.8915L130.28 21.1576C130.431 20.7531 130.666 20.405 130.986 20.1133C131.315 19.8123 131.701 19.5771 132.143 19.4077C132.585 19.2384 133.065 19.1537 133.582 19.1537C134.213 19.1537 134.768 19.2713 135.248 19.5065C135.727 19.7323 136.099 20.0522 136.362 20.4661C136.635 20.8707 136.772 21.3458 136.772 21.8915V27H135.022V25.6876L135.417 25.6594C135.219 25.9886 134.984 26.2662 134.711 26.492C134.438 26.7084 134.128 26.8777 133.78 27C133.432 27.1129 133.046 27.1693 132.623 27.1693ZM137.789 27L140.47 23.1474L137.775 19.3231H139.948L142.051 22.4277H141.077L143.18 19.3231H145.339L142.657 23.1474L145.325 27H143.166L141.091 23.9095H142.037L139.962 27H137.789Z" fill="white"/>
<defs>
<linearGradient id="paint0_linear_947_895" x1="3.19822" y1="20.716" x2="169.049" y2="20.716" gradientUnits="userSpaceOnUse">
<stop stop-color="#5F296D"/>
<stop offset="1" stop-color="#33296D"/>
</linearGradient>
</defs>
</svg>
