<svg width="165" height="40" viewBox="0 0 165 40" fill="none" xmlns="http://www.w3.org/2000/svg">
<rect width="165" height="40" rx="20" fill="url(#paint0_linear_1207_93)"/>
<rect x="6" y="6" width="28" height="28" rx="14" fill="white"/>
<path fill-rule="evenodd" clip-rule="evenodd" d="M21.5464 25.0542C23.0205 25.5126 24.4655 25.6948 25.5339 25.7582C25.6256 25.7636 25.6766 25.7329 25.7047 25.7047C25.7329 25.6765 25.7636 25.6255 25.7582 25.5339C25.6948 24.4655 25.5126 23.0205 25.0542 21.5464C24.6391 22.2525 24.1376 22.9264 23.532 23.532C22.9264 24.1376 22.2525 24.6391 21.5464 25.0542ZM14.9458 21.5464C15.3609 22.2525 15.8624 22.9264 16.468 23.532C17.0736 24.1376 17.7475 24.6391 18.4536 25.0542C16.9795 25.5126 15.5345 25.6948 14.4661 25.7582C14.3744 25.7636 14.3234 25.7329 14.2953 25.7047C14.2671 25.6766 14.2364 25.6256 14.2418 25.5339C14.3052 24.4655 14.4874 23.0205 14.9458 21.5464ZM14.1832 20C13.3528 22.0243 13.0837 24.0974 13.0028 25.4604C12.95 26.3505 13.6495 27.05 14.5396 26.9972C15.9026 26.9163 17.9757 26.6472 20 25.8168C22.0243 26.6472 24.0974 26.9163 25.4604 26.9972C26.3505 27.05 27.05 26.3504 26.9972 25.4604C26.9163 24.0974 26.6472 22.0243 25.8168 20C26.6472 17.9757 26.9163 15.9026 26.9972 14.5396C27.05 13.6495 26.3505 12.95 25.4604 13.0028C24.0974 13.0837 22.0243 13.3528 20 14.1832C17.9757 13.3528 15.9026 13.0837 14.5396 13.0028C13.6495 12.95 12.95 13.6495 13.0028 14.5396C13.0837 15.9026 13.3528 17.9757 14.1832 20ZM14.9458 18.4536C14.4874 16.9795 14.3052 15.5345 14.2418 14.4661C14.2364 14.3744 14.2671 14.3234 14.2953 14.2953C14.3234 14.2671 14.3744 14.2364 14.4661 14.2418C15.5345 14.3052 16.9795 14.4874 18.4536 14.9458C17.7475 15.3609 17.0736 15.8624 16.468 16.468C15.8624 17.0736 15.3609 17.7475 14.9458 18.4536ZM21.5464 14.9458C23.0205 14.4874 24.4655 14.3052 25.5339 14.2418C25.6256 14.2364 25.6766 14.2671 25.7047 14.2953C25.7329 14.3234 25.7636 14.3744 25.7582 14.4661C25.6948 15.5345 25.5126 16.9795 25.0542 18.4536C24.6391 17.7475 24.1376 17.0736 23.532 16.468C22.9264 15.8624 22.2525 15.3609 21.5464 14.9458ZM23.494 19.9964C23.4903 20.8887 23.1468 21.7816 22.4642 22.4642C21.783 23.1454 20.8924 23.4889 20.0019 23.494C19.1101 23.4898 18.218 23.1464 17.5358 22.4642C16.8532 21.7816 16.5098 20.8888 16.506 19.9964C16.5116 19.1065 16.855 18.2166 17.5358 17.5358C18.218 16.8536 19.1101 16.5102 20.0019 16.506C20.8924 16.5112 21.783 16.8546 22.4642 17.5358C23.145 18.2166 23.4884 19.1064 23.494 19.9964Z" fill="#5A296E"/>
<path d="M43.008 26V15.57H49.938V17.25H44.912V19.924H49.658V21.604H44.912V24.32H49.938V26H43.008ZM51.1802 26V18.384H52.9022V19.882L52.7622 19.616C52.9395 19.1587 53.2288 18.8133 53.6302 18.58C54.0408 18.3373 54.5168 18.216 55.0582 18.216C55.6182 18.216 56.1128 18.3373 56.5422 18.58C56.9808 18.8227 57.3215 19.1633 57.5642 19.602C57.8068 20.0313 57.9282 20.5307 57.9282 21.1V26H56.0942V21.534C56.0942 21.198 56.0288 20.9087 55.8982 20.666C55.7675 20.4233 55.5855 20.2367 55.3522 20.106C55.1282 19.966 54.8622 19.896 54.5542 19.896C54.2555 19.896 53.9895 19.966 53.7562 20.106C53.5228 20.2367 53.3408 20.4233 53.2102 20.666C53.0795 20.9087 53.0142 21.198 53.0142 21.534V26H51.1802ZM59.479 26V15.402H61.313V26H59.479ZM63.0063 26V18.384H64.8403V26H63.0063ZM63.0063 17.53V15.57H64.8403V17.53H63.0063ZM66.5337 26V18.384H68.2557V19.882L68.1157 19.616C68.293 19.1587 68.5824 18.8133 68.9837 18.58C69.3944 18.3373 69.8704 18.216 70.4117 18.216C70.9717 18.216 71.4664 18.3373 71.8957 18.58C72.3344 18.8227 72.675 19.1633 72.9177 19.602C73.1604 20.0313 73.2817 20.5307 73.2817 21.1V26H71.4477V21.534C71.4477 21.198 71.3824 20.9087 71.2517 20.666C71.121 20.4233 70.939 20.2367 70.7057 20.106C70.4817 19.966 70.2157 19.896 69.9077 19.896C69.609 19.896 69.343 19.966 69.1097 20.106C68.8764 20.2367 68.6944 20.4233 68.5637 20.666C68.433 20.9087 68.3677 21.198 68.3677 21.534V26H66.5337ZM78.4445 26.168C77.6605 26.168 76.9745 25.9907 76.3865 25.636C75.7985 25.2813 75.3412 24.8007 75.0145 24.194C74.6878 23.5873 74.5245 22.9153 74.5245 22.178C74.5245 21.4127 74.6878 20.736 75.0145 20.148C75.3505 19.5507 75.8032 19.0793 76.3725 18.734C76.9512 18.3887 77.5952 18.216 78.3045 18.216C78.9018 18.216 79.4245 18.314 79.8725 18.51C80.3298 18.706 80.7172 18.9767 81.0345 19.322C81.3518 19.6673 81.5945 20.064 81.7625 20.512C81.9305 20.9507 82.0145 21.4267 82.0145 21.94C82.0145 22.0707 82.0052 22.206 81.9865 22.346C81.9772 22.486 81.9538 22.6073 81.9165 22.71H76.0365V21.31H80.8805L80.0125 21.968C80.0965 21.5387 80.0732 21.156 79.9425 20.82C79.8212 20.484 79.6158 20.218 79.3265 20.022C79.0465 19.826 78.7058 19.728 78.3045 19.728C77.9218 19.728 77.5812 19.826 77.2825 20.022C76.9838 20.2087 76.7552 20.4887 76.5965 20.862C76.4472 21.226 76.3912 21.6693 76.4285 22.192C76.3912 22.6587 76.4518 23.074 76.6105 23.438C76.7785 23.7927 77.0212 24.068 77.3385 24.264C77.6652 24.46 78.0385 24.558 78.4585 24.558C78.8785 24.558 79.2332 24.4693 79.5225 24.292C79.8212 24.1147 80.0545 23.8767 80.2225 23.578L81.7065 24.306C81.5572 24.67 81.3238 24.992 81.0065 25.272C80.6892 25.552 80.3112 25.7713 79.8725 25.93C79.4432 26.0887 78.9672 26.168 78.4445 26.168ZM86.0471 26V15.57H87.9511V24.32H92.4171V26H86.0471ZM93.4946 26V18.384H95.3286V26H93.4946ZM93.4946 17.53V15.57H95.3286V17.53H93.4946ZM99.318 26L96.322 18.384H98.324L100.494 24.376H99.752L101.936 18.384H103.938L100.942 26H99.318ZM108.427 26.168C107.643 26.168 106.957 25.9907 106.369 25.636C105.781 25.2813 105.324 24.8007 104.997 24.194C104.67 23.5873 104.507 22.9153 104.507 22.178C104.507 21.4127 104.67 20.736 104.997 20.148C105.333 19.5507 105.786 19.0793 106.355 18.734C106.934 18.3887 107.578 18.216 108.287 18.216C108.884 18.216 109.407 18.314 109.855 18.51C110.312 18.706 110.7 18.9767 111.017 19.322C111.334 19.6673 111.577 20.064 111.745 20.512C111.913 20.9507 111.997 21.4267 111.997 21.94C111.997 22.0707 111.988 22.206 111.969 22.346C111.96 22.486 111.936 22.6073 111.899 22.71H106.019V21.31H110.863L109.995 21.968C110.079 21.5387 110.056 21.156 109.925 20.82C109.804 20.484 109.598 20.218 109.309 20.022C109.029 19.826 108.688 19.728 108.287 19.728C107.904 19.728 107.564 19.826 107.265 20.022C106.966 20.2087 106.738 20.4887 106.579 20.862C106.43 21.226 106.374 21.6693 106.411 22.192C106.374 22.6587 106.434 23.074 106.593 23.438C106.761 23.7927 107.004 24.068 107.321 24.264C107.648 24.46 108.021 24.558 108.441 24.558C108.861 24.558 109.216 24.4693 109.505 24.292C109.804 24.1147 110.037 23.8767 110.205 23.578L111.689 24.306C111.54 24.67 111.306 24.992 110.989 25.272C110.672 25.552 110.294 25.7713 109.855 25.93C109.426 26.0887 108.95 26.168 108.427 26.168ZM116.327 26L112.687 15.57H114.759L117.615 24.208H117.209L120.065 15.57H122.137L118.511 26H116.327ZM123.149 26V18.384H124.983V26H123.149ZM123.149 17.53V15.57H124.983V17.53H123.149ZM130.288 26.168C129.504 26.168 128.818 25.9907 128.23 25.636C127.642 25.2813 127.185 24.8007 126.858 24.194C126.532 23.5873 126.368 22.9153 126.368 22.178C126.368 21.4127 126.532 20.736 126.858 20.148C127.194 19.5507 127.647 19.0793 128.216 18.734C128.795 18.3887 129.439 18.216 130.148 18.216C130.746 18.216 131.268 18.314 131.716 18.51C132.174 18.706 132.561 18.9767 132.878 19.322C133.196 19.6673 133.438 20.064 133.606 20.512C133.774 20.9507 133.858 21.4267 133.858 21.94C133.858 22.0707 133.849 22.206 133.83 22.346C133.821 22.486 133.798 22.6073 133.76 22.71H127.88V21.31H132.724L131.856 21.968C131.94 21.5387 131.917 21.156 131.786 20.82C131.665 20.484 131.46 20.218 131.17 20.022C130.89 19.826 130.55 19.728 130.148 19.728C129.766 19.728 129.425 19.826 129.126 20.022C128.828 20.2087 128.599 20.4887 128.44 20.862C128.291 21.226 128.235 21.6693 128.272 22.192C128.235 22.6587 128.296 23.074 128.454 23.438C128.622 23.7927 128.865 24.068 129.182 24.264C129.509 24.46 129.882 24.558 130.302 24.558C130.722 24.558 131.077 24.4693 131.366 24.292C131.665 24.1147 131.898 23.8767 132.066 23.578L133.55 24.306C133.401 24.67 133.168 24.992 132.85 25.272C132.533 25.552 132.155 25.7713 131.716 25.93C131.287 26.0887 130.811 26.168 130.288 26.168ZM137.167 26L134.549 18.384H136.481L138.399 24.166L137.727 24.152L139.771 18.384H141.395L143.425 24.152L142.753 24.166L144.671 18.384H146.603L143.985 26H142.347L140.275 19.966H140.891L138.791 26H137.167Z" fill="white"/>
<defs>
<linearGradient id="paint0_linear_1207_93" x1="3.20833" y1="19.7182" x2="169.583" y2="19.7182" gradientUnits="userSpaceOnUse">
<stop stop-color="#5F296D"/>
<stop offset="1" stop-color="#33296D"/>
</linearGradient>
</defs>
</svg>
