<svg width="192" height="40" viewBox="0 0 192 40" fill="none" xmlns="http://www.w3.org/2000/svg">
<rect width="192" height="40" rx="20" fill="url(#paint0_linear_947_1005)"/>
<rect x="6" y="6" width="28" height="28" rx="14" fill="white"/>
<path fill-rule="evenodd" clip-rule="evenodd" d="M18.9333 13.76C18.9333 13.3771 18.6229 13.0667 18.24 13.0667H13.76C13.3771 13.0667 13.0667 13.3771 13.0667 13.76V18.2976C13.0667 18.6804 13.3771 18.9909 13.76 18.9909H18.24C18.5374 18.9909 18.824 19.0368 19.0932 19.1219C18.9897 18.828 18.9333 18.5118 18.9333 18.1824V13.76ZM20.9068 20.8781C21.0103 21.172 21.0667 21.4882 21.0667 21.8175V26.24C21.0667 26.6229 21.3771 26.9333 21.76 26.9333H26.24C26.6229 26.9333 26.9333 26.6229 26.9333 26.24V21.7024C26.9333 21.3195 26.6229 21.0091 26.24 21.0091H21.76C21.4626 21.0091 21.176 20.9632 20.9068 20.8781ZM18.24 12C19.212 12 20 12.788 20 13.76V18.1824C20 19.1545 20.788 19.9424 21.76 19.9424H26.24C27.212 19.9424 28 20.7304 28 21.7024V26.24C28 27.212 27.212 28 26.24 28H21.76C20.788 28 20 27.212 20 26.24V21.8175C20 20.8455 19.212 20.0575 18.24 20.0575H13.76C12.788 20.0575 12 19.2696 12 18.2976V13.76C12 12.788 12.788 12 13.76 12H18.24Z" fill="#5A296E"/>
<path d="M43.008 26V15.57H49.938V17.25H44.912V19.924H49.658V21.604H44.912V24.32H49.938V26H43.008ZM51.1802 26V18.384H52.9022V19.882L52.7622 19.616C52.9395 19.1587 53.2288 18.8133 53.6302 18.58C54.0408 18.3373 54.5168 18.216 55.0582 18.216C55.6182 18.216 56.1128 18.3373 56.5422 18.58C56.9808 18.8227 57.3215 19.1633 57.5642 19.602C57.8068 20.0313 57.9282 20.5307 57.9282 21.1V26H56.0942V21.534C56.0942 21.198 56.0288 20.9087 55.8982 20.666C55.7675 20.4233 55.5855 20.2367 55.3522 20.106C55.1282 19.966 54.8622 19.896 54.5542 19.896C54.2555 19.896 53.9895 19.966 53.7562 20.106C53.5228 20.2367 53.3408 20.4233 53.2102 20.666C53.0795 20.9087 53.0142 21.198 53.0142 21.534V26H51.1802ZM59.479 26V15.402H61.313V26H59.479ZM63.0063 26V18.384H64.8403V26H63.0063ZM63.0063 17.53V15.57H64.8403V17.53H63.0063ZM66.5337 26V18.384H68.2557V19.882L68.1157 19.616C68.293 19.1587 68.5824 18.8133 68.9837 18.58C69.3944 18.3373 69.8704 18.216 70.4117 18.216C70.9717 18.216 71.4664 18.3373 71.8957 18.58C72.3344 18.8227 72.675 19.1633 72.9177 19.602C73.1604 20.0313 73.2817 20.5307 73.2817 21.1V26H71.4477V21.534C71.4477 21.198 71.3824 20.9087 71.2517 20.666C71.121 20.4233 70.939 20.2367 70.7057 20.106C70.4817 19.966 70.2157 19.896 69.9077 19.896C69.609 19.896 69.343 19.966 69.1097 20.106C68.8764 20.2367 68.6944 20.4233 68.5637 20.666C68.433 20.9087 68.3677 21.198 68.3677 21.534V26H66.5337ZM78.4445 26.168C77.6605 26.168 76.9745 25.9907 76.3865 25.636C75.7985 25.2813 75.3412 24.8007 75.0145 24.194C74.6878 23.5873 74.5245 22.9153 74.5245 22.178C74.5245 21.4127 74.6878 20.736 75.0145 20.148C75.3505 19.5507 75.8032 19.0793 76.3725 18.734C76.9512 18.3887 77.5952 18.216 78.3045 18.216C78.9018 18.216 79.4245 18.314 79.8725 18.51C80.3298 18.706 80.7172 18.9767 81.0345 19.322C81.3518 19.6673 81.5945 20.064 81.7625 20.512C81.9305 20.9507 82.0145 21.4267 82.0145 21.94C82.0145 22.0707 82.0052 22.206 81.9865 22.346C81.9772 22.486 81.9538 22.6073 81.9165 22.71H76.0365V21.31H80.8805L80.0125 21.968C80.0965 21.5387 80.0732 21.156 79.9425 20.82C79.8212 20.484 79.6158 20.218 79.3265 20.022C79.0465 19.826 78.7058 19.728 78.3045 19.728C77.9218 19.728 77.5812 19.826 77.2825 20.022C76.9838 20.2087 76.7552 20.4887 76.5965 20.862C76.4472 21.226 76.3912 21.6693 76.4285 22.192C76.3912 22.6587 76.4518 23.074 76.6105 23.438C76.7785 23.7927 77.0212 24.068 77.3385 24.264C77.6652 24.46 78.0385 24.558 78.4585 24.558C78.8785 24.558 79.2332 24.4693 79.5225 24.292C79.8212 24.1147 80.0545 23.8767 80.2225 23.578L81.7065 24.306C81.5572 24.67 81.3238 24.992 81.0065 25.272C80.6892 25.552 80.3112 25.7713 79.8725 25.93C79.4432 26.0887 78.9672 26.168 78.4445 26.168ZM89.7711 26.168C89.1084 26.168 88.4924 26.0467 87.9231 25.804C87.3631 25.5613 86.8777 25.2253 86.4671 24.796C86.0657 24.3573 85.7717 23.8487 85.5851 23.27L87.1671 22.584C87.4191 23.1813 87.7831 23.6527 88.2591 23.998C88.7351 24.334 89.2717 24.502 89.8691 24.502C90.2051 24.502 90.4944 24.4507 90.7371 24.348C90.9891 24.236 91.1804 24.0867 91.3111 23.9C91.4511 23.7133 91.5211 23.4893 91.5211 23.228C91.5211 22.92 91.4277 22.668 91.2411 22.472C91.0637 22.2667 90.7931 22.108 90.4291 21.996L88.4271 21.352C87.6151 21.1 87.0037 20.722 86.5931 20.218C86.1824 19.714 85.9771 19.1213 85.9771 18.44C85.9771 17.8427 86.1217 17.3153 86.4111 16.858C86.7097 16.4007 87.1204 16.046 87.6431 15.794C88.1751 15.5327 88.7817 15.402 89.4631 15.402C90.0884 15.402 90.6624 15.514 91.1851 15.738C91.7077 15.9527 92.1557 16.256 92.5291 16.648C92.9117 17.0307 93.1964 17.4833 93.3831 18.006L91.8151 18.706C91.6097 18.1833 91.3017 17.782 90.8911 17.502C90.4804 17.2127 90.0044 17.068 89.4631 17.068C89.1457 17.068 88.8657 17.124 88.6231 17.236C88.3804 17.3387 88.1891 17.488 88.0491 17.684C87.9184 17.8707 87.8531 18.0947 87.8531 18.356C87.8531 18.6453 87.9464 18.902 88.1331 19.126C88.3197 19.3407 88.6044 19.5087 88.9871 19.63L90.9051 20.232C91.7357 20.5027 92.3564 20.876 92.7671 21.352C93.1871 21.828 93.3971 22.416 93.3971 23.116C93.3971 23.7133 93.2431 24.2407 92.9351 24.698C92.6271 25.1553 92.2024 25.5147 91.6611 25.776C91.1197 26.0373 90.4897 26.168 89.7711 26.168ZM94.9575 26V18.384H96.6795V20.148L96.4835 19.854C96.6235 19.3033 96.9035 18.8927 97.3235 18.622C97.7435 18.3513 98.2382 18.216 98.8075 18.216C99.4328 18.216 99.9835 18.3793 100.46 18.706C100.936 19.0327 101.244 19.462 101.384 19.994L100.866 20.036C101.099 19.4293 101.449 18.9767 101.916 18.678C102.382 18.37 102.919 18.216 103.526 18.216C104.067 18.216 104.548 18.3373 104.968 18.58C105.397 18.8227 105.733 19.1633 105.976 19.602C106.218 20.0313 106.34 20.5307 106.34 21.1V26H104.506V21.534C104.506 21.198 104.445 20.9087 104.324 20.666C104.202 20.4233 104.034 20.2367 103.82 20.106C103.605 19.966 103.344 19.896 103.036 19.896C102.746 19.896 102.49 19.966 102.266 20.106C102.042 20.2367 101.869 20.4233 101.748 20.666C101.626 20.9087 101.566 21.198 101.566 21.534V26H99.7315V21.534C99.7315 21.198 99.6708 20.9087 99.5495 20.666C99.4282 20.4233 99.2555 20.2367 99.0315 20.106C98.8168 19.966 98.5602 19.896 98.2615 19.896C97.9722 19.896 97.7155 19.966 97.4915 20.106C97.2675 20.2367 97.0948 20.4233 96.9735 20.666C96.8522 20.9087 96.7915 21.198 96.7915 21.534V26H94.9575ZM110.201 26.168C109.669 26.168 109.207 26.0793 108.815 25.902C108.423 25.7247 108.12 25.4727 107.905 25.146C107.69 24.81 107.583 24.4227 107.583 23.984C107.583 23.564 107.676 23.1907 107.863 22.864C108.05 22.528 108.339 22.248 108.731 22.024C109.123 21.8 109.618 21.6413 110.215 21.548L112.707 21.142V22.542L110.565 22.906C110.201 22.9713 109.93 23.088 109.753 23.256C109.576 23.424 109.487 23.6433 109.487 23.914C109.487 24.1753 109.585 24.3853 109.781 24.544C109.986 24.6933 110.238 24.768 110.537 24.768C110.92 24.768 111.256 24.6887 111.545 24.53C111.844 24.362 112.072 24.1333 112.231 23.844C112.399 23.5547 112.483 23.2373 112.483 22.892V20.932C112.483 20.6053 112.352 20.3347 112.091 20.12C111.839 19.896 111.503 19.784 111.083 19.784C110.691 19.784 110.341 19.8913 110.033 20.106C109.734 20.3113 109.515 20.5867 109.375 20.932L107.877 20.204C108.026 19.8027 108.26 19.4573 108.577 19.168C108.904 18.8693 109.286 18.636 109.725 18.468C110.164 18.3 110.64 18.216 111.153 18.216C111.778 18.216 112.329 18.3327 112.805 18.566C113.281 18.79 113.65 19.1073 113.911 19.518C114.182 19.9193 114.317 20.3907 114.317 20.932V26H112.581V24.698L112.973 24.67C112.777 24.9967 112.544 25.272 112.273 25.496C112.002 25.7107 111.694 25.8787 111.349 26C111.004 26.112 110.621 26.168 110.201 26.168ZM116.012 26V18.384H117.734V20.078L117.594 19.826C117.772 19.2567 118.047 18.86 118.42 18.636C118.803 18.412 119.26 18.3 119.792 18.3H120.24V19.924H119.582C119.06 19.924 118.64 20.0873 118.322 20.414C118.005 20.7313 117.846 21.1793 117.846 21.758V26H116.012ZM124.926 26.084C124.067 26.084 123.4 25.8507 122.924 25.384C122.457 24.908 122.224 24.2407 122.224 23.382V20.022H120.908V18.384H121.048C121.421 18.384 121.71 18.286 121.916 18.09C122.121 17.894 122.224 17.6093 122.224 17.236V16.648H124.058V18.384H125.808V20.022H124.058V23.284C124.058 23.536 124.1 23.7507 124.184 23.928C124.277 24.1053 124.417 24.2407 124.604 24.334C124.8 24.4273 125.047 24.474 125.346 24.474C125.411 24.474 125.486 24.4693 125.57 24.46C125.663 24.4507 125.752 24.4413 125.836 24.432V26C125.705 26.0187 125.556 26.0373 125.388 26.056C125.22 26.0747 125.066 26.084 124.926 26.084ZM127.391 26V15.57H130.793C131.894 15.57 132.851 15.794 133.663 16.242C134.484 16.6807 135.119 17.292 135.567 18.076C136.015 18.8507 136.239 19.7513 136.239 20.778C136.239 21.7953 136.015 22.7007 135.567 23.494C135.119 24.278 134.484 24.894 133.663 25.342C132.851 25.7807 131.894 26 130.793 26H127.391ZM129.295 24.32H130.835C131.544 24.32 132.155 24.1753 132.669 23.886C133.191 23.5873 133.597 23.1767 133.887 22.654C134.176 22.122 134.321 21.4967 134.321 20.778C134.321 20.05 134.176 19.4247 133.887 18.902C133.597 18.3793 133.191 17.9733 132.669 17.684C132.155 17.3947 131.544 17.25 130.835 17.25H129.295V24.32ZM141.212 26.168C140.428 26.168 139.742 25.9907 139.154 25.636C138.566 25.2813 138.109 24.8007 137.782 24.194C137.455 23.5873 137.292 22.9153 137.292 22.178C137.292 21.4127 137.455 20.736 137.782 20.148C138.118 19.5507 138.571 19.0793 139.14 18.734C139.719 18.3887 140.363 18.216 141.072 18.216C141.669 18.216 142.192 18.314 142.64 18.51C143.097 18.706 143.485 18.9767 143.802 19.322C144.119 19.6673 144.362 20.064 144.53 20.512C144.698 20.9507 144.782 21.4267 144.782 21.94C144.782 22.0707 144.773 22.206 144.754 22.346C144.745 22.486 144.721 22.6073 144.684 22.71H138.804V21.31H143.648L142.78 21.968C142.864 21.5387 142.841 21.156 142.71 20.82C142.589 20.484 142.383 20.218 142.094 20.022C141.814 19.826 141.473 19.728 141.072 19.728C140.689 19.728 140.349 19.826 140.05 20.022C139.751 20.2087 139.523 20.4887 139.364 20.862C139.215 21.226 139.159 21.6693 139.196 22.192C139.159 22.6587 139.219 23.074 139.378 23.438C139.546 23.7927 139.789 24.068 140.106 24.264C140.433 24.46 140.806 24.558 141.226 24.558C141.646 24.558 142.001 24.4693 142.29 24.292C142.589 24.1147 142.822 23.8767 142.99 23.578L144.474 24.306C144.325 24.67 144.091 24.992 143.774 25.272C143.457 25.552 143.079 25.7713 142.64 25.93C142.211 26.0887 141.735 26.168 141.212 26.168ZM149.07 26.168C148.258 26.168 147.549 25.9767 146.942 25.594C146.345 25.202 145.934 24.6747 145.71 24.012L147.082 23.354C147.278 23.7833 147.549 24.1193 147.894 24.362C148.249 24.6047 148.641 24.726 149.07 24.726C149.406 24.726 149.672 24.6513 149.868 24.502C150.064 24.3527 150.162 24.1567 150.162 23.914C150.162 23.7647 150.12 23.6433 150.036 23.55C149.962 23.4473 149.854 23.3633 149.714 23.298C149.584 23.2233 149.439 23.1627 149.28 23.116L148.034 22.766C147.39 22.5793 146.9 22.2947 146.564 21.912C146.238 21.5293 146.074 21.0767 146.074 20.554C146.074 20.0873 146.191 19.6813 146.424 19.336C146.667 18.9813 146.998 18.706 147.418 18.51C147.848 18.314 148.338 18.216 148.888 18.216C149.607 18.216 150.242 18.3887 150.792 18.734C151.343 19.0793 151.735 19.5647 151.968 20.19L150.568 20.848C150.438 20.5027 150.218 20.2273 149.91 20.022C149.602 19.8167 149.257 19.714 148.874 19.714C148.566 19.714 148.324 19.784 148.146 19.924C147.969 20.064 147.88 20.246 147.88 20.47C147.88 20.61 147.918 20.7313 147.992 20.834C148.067 20.9367 148.17 21.0207 148.3 21.086C148.44 21.1513 148.599 21.212 148.776 21.268L149.994 21.632C150.62 21.8187 151.1 22.0987 151.436 22.472C151.782 22.8453 151.954 23.3027 151.954 23.844C151.954 24.3013 151.833 24.7073 151.59 25.062C151.348 25.4073 151.012 25.678 150.582 25.874C150.153 26.07 149.649 26.168 149.07 26.168ZM153.364 26V18.384H155.198V26H153.364ZM153.364 17.53V15.57H155.198V17.53H153.364ZM160.587 29.08C160.018 29.08 159.49 28.9867 159.005 28.8C158.52 28.6133 158.1 28.352 157.745 28.016C157.4 27.6893 157.148 27.302 156.989 26.854L158.697 26.21C158.809 26.5647 159.028 26.8493 159.355 27.064C159.691 27.288 160.102 27.4 160.587 27.4C160.96 27.4 161.287 27.33 161.567 27.19C161.856 27.05 162.08 26.8447 162.239 26.574C162.398 26.3127 162.477 25.9953 162.477 25.622V23.886L162.827 24.306C162.566 24.7633 162.216 25.1087 161.777 25.342C161.338 25.5753 160.839 25.692 160.279 25.692C159.57 25.692 158.935 25.5287 158.375 25.202C157.815 24.8753 157.376 24.4273 157.059 23.858C156.742 23.2887 156.583 22.6493 156.583 21.94C156.583 21.2213 156.742 20.582 157.059 20.022C157.376 19.462 157.81 19.0233 158.361 18.706C158.912 18.3793 159.537 18.216 160.237 18.216C160.806 18.216 161.306 18.3373 161.735 18.58C162.174 18.8133 162.538 19.154 162.827 19.602L162.575 20.064V18.384H164.311V25.622C164.311 26.2847 164.148 26.8773 163.821 27.4C163.504 27.9227 163.065 28.3333 162.505 28.632C161.954 28.9307 161.315 29.08 160.587 29.08ZM160.503 23.998C160.895 23.998 161.236 23.914 161.525 23.746C161.824 23.5687 162.057 23.326 162.225 23.018C162.393 22.71 162.477 22.3553 162.477 21.954C162.477 21.562 162.388 21.212 162.211 20.904C162.043 20.5867 161.81 20.3393 161.511 20.162C161.222 19.9847 160.886 19.896 160.503 19.896C160.12 19.896 159.775 19.9847 159.467 20.162C159.159 20.3393 158.916 20.5867 158.739 20.904C158.571 21.212 158.487 21.562 158.487 21.954C158.487 22.346 158.571 22.696 158.739 23.004C158.916 23.312 159.154 23.5547 159.453 23.732C159.761 23.9093 160.111 23.998 160.503 23.998ZM166.024 26V18.384H167.746V19.882L167.606 19.616C167.783 19.1587 168.073 18.8133 168.474 18.58C168.885 18.3373 169.361 18.216 169.902 18.216C170.462 18.216 170.957 18.3373 171.386 18.58C171.825 18.8227 172.165 19.1633 172.408 19.602C172.651 20.0313 172.772 20.5307 172.772 21.1V26H170.938V21.534C170.938 21.198 170.873 20.9087 170.742 20.666C170.611 20.4233 170.429 20.2367 170.196 20.106C169.972 19.966 169.706 19.896 169.398 19.896C169.099 19.896 168.833 19.966 168.6 20.106C168.367 20.2367 168.185 20.4233 168.054 20.666C167.923 20.9087 167.858 21.198 167.858 21.534V26H166.024Z" fill="white"/>
<defs>
<linearGradient id="paint0_linear_947_1005" x1="3.73333" y1="19.7182" x2="197.333" y2="19.7182" gradientUnits="userSpaceOnUse">
<stop stop-color="#5F296D"/>
<stop offset="1" stop-color="#33296D"/>
</linearGradient>
</defs>
</svg>
