<svg width="36" height="37" viewBox="0 0 36 37" fill="none" xmlns="http://www.w3.org/2000/svg">
<path d="M36 27.5996C36 28.6605 35.5786 29.6779 34.8284 30.428C34.0783 31.1782 33.0609 31.5996 32 31.5996H4C2.93913 31.5996 1.92172 31.1782 1.17157 30.428C0.421427 29.6779 0 28.6605 0 27.5996V9.59961C0 8.53874 0.421427 7.52133 1.17157 6.77118C1.92172 6.02104 2.93913 5.59961 4 5.59961H32C33.0609 5.59961 34.0783 6.02104 34.8284 6.77118C35.5786 7.52133 36 8.53874 36 9.59961V27.5996Z" fill="#009B3A"/>
<path d="M32.7285 18.5996L18.0005 29.7236L3.27246 18.5996L18.0005 7.47461L32.7285 18.5996Z" fill="#FEDF01"/>
<path d="M17.9756 24.9814C21.5422 24.9814 24.4336 22.0901 24.4336 18.5234C24.4336 14.9568 21.5422 12.0654 17.9756 12.0654C14.4089 12.0654 11.5176 14.9568 11.5176 18.5234C11.5176 22.0901 14.4089 24.9814 17.9756 24.9814Z" fill="#002776"/>
<path d="M12.2775 15.4864C11.9421 16.1185 11.7149 16.8023 11.6055 17.5094C15.6005 17.2194 21.0225 19.4004 23.3495 22.1044C23.7515 21.5004 24.0495 20.8244 24.2325 20.1004C21.3605 17.2924 16.3155 15.4704 12.2775 15.4864Z" fill="#CBE9D4"/>
<path d="M12 18.833H13V19.833H12V18.833ZM13 20.833H14V21.833H13V20.833Z" fill="#88C9F9"/>
<path d="M15 18.833H16V19.833H15V18.833ZM17 19.833H18V20.833H17V19.833ZM21 21.833H22V22.833H21V21.833ZM18 22.833H19V23.833H18V22.833ZM21 16.833H22V17.833H21V16.833Z" fill="#55ACEE"/>
<path d="M19 20.833H20V21.833H19V20.833Z" fill="#3B88C3"/>
</svg>
