<svg width="36" height="37" viewBox="0 0 36 37" fill="none" xmlns="http://www.w3.org/2000/svg">
<g clip-path="url(#clip0_139_4353)">
<path d="M0 27.5996C0 28.6605 0.421427 29.6779 1.17157 30.428C1.92172 31.1782 2.93913 31.5996 4 31.5996H32C33.0609 31.5996 34.0783 31.1782 34.8284 30.428C35.5786 29.6779 36 28.6605 36 27.5996V23.5996H0V27.5996Z" fill="#FFCD05"/>
<path d="M0 14.5996H36V23.5996H0V14.5996Z" fill="#ED1F24"/>
<path d="M32 5.59961H4C2.93913 5.59961 1.92172 6.02104 1.17157 6.77118C0.421427 7.52133 0 8.53874 0 9.59961L0 14.5996H36V9.59961C36 8.53874 35.5786 7.52133 34.8284 6.77118C34.0783 6.02104 33.0609 5.59961 32 5.59961Z" fill="#141414"/>
</g>
<defs>
<clipPath id="clip0_139_4353">
<rect width="36" height="36" fill="white" transform="translate(0 0.599609)"/>
</clipPath>
</defs>
</svg>
