<svg width="36" height="37" viewBox="0 0 36 37" fill="none" xmlns="http://www.w3.org/2000/svg">
<path d="M36 27.5996C36 28.6605 35.5786 29.6779 34.8284 30.428C34.0783 31.1782 33.0609 31.5996 32 31.5996H4C2.93913 31.5996 1.92172 31.1782 1.17157 30.428C0.421427 29.6779 0 28.6605 0 27.5996V9.59961C0 8.53874 0.421427 7.52133 1.17157 6.77118C1.92172 6.02104 2.93913 5.59961 4 5.59961H32C33.0609 5.59961 34.0783 6.02104 34.8284 6.77118C35.5786 7.52133 36 8.53874 36 9.59961V27.5996Z" fill="#006600"/>
<path d="M32 5.59961H15V31.5996H32C33.0609 31.5996 34.0783 31.1782 34.8284 30.428C35.5786 29.6779 36 28.6605 36 27.5996V9.59961C36 8.53874 35.5786 7.52133 34.8284 6.77118C34.0783 6.02104 33.0609 5.59961 32 5.59961Z" fill="#D52B1E"/>
<path d="M15 10.5996C12.8783 10.5996 10.8434 11.4425 9.34315 12.9428C7.84285 14.443 7 16.4779 7 18.5996C7 20.7213 7.84285 22.7562 9.34315 24.2565C10.8434 25.7568 12.8783 26.5996 15 26.5996C17.1217 26.5996 19.1566 25.7568 20.6569 24.2565C22.1571 22.7562 23 20.7213 23 18.5996C23 16.4779 22.1571 14.443 20.6569 12.9428C19.1566 11.4425 17.1217 10.5996 15 10.5996ZM8.887 15.1936L10.489 16.7956L8.029 18.0256C8.10839 17.031 8.40102 16.0651 8.887 15.1936ZM8.029 19.1726L12.429 21.3796L9.723 23.1836L9.737 23.2046C8.74888 22.0793 8.14992 20.6653 8.029 19.1726ZM14 25.5196C13.0833 25.3888 12.202 25.076 11.408 24.5996H14V25.5196ZM14 23.5996H10.901L14 21.5336V23.5996ZM14 20.3316L13.393 20.7366L9.118 18.5996L11.234 17.5416L14 20.3066V20.3316ZM14 18.8926L10.457 15.3496L14 15.9396V18.8926ZM14 14.9006L9.568 14.1876C10.677 12.8235 12.2596 11.9279 14 11.6796V14.9006ZM21.113 15.1936C21.5991 16.0654 21.8918 17.0316 21.971 18.0266L19.511 16.7966L21.113 15.1936ZM16 11.6796C17.7402 11.9283 19.3228 12.8238 20.432 14.1876L16 14.9006V11.6796ZM16 15.9396L19.543 15.3486L16 18.8926V15.9396ZM16 20.3066L18.765 17.5416L20.882 18.5996L16.608 20.7366L16 20.3316V20.3066ZM16 25.5196V24.5996H18.592C17.798 25.076 16.9167 25.3888 16 25.5196ZM16 23.5996V21.5336L19.099 23.5996H16ZM20.264 23.2046L20.278 23.1836L17.572 21.3796L21.972 19.1726C21.8502 20.6651 21.2513 22.0788 20.264 23.2046Z" fill="#FFCC4D"/>
<path d="M11 13.5996V20.5996C11 21.6605 11.4214 22.6779 12.1716 23.428C12.9217 24.1782 13.9391 24.5996 15 24.5996C16.0609 24.5996 17.0783 24.1782 17.8284 23.428C18.5786 22.6779 19 21.6605 19 20.5996V13.5996H11Z" fill="#D52B1E"/>
<path d="M12 14.5996V20.5996C12 21.3953 12.3161 22.1583 12.8787 22.7209C13.4413 23.2835 14.2044 23.5996 15 23.5996C15.7956 23.5996 16.5587 23.2835 17.1213 22.7209C17.6839 22.1583 18 21.3953 18 20.5996V14.5996H12Z" fill="white"/>
<path d="M13 17.5996H17V19.5996H13V17.5996Z" fill="#829ACD"/>
<path d="M14 16.5996H16V20.5996H14V16.5996Z" fill="#829ACD"/>
<path d="M12 17.5996H13V19.5996H12V17.5996ZM14 17.5996H16V19.5996H14V17.5996ZM17 17.5996H18V19.5996H17V17.5996ZM14 20.5996H16V22.5996H14V20.5996ZM14 14.5996H16V16.5996H14V14.5996Z" fill="#003399"/>
</svg>
