<svg width="25" height="38" viewBox="0 0 25 38" fill="none" xmlns="http://www.w3.org/2000/svg">
<path fill-rule="evenodd" clip-rule="evenodd" d="M12.1781 0.343007C12.2112 0.146645 12.3833 0.00220414 12.5858 0.0008237L12.7052 9.97242e-06C12.9077 -0.00137047 13.0818 0.14071 13.1177 0.336602L14.2031 6.26392C14.2252 6.38454 14.3011 6.48906 14.41 6.54874L22.8369 11.1668C23.2117 11.3721 23.0633 11.9331 22.6342 11.9331H15.7391C15.4797 11.9331 15.2835 12.1638 15.3295 12.4147L15.5277 13.497C15.5512 13.6255 15.6358 13.7353 15.7552 13.7924L24.7033 18.0702C24.8777 18.1536 24.9704 18.3442 24.9268 18.5299L24.8935 18.6723C24.85 18.858 24.6818 18.9896 24.4879 18.9896H17.0313C16.7719 18.9896 16.5758 19.2202 16.6217 19.4711L19.6104 35.7913C19.6563 36.0421 19.4601 36.2728 19.2008 36.2728H6.61144C6.35442 36.2728 6.15884 36.0461 6.20086 35.7968L8.95421 19.4655C8.99622 19.2163 8.80065 18.9896 8.54363 18.9896H1.01211C0.818266 18.9896 0.650088 18.858 0.606563 18.6724L0.573168 18.5299C0.529642 18.3442 0.622295 18.1536 0.796595 18.0702L9.7324 13.7956C9.85366 13.7376 9.93881 13.6254 9.96085 13.4946L10.1439 12.4091C10.1859 12.1598 9.99032 11.9331 9.7333 11.9331H2.87714C2.68688 11.9331 2.52084 11.8063 2.47385 11.6251L2.43441 11.4729C2.38742 11.2917 2.47146 11.1022 2.63852 11.0127L10.9697 6.54926C11.0822 6.489 11.1601 6.38118 11.1811 6.25696L12.1781 0.343007ZM10.8357 8.30556C10.8924 7.96931 10.5304 7.71638 10.2259 7.8795L5.62081 10.3467C5.24217 10.5496 5.38875 11.115 5.81998 11.115H10.0092C10.2128 11.115 10.3865 10.9702 10.4197 10.7728L10.8357 8.30556ZM10.4645 15.5118C10.5181 15.1937 10.9075 15.0588 11.1522 15.2735L11.7944 15.8369C11.979 15.9988 11.9799 16.2824 11.7964 16.4455L10.9293 17.2161C10.637 17.4758 10.1752 17.2279 10.2396 16.8457L10.4645 15.5118ZM8.8195 18.1714C9.02308 18.1714 9.19679 18.0267 9.23007 17.8292L9.62714 15.4741C9.68238 15.1464 9.33828 14.894 9.03444 15.0394L4.11112 17.3945C3.71406 17.5845 3.85166 18.1714 4.29324 18.1714H8.8195ZM10.2898 20.3575C10.044 20.1482 9.65985 20.2844 9.60668 20.5998L9.09243 23.65C9.02852 24.0291 9.48355 24.2778 9.77745 24.0244L11.8128 22.2695C12.0026 22.1059 12.0017 21.8153 11.8109 21.6528L10.2898 20.3575ZM13.081 22.7343C12.9238 22.6005 12.6903 22.6012 12.534 22.736L9.26627 25.5535C9.0813 25.713 9.07672 25.9945 9.2564 26.1597L12.5756 29.2117C12.7364 29.3596 12.9865 29.3588 13.1463 29.2099L16.4127 26.1657C16.5912 25.9993 16.5848 25.718 16.3989 25.5597L13.081 22.7343ZM17.229 27.4054C17.1703 27.0851 16.7732 26.9571 16.533 27.181L13.7915 29.736C13.6175 29.8981 13.6185 30.1707 13.7935 30.3316L17.6528 33.8802C17.9453 34.1492 18.4176 33.8965 18.3467 33.509L17.229 27.4054ZM17.0926 35.4547C17.4701 35.4547 17.6526 35.0003 17.3769 34.7468L13.1519 30.862C12.9911 30.7141 12.741 30.7149 12.5813 30.8638L8.41271 34.7487C8.13976 35.0031 8.32292 35.4547 8.69906 35.4547H17.0926ZM7.42735 33.5264C7.36211 33.9133 7.83469 34.16 8.12427 33.8901L11.9361 30.3377C12.11 30.1756 12.109 29.903 11.934 29.7421L9.15236 27.1844C8.90964 26.9612 8.51181 27.0939 8.45747 27.4162L7.42735 33.5264ZM16.5382 23.6334C16.6077 24.0131 16.1528 24.2677 15.8561 24.015L13.7992 22.2635C13.6084 22.101 13.6075 21.8104 13.7973 21.6468L15.2967 20.354C15.5401 20.1441 15.9233 20.2758 15.9807 20.589L16.5382 23.6334ZM16.3221 17.8348C16.3577 18.0297 16.5302 18.1714 16.7317 18.1714H21.2048C21.6465 18.1714 21.784 17.5844 21.3869 17.3945L16.4845 15.0508C16.1783 14.9044 15.8325 15.1617 15.8929 15.4911L16.3221 17.8348ZM14.4054 11.9868C14.4689 12.3336 14.0617 12.5729 13.781 12.3538C13.5858 12.2013 13.5849 11.9102 13.7793 11.7566C14.0093 11.5751 14.3532 11.7015 14.4054 11.9868ZM13.9288 10.5891C14.0476 10.4953 14.1048 10.3452 14.0778 10.1978L13.0895 4.80097C13.0067 4.34899 12.3457 4.3535 12.2693 4.80656L11.3608 10.1955C11.3361 10.3421 11.3941 10.4903 11.5125 10.5828L12.4713 11.3313C12.6235 11.4501 12.8392 11.4495 12.9908 11.3299L13.9288 10.5891ZM11.6857 12.3604C11.8807 12.2064 11.8799 11.9144 11.684 11.7614C11.4512 11.5797 11.1053 11.7106 11.0567 11.9989C10.9982 12.3461 11.4066 12.5808 11.6857 12.3604ZM11.3279 13.6924C11.1274 13.8507 11.1195 14.1482 11.3114 14.3165L12.4821 15.3436C12.6407 15.4827 12.8806 15.482 13.0383 15.3418L14.1855 14.3223C14.3762 14.1528 14.3666 13.8557 14.1653 13.6985L12.9949 12.7849C12.8427 12.666 12.627 12.6666 12.4754 12.7863L11.3279 13.6924ZM13.0435 16.9328C12.8848 16.7936 12.645 16.7943 12.4872 16.9345L10.4158 18.7753C10.2304 18.9401 10.2335 19.2271 10.4224 19.388L12.5291 21.182C12.6863 21.3158 12.9198 21.3151 13.0761 21.1803L15.1478 19.394C15.3357 19.232 15.337 18.9449 15.1505 18.7813L13.0435 16.9328ZM15.2921 16.8288C15.3622 17.2115 14.9005 17.4654 14.6054 17.2064L13.7311 16.4394C13.5465 16.2775 13.5456 15.9939 13.7292 15.8308L14.3602 15.27C14.6025 15.0547 14.9911 15.185 15.0489 15.501L15.2921 16.8288ZM15.0298 10.7784C15.0655 10.9732 15.238 11.115 15.4394 11.115H19.432C19.8611 11.115 20.0095 10.554 19.6347 10.3486L15.1967 7.91655C14.8899 7.74841 14.5222 8.00648 14.5845 8.34631L15.0298 10.7784ZM20.4493 37.0909C20.4493 37.3169 20.263 37.5 20.0331 37.5H5.67504C5.44519 37.5 5.25886 37.3169 5.25886 37.0909C5.25886 36.865 5.44519 36.6819 5.67504 36.6819H20.0331C20.263 36.6819 20.4493 36.865 20.4493 37.0909Z" fill="#6D63EB"/>
</svg>
