<svg width="28" height="28" viewBox="0 0 28 28" fill="none" xmlns="http://www.w3.org/2000/svg">
<rect width="28" height="28" rx="14" fill="white"/>
<path fill-rule="evenodd" clip-rule="evenodd" d="M15.5464 19.0542C17.0205 19.5126 18.4655 19.6948 19.5339 19.7582C19.6256 19.7636 19.6766 19.7329 19.7047 19.7047C19.7329 19.6765 19.7636 19.6255 19.7582 19.5339C19.6948 18.4655 19.5126 17.0205 19.0542 15.5464C18.6391 16.2525 18.1376 16.9264 17.532 17.532C16.9264 18.1376 16.2525 18.6391 15.5464 19.0542ZM8.94584 15.5464C9.36093 16.2525 9.8624 16.9264 10.468 17.532C11.0736 18.1376 11.7475 18.6391 12.4536 19.0542C10.9795 19.5126 9.53448 19.6948 8.46609 19.7582C8.37444 19.7636 8.32345 19.7329 8.29528 19.7047C8.26711 19.6766 8.23638 19.6256 8.24181 19.5339C8.30521 18.4655 8.48741 17.0205 8.94584 15.5464ZM8.18321 14C7.3528 16.0243 7.08368 18.0974 7.0028 19.4604C6.95 20.3505 7.64954 21.05 8.5396 20.9972C9.90256 20.9163 11.9757 20.6472 14 19.8168C16.0243 20.6472 18.0974 20.9163 19.4604 20.9972C20.3505 21.05 21.05 20.3504 20.9972 19.4604C20.9163 18.0974 20.6472 16.0243 19.8168 14C20.6472 11.9757 20.9163 9.90257 20.9972 8.53961C21.05 7.64954 20.3505 6.95 19.4604 7.00282C18.0974 7.08371 16.0243 7.35281 14 8.1832C11.9757 7.3528 9.90258 7.0837 8.53961 7.00281C7.64954 6.94998 6.95 7.64953 7.00282 8.5396C7.08371 9.90256 7.35281 11.9757 8.18321 14ZM8.94585 12.4536C8.48742 10.9795 8.30523 9.53446 8.24182 8.46607C8.23638 8.3744 8.26712 8.32342 8.29528 8.29526C8.32344 8.26711 8.37442 8.23637 8.46607 8.24181C9.53448 8.30522 10.9795 8.48741 12.4536 8.94584C11.7475 9.36093 11.0736 9.8624 10.468 10.468C9.8624 11.0736 9.36093 11.7475 8.94585 12.4536ZM15.5464 8.94584C17.0205 8.48742 18.4655 8.30523 19.5339 8.24182C19.6256 8.23638 19.6766 8.26712 19.7047 8.29528C19.7329 8.32344 19.7636 8.37442 19.7582 8.46607C19.6948 9.53447 19.5126 10.9795 19.0542 12.4536C18.6391 11.7475 18.1376 11.0736 17.532 10.468C16.9264 9.86239 16.2525 9.36093 15.5464 8.94584ZM17.494 13.9964C17.4903 14.8887 17.1468 15.7816 16.4642 16.4642C15.783 17.1454 14.8924 17.4889 14.0019 17.494C13.1101 17.4898 12.218 17.1464 11.5358 16.4642C10.8532 15.7816 10.5098 14.8888 10.506 13.9964C10.5116 13.1065 10.855 12.2166 11.5358 11.5358C12.218 10.8536 13.1101 10.5102 14.0019 10.506C14.8924 10.5112 15.783 10.8546 16.4642 11.5358C17.145 12.2166 17.4884 13.1064 17.494 13.9964Z" fill="#5A296E"/>
</svg>
