<svg width="22" height="26" viewBox="0 0 22 26" fill="none" xmlns="http://www.w3.org/2000/svg">
<path d="M14.5 5.06665V10.1938L11.6875 11.8635V9.02196L10.2812 9.9004L7 11.8635V9.02196L5.59375 9.9004L0.90625 12.7129L0.4375 12.9763V25.6917H21.0625V5.06665H14.5ZM16.375 6.94165H19.1875V23.8167H2.3125V14.002L5.125 12.3323V15.1738L6.53125 14.2954L9.8125 12.3323V15.1738L11.2188 14.2954L15.9062 11.4829L16.375 11.2195V6.94165ZM4.1875 16.3167V18.1917H6.0625V16.3167H4.1875ZM7.9375 16.3167V18.1917H9.8125V16.3167H7.9375ZM11.6875 16.3167V18.1917H13.5625V16.3167H11.6875ZM15.4375 16.3167V18.1917H17.3125V16.3167H15.4375ZM4.1875 20.0667V21.9417H6.0625V20.0667H4.1875ZM7.9375 20.0667V21.9417H9.8125V20.0667H7.9375ZM11.6875 20.0667V21.9417H13.5625V20.0667H11.6875ZM15.4375 20.0667V21.9417H17.3125V20.0667H15.4375Z" fill="#6D63EB"/>
<path d="M8.2 6.80859L1 3.20859H5.8V0.808594L13 4.4086H8.2V6.80859Z" fill="#6D63EB"/>
</svg>
