<svg width="27" height="31" viewBox="0 0 27 31" fill="none" xmlns="http://www.w3.org/2000/svg">
<path d="M11.4248 25.1027H12.4473V30.75H11.4248V25.1027ZM25.48 7.68502L26.875 6.83978L25.4806 5.99583L26.5031 4.72606L24.9055 4.4131L25.4327 2.86629L23.8229 3.12281L23.7935 1.48814L22.3697 2.27629L21.7831 0.75L20.7159 1.98386L19.6436 0.75L19.0544 2.27629L17.6293 1.48685L17.5999 3.12153L15.9902 2.86501L16.5174 4.41182L14.9198 4.72478L15.9422 5.99455L14.5472 6.83978L15.9422 7.68245H18.0773L19.949 12.5781L20.7159 11.6957L21.7857 12.9296L22.3717 11.4058L23.7967 12.1953L23.8261 10.5606L25.4359 10.8171L24.9067 9.26646L26.5044 8.95351L25.48 7.68502ZM9.21311 10.6549H3.39781L5.37885 15.8398H11.1941L9.21311 10.6549ZM16.1308 10.6549H10.3155L12.2927 15.8398H18.108L16.1308 10.6549ZM11.6057 16.9024H5.79039L7.76759 22.0873H13.5829L11.6057 16.9024ZM18.5233 16.9024H12.708L14.6852 22.0873H20.5005L18.5233 16.9024ZM23.2452 24.0766H6.48823L0.625 8.70853H17.3743L23.2452 24.0766ZM21.987 23.1147L19.2193 15.8763L16.8369 9.62879H1.91395L7.05634 23.1134H21.9895L21.987 23.1147Z" fill="#6D63EB"/>
</svg>
