<svg width="23" height="23" viewBox="0 0 23 23" fill="none" xmlns="http://www.w3.org/2000/svg">
<path d="M12.4166 17.9167H13.3333C13.5764 17.9167 13.8095 18.0132 13.9814 18.1852C14.1533 18.3571 14.2499 18.5902 14.2499 18.8333H20.6666V20.6667H14.2499C14.2499 20.9098 14.1533 21.1429 13.9814 21.3148C13.8095 21.4868 13.5764 21.5833 13.3333 21.5833H9.66659C9.42347 21.5833 9.19031 21.4868 9.0184 21.3148C8.8465 21.1429 8.74992 20.9098 8.74992 20.6667H2.33325V18.8333H8.74992C8.74992 18.5902 8.8465 18.3571 9.0184 18.1852C9.19031 18.0132 9.42347 17.9167 9.66659 17.9167H10.5833V16.395C7.89742 15.2858 5.99992 12.4167 5.99992 9.36417V5.6975L11.4999 3.25L16.9999 5.6975V9.36417C16.9999 12.4167 15.1024 15.2858 12.4166 16.395V17.9167ZM11.4999 5.08333L7.83325 6.6325V9.66667H11.4999V5.08333ZM11.4999 9.66667V15.1667C13.2508 14.7358 15.1666 12.4717 15.1666 10.5833V9.66667H11.4999Z" fill="#6D63EB"/>
</svg>
