<svg width="48" height="48" viewBox="0 0 48 48" fill="none" xmlns="http://www.w3.org/2000/svg">
<rect x="0.28" y="0.28" width="47.04" height="47.04" rx="23.52" fill="url(#paint0_linear_228_4432)"/>
<path fill-rule="evenodd" clip-rule="evenodd" d="M23.4067 14.3506C23.6603 14.2555 23.9397 14.2555 24.1932 14.3506L30.9132 16.8706C31.3504 17.0345 31.64 17.4524 31.64 17.9193V23.7993C31.64 26.8193 29.6444 29.2036 27.8975 30.7322C27.0005 31.517 26.1088 32.1295 25.4436 32.5453C25.1098 32.7539 24.83 32.9149 24.6311 33.025C24.5316 33.08 24.4522 33.1225 24.396 33.152C24.368 33.1667 24.3457 33.1782 24.3297 33.1864L24.3105 33.1962L24.3044 33.1993L24.3015 33.2007C24.3012 33.2009 24.3008 33.2011 23.8 32.1993C23.2991 33.2011 23.2988 33.2009 23.2984 33.2007L23.2955 33.1993L23.2895 33.1962L23.2702 33.1864C23.2542 33.1782 23.2319 33.1667 23.2039 33.152C23.1478 33.1225 23.0683 33.08 22.9688 33.025C22.7699 32.9149 22.4901 32.7539 22.1564 32.5453C21.4911 32.1295 20.5994 31.517 19.7024 30.7322C17.9555 29.2036 15.96 26.8193 15.96 23.7993V17.9193C15.96 17.4524 16.2496 17.0345 16.6867 16.8706L23.4067 14.3506ZM23.8 32.1993L23.2991 33.2011C23.6144 33.3587 23.9855 33.3587 24.3008 33.2011L23.8 32.1993ZM23.8 30.9212C23.9319 30.8445 24.0857 30.7525 24.2564 30.6458C24.8511 30.2741 25.6394 29.7315 26.4224 29.0464C28.0355 27.635 29.4 25.8193 29.4 23.7993V18.6955L23.8 16.5955L18.2 18.6955V23.7993C18.2 25.8193 19.5644 27.635 21.1775 29.0464C21.9605 29.7315 22.7488 30.2741 23.3436 30.6458C23.5143 30.7525 23.668 30.8445 23.8 30.9212Z" fill="url(#paint1_linear_228_4432)"/>
<rect x="0.28" y="0.28" width="47.04" height="47.04" rx="23.52" stroke="#C8CCDD" stroke-width="0.56"/>
<defs>
<linearGradient id="paint0_linear_228_4432" x1="1.03084e-07" y1="0.50575" x2="16.497" y2="50.449" gradientUnits="userSpaceOnUse">
<stop stop-color="#F2F7FF"/>
<stop offset="1" stop-color="#D7DEFA"/>
</linearGradient>
<linearGradient id="paint1_linear_228_4432" x1="16.6133" y1="15.9628" x2="36.0854" y2="20.767" gradientUnits="userSpaceOnUse">
<stop offset="0.00191841" stop-color="#0E0E0F"/>
<stop offset="1" stop-color="#5C296D"/>
</linearGradient>
</defs>
</svg>
