<svg width="28" height="28" viewBox="0 0 28 28" fill="none" xmlns="http://www.w3.org/2000/svg">
<rect width="28" height="28" rx="14" fill="white"/>
<path fill-rule="evenodd" clip-rule="evenodd" d="M12.9333 7.76C12.9333 7.37708 12.6229 7.06667 12.24 7.06667H7.76C7.37708 7.06667 7.06667 7.37708 7.06667 7.76V12.2976C7.06667 12.6804 7.37706 12.9909 7.76 12.9909H12.24C12.5374 12.9909 12.824 13.0368 13.0932 13.1219C12.9897 12.828 12.9333 12.5118 12.9333 12.1824V7.76ZM14.9068 14.8781C15.0103 15.172 15.0667 15.4882 15.0667 15.8175V20.24C15.0667 20.6229 15.3771 20.9333 15.76 20.9333H20.24C20.6229 20.9333 20.9333 20.6229 20.9333 20.24V15.7024C20.9333 15.3195 20.6229 15.0091 20.24 15.0091H15.76C15.4626 15.0091 15.176 14.9632 14.9068 14.8781ZM12.24 6C13.212 6 14 6.78798 14 7.76V12.1824C14 13.1545 14.788 13.9424 15.76 13.9424H20.24C21.212 13.9424 22 14.7304 22 15.7024V20.24C22 21.212 21.212 22 20.24 22H15.76C14.788 22 14 21.212 14 20.24V15.8175C14 14.8455 13.212 14.0575 12.24 14.0575H7.76C6.78798 14.0575 6 13.2696 6 12.2976V7.76C6 6.78798 6.78798 6 7.76 6H12.24Z" fill="#5A296E"/>
</svg>
