<svg width="27" height="34" viewBox="0 0 27 34" fill="none" xmlns="http://www.w3.org/2000/svg">
<path d="M7.2918 0.340233C7.11777 0.469139 7.04688 0.739841 7.04688 1.28769V1.79687H6.69238C6.42168 1.79687 6.30566 1.8291 6.20898 1.92578C5.99629 2.13848 5.03594 4.11719 5.02949 4.36211C5.02305 4.62637 5.22285 4.82617 5.50645 4.82617C5.60957 4.82617 5.69336 4.83906 5.69336 4.8584C5.69336 4.87773 5.54512 5.18711 5.36465 5.54805C4.99082 6.2957 4.9457 6.58574 5.17129 6.76621C5.25508 6.83711 5.40332 6.88867 5.50645 6.88867C5.60957 6.88867 5.69336 6.90156 5.69336 6.9209C5.69336 6.94023 5.54512 7.24961 5.36465 7.61055C5.17773 7.99082 5.02949 8.3582 5.02949 8.48711C5.02305 8.80293 5.22285 8.95117 5.66758 8.95117H6.01562V9.49258V10.0404L4.06914 10.0598C1.83262 10.0791 1.79395 10.092 1.52324 10.627C1.39434 10.8654 1.375 11.0137 1.375 11.5744C1.375 11.9998 1.40723 12.3221 1.46523 12.4574C1.59414 12.7604 1.88418 13.0053 2.16777 13.0504L2.40625 13.0955V21.1328V29.1766L1.95508 29.2023C1.47812 29.2281 1.27832 29.3248 1.02695 29.6664C0.898047 29.834 0.891602 29.9307 0.891602 31.2197C0.891602 32.7344 0.898047 32.7602 1.33633 33.0824L1.51035 33.2178H13.75H25.9896L26.1637 33.0824C26.602 32.7602 26.6084 32.7344 26.6084 31.2197C26.6084 29.9307 26.602 29.834 26.473 29.6664C26.2217 29.3248 26.0219 29.2281 25.5449 29.2023L25.0938 29.1766V21.1328V13.0955L25.3387 13.0504C25.6158 13.0053 25.9059 12.7604 26.0348 12.4574C26.0928 12.3221 26.125 11.9998 26.125 11.5744C26.125 11.0137 26.1057 10.8654 25.9832 10.627C25.7061 10.092 25.6674 10.0791 23.4373 10.0598L21.4844 10.0404V9.49258V8.95117H21.8324C22.2771 8.95117 22.477 8.80293 22.4705 8.48711C22.4705 8.3582 22.3223 7.99082 22.1354 7.61055C21.9549 7.24961 21.8066 6.94023 21.8066 6.9209C21.8066 6.90156 21.8904 6.88867 21.9936 6.88867C22.0967 6.88867 22.2449 6.83711 22.3287 6.76621C22.5543 6.58574 22.5092 6.2957 22.1354 5.54805C21.9549 5.18711 21.8066 4.87773 21.8066 4.8584C21.8066 4.83906 21.8904 4.82617 21.9936 4.82617C22.2771 4.82617 22.477 4.62637 22.4705 4.36211C22.4641 4.11719 21.5037 2.13848 21.291 1.92578C21.1943 1.8291 21.0783 1.79687 20.8076 1.79687H20.4531V1.28769C20.4531 1.0041 20.4209 0.694725 20.3887 0.598045C20.2533 0.243553 19.9504 0.153316 19.6539 0.385349C19.4928 0.514256 19.4863 0.540039 19.4863 1.15879V1.79687H19.1447C18.9385 1.79687 18.7516 1.83554 18.6613 1.9C18.468 2.03535 17.4238 4.12363 17.4238 4.36855C17.4238 4.60058 17.6816 4.82617 17.9459 4.82617H18.1328L17.7783 5.53515C17.585 5.92187 17.4238 6.32793 17.4238 6.43105C17.4238 6.66308 17.6816 6.88867 17.9459 6.88867H18.1328L17.7783 7.59765C17.585 7.98437 17.4238 8.38398 17.4238 8.48711C17.4238 8.7707 17.6494 8.93828 18.0684 8.96406L18.4229 8.9834L18.4422 9.51191L18.4615 10.0469H16.876H15.2969V9.49902V8.95117H15.6514C16.0703 8.95117 16.2637 8.80937 16.2637 8.5C16.2637 8.39043 16.1025 7.98437 15.9092 7.59765L15.5547 6.88867H15.7674C16.0445 6.88867 16.2637 6.68887 16.2637 6.43105C16.2637 6.32793 16.1025 5.92187 15.9092 5.53515L15.5547 4.82617H15.7416C16.0059 4.82617 16.2637 4.60058 16.2637 4.36855C16.2637 4.26543 16.0252 3.69824 15.7029 3.06015C15.0971 1.84199 15.052 1.79687 14.5557 1.79687H14.2656V1.32636C14.2656 0.675388 14.1818 0.411133 13.9434 0.314453C13.7887 0.25 13.7113 0.25 13.5566 0.314453C13.3182 0.411133 13.2344 0.675388 13.2344 1.32636V1.79687H12.9443C12.448 1.79687 12.4029 1.84199 11.7971 3.06015C11.4748 3.69824 11.2363 4.26543 11.2363 4.36855C11.2363 4.60058 11.4941 4.82617 11.7584 4.82617H11.9453L11.5908 5.53515C11.3975 5.92187 11.2363 6.32793 11.2363 6.43105C11.2363 6.68887 11.4555 6.88867 11.7326 6.88867H11.9453L11.5908 7.59765C11.3975 7.98437 11.2363 8.39043 11.2363 8.5C11.2363 8.80937 11.4297 8.95117 11.8486 8.95117H12.2031V9.49902V10.0469H10.624H9.03848L9.05781 9.51191L9.07715 8.9834L9.43164 8.96406C9.85059 8.93828 10.0762 8.7707 10.0762 8.48711C10.0762 8.38398 9.91504 7.98437 9.72168 7.59765L9.36719 6.88867H9.5541C9.81836 6.88867 10.0762 6.66308 10.0762 6.43105C10.0762 6.32793 9.91504 5.92187 9.72168 5.53515L9.36719 4.82617H9.5541C9.81836 4.82617 10.0762 4.60058 10.0762 4.36855C10.0762 4.12363 9.03203 2.03535 8.83867 1.9C8.74844 1.83554 8.56152 1.79687 8.35527 1.79687H8.01367V1.15879C8.01367 0.540039 8.00723 0.514256 7.84609 0.385349C7.65273 0.230663 7.45293 0.217773 7.2918 0.340233ZM8.5293 3.27929C8.67109 3.56289 8.78711 3.80781 8.78711 3.82715C8.78711 3.84648 8.21992 3.85937 7.53027 3.85937H6.27344L6.54414 3.31152L6.81484 2.76367H7.54316H8.27148L8.5293 3.27929ZM14.7684 3.31152L15.0391 3.85937H13.75H12.4609L12.7316 3.31152L13.0023 2.76367H13.75H14.4977L14.7684 3.31152ZM20.9559 3.31152L21.2266 3.85937H19.9697C19.2801 3.85937 18.7129 3.84648 18.7129 3.82715C18.7129 3.80781 18.8289 3.56289 18.9707 3.27929L19.2285 2.76367H19.9568H20.6852L20.9559 3.31152ZM8.5293 5.34179C8.67109 5.62539 8.78711 5.87031 8.78711 5.88965C8.78711 5.90898 8.21992 5.92187 7.53027 5.92187H6.27344L6.54414 5.37402L6.81484 4.82617H7.54316H8.27148L8.5293 5.34179ZM14.7684 5.37402L15.0391 5.92187H13.75H12.4609L12.7316 5.37402L13.0023 4.82617H13.75H14.4977L14.7684 5.37402ZM20.9559 5.37402L21.2266 5.92187H19.9697C19.2801 5.92187 18.7129 5.90898 18.7129 5.88965C18.7129 5.87031 18.8289 5.62539 18.9707 5.34179L19.2285 4.82617H19.9568H20.6852L20.9559 5.37402ZM8.5293 7.40429C8.67109 7.68789 8.78711 7.93281 8.78711 7.95215C8.78711 7.97148 8.21992 7.98437 7.53027 7.98437H6.27344L6.54414 7.43652L6.81484 6.88867H7.54316H8.27148L8.5293 7.40429ZM14.7684 7.44941L15.0455 7.98437H13.75H12.4609L12.693 7.51387C12.8219 7.2625 12.9572 7.01113 12.9959 6.96601C13.041 6.90801 13.2537 6.88867 13.7758 6.90156L14.4912 6.9209L14.7684 7.44941ZM20.9559 7.43652L21.2266 7.98437H19.9697C19.2801 7.98437 18.7129 7.97148 18.7129 7.95215C18.7129 7.93281 18.8289 7.68789 18.9707 7.40429L19.2285 6.88867H19.9568H20.6852L20.9559 7.43652ZM8.07812 9.49902V10.0469H7.53027H6.98242V9.49902V8.95117H7.53027H8.07812V9.49902ZM14.3172 9.51191L14.3365 10.0469H13.75H13.1699V9.54414C13.1699 9.26699 13.1893 9.01562 13.215 8.98984C13.2408 8.96406 13.4922 8.95761 13.7822 8.96406L14.2979 8.9834L14.3172 9.51191ZM20.5176 9.49902V10.0469H19.9697H19.4219V9.49902V8.95117H19.9697H20.5176V9.49902ZM25.1453 11.5744L25.1646 12.1094H24.3977C23.5855 12.1094 23.2633 12.1803 23.1602 12.3672C23.057 12.5605 23.0828 12.7797 23.2246 12.9344C23.3342 13.0504 23.4309 13.0762 23.7402 13.0762H24.127V21.1328V29.1895H15.0133C9.99883 29.1895 5.84805 29.2088 5.79004 29.2281C5.73848 29.2539 5.6418 29.357 5.59023 29.4602C5.46777 29.6986 5.55801 29.9758 5.79648 30.0854C5.9125 30.1369 8.62598 30.1562 15.8125 30.1562H25.6738V31.2197V32.2832H13.75H1.82617V31.2197V30.1562H2.9541C4.06914 30.1562 4.08848 30.1562 4.24316 29.9951C4.62344 29.6213 4.33984 29.1895 3.72109 29.1895H3.37305V21.1328V13.0762H5.20352H7.03398L7.05977 13.4629C7.09199 13.9205 7.22734 14.1074 7.53027 14.1074C7.87187 14.1074 7.975 13.9785 8.01367 13.5145L8.0459 13.1084L10.6434 13.0891L13.2344 13.0762L13.2408 13.3146C13.2408 13.7078 13.3697 13.9979 13.576 14.0687C13.9756 14.2105 14.2527 13.9076 14.2592 13.3146L14.2656 13.0762L16.8631 13.0891L19.4541 13.1084L19.4863 13.5145C19.525 13.9785 19.6281 14.1074 19.9697 14.1074C20.2727 14.1074 20.408 13.9205 20.4402 13.4629L20.466 13.0762H21.0977C21.6391 13.0762 21.7357 13.0568 21.8389 12.9473C22 12.7668 21.9871 12.4574 21.8131 12.2834L21.6713 12.1416L12.0098 12.1223L2.3418 12.1094V11.6066C2.3418 11.3295 2.36113 11.0781 2.38691 11.0588C2.40625 11.033 7.53672 11.0201 13.7758 11.0266L25.126 11.0459L25.1453 11.5744Z" fill="#6D63EB"/>
<path d="M13.4662 16.2666C13.3244 16.3182 13.1633 16.4084 13.0988 16.4729C13.0344 16.5373 11.8613 18.5289 10.4885 20.9072C8.27773 24.7422 7.99413 25.2643 7.96835 25.5479C7.93613 25.9152 8.07792 26.1988 8.38085 26.3986C8.54843 26.5082 8.85136 26.5146 13.7498 26.5146C18.6482 26.5146 18.9512 26.5082 19.1187 26.3986C19.4217 26.1988 19.5635 25.9152 19.5312 25.5479C19.5055 25.2643 19.2219 24.7422 17.0047 20.9072C15.6318 18.5289 14.4781 16.5502 14.4394 16.5051C14.2396 16.2602 13.7949 16.1506 13.4662 16.2666ZM16.1732 21.4035L18.5709 25.5479L16.1603 25.5672C14.8326 25.5736 12.667 25.5736 11.3393 25.5672L8.9287 25.5479L11.3264 21.4035C12.6412 19.1283 13.7305 17.2656 13.7498 17.2656C13.7691 17.2656 14.8584 19.1283 16.1732 21.4035Z" fill="#6D63EB"/>
<path d="M13.4664 19.7921C13.3504 19.9017 13.2215 20.2175 12.983 20.978C12.8025 21.5517 12.6543 22.106 12.6543 22.222C12.6543 22.512 12.8412 22.6409 13.3246 22.6796L13.7307 22.7118L13.518 23.3886C13.3955 23.7624 13.2988 24.162 13.2988 24.2716C13.2988 24.7679 13.9369 24.929 14.1625 24.4907C14.3043 24.2136 14.8457 22.3831 14.8457 22.1833C14.8457 21.8868 14.6459 21.7579 14.1754 21.7257L13.7693 21.6999L13.982 21.0102C14.2527 20.1659 14.2592 19.9597 14.0336 19.7856C13.8145 19.6116 13.6662 19.6181 13.4664 19.7921Z" fill="#6D63EB"/>
</svg>
