<svg width="15" height="14" viewBox="0 0 15 14" fill="none" xmlns="http://www.w3.org/2000/svg">
<path d="M10 0.0442505V3.46238L8.125 4.5755V2.68113L7.1875 3.26675L5 4.5755V2.68113L4.0625 3.26675L0.9375 5.14175L0.625 5.31738V13.7943H14.375V0.0442505H10ZM11.25 1.29425H13.125V12.5443H1.875V6.00113L3.75 4.888V6.78238L4.6875 6.19675L6.875 4.888V6.78238L7.8125 6.19675L10.9375 4.32175L11.25 4.14613V1.29425ZM3.125 7.54425V8.79425H4.375V7.54425H3.125ZM5.625 7.54425V8.79425H6.875V7.54425H5.625ZM8.125 7.54425V8.79425H9.375V7.54425H8.125ZM10.625 7.54425V8.79425H11.875V7.54425H10.625ZM3.125 10.0443V11.2943H4.375V10.0443H3.125ZM5.625 10.0443V11.2943H6.875V10.0443H5.625ZM8.125 10.0443V11.2943H9.375V10.0443H8.125ZM10.625 10.0443V11.2943H11.875V10.0443H10.625Z" fill="#6D63EB"/>
</svg>
