<svg width="19" height="17" viewBox="0 0 19 17" fill="none" xmlns="http://www.w3.org/2000/svg">
<path d="M1.16675 14.3333V2.66667C1.16675 2.22464 1.34234 1.80072 1.6549 1.48816C1.96746 1.17559 2.39139 1 2.83341 1H16.1667C16.6088 1 17.0327 1.17559 17.3453 1.48816C17.6578 1.80072 17.8334 2.22464 17.8334 2.66667V14.3333C17.8334 14.7754 17.6578 15.1993 17.3453 15.5118C17.0327 15.8244 16.6088 16 16.1667 16H2.83341C2.39139 16 1.96746 15.8244 1.6549 15.5118C1.34234 15.1993 1.16675 14.7754 1.16675 14.3333Z" stroke="#6D63EB" stroke-width="1.5"/>
<path d="M1.16675 4.33333H17.8334M3.66675 2.675L3.67508 2.66583M6.16675 2.675L6.17508 2.66583M8.66675 2.675L8.67508 2.66583M9.22258 7.66667L7.83342 10.1667H11.1667L9.77758 12.6667" stroke="#6D63EB" stroke-width="1.5" stroke-linecap="round" stroke-linejoin="round"/>
</svg>
