<svg width="19" height="23" viewBox="0 0 19 23" fill="none" xmlns="http://www.w3.org/2000/svg">
<path d="M5.19453 0.560156C5.07852 0.646093 5.03125 0.826563 5.03125 1.1918V1.53125H4.79492C4.61445 1.53125 4.53711 1.55273 4.47266 1.61719C4.33086 1.75898 3.69062 3.07812 3.68633 3.24141C3.68203 3.41758 3.81523 3.55078 4.0043 3.55078C4.07305 3.55078 4.12891 3.55937 4.12891 3.57227C4.12891 3.58516 4.03008 3.79141 3.90977 4.03203C3.66055 4.53047 3.63047 4.72383 3.78086 4.84414C3.83672 4.89141 3.93555 4.92578 4.0043 4.92578C4.07305 4.92578 4.12891 4.93437 4.12891 4.94727C4.12891 4.96016 4.03008 5.16641 3.90977 5.40703C3.78516 5.66055 3.68633 5.90547 3.68633 5.99141C3.68203 6.20195 3.81523 6.30078 4.11172 6.30078H4.34375V6.66172V7.02695L3.04609 7.03984C1.55508 7.05273 1.5293 7.06133 1.34883 7.41797C1.26289 7.57695 1.25 7.67578 1.25 8.04961C1.25 8.3332 1.27148 8.54805 1.31016 8.63828C1.39609 8.84023 1.58945 9.00352 1.77852 9.03359L1.9375 9.06367V14.4219V19.7844L1.63672 19.8016C1.31875 19.8187 1.18555 19.8832 1.01797 20.1109C0.932031 20.2227 0.927734 20.2871 0.927734 21.1465C0.927734 22.1562 0.932031 22.1734 1.22422 22.3883L1.34023 22.4785H9.5H17.6598L17.7758 22.3883C18.068 22.1734 18.0723 22.1562 18.0723 21.1465C18.0723 20.2871 18.068 20.2227 17.982 20.1109C17.8145 19.8832 17.6812 19.8187 17.3633 19.8016L17.0625 19.7844V14.4219V9.06367L17.2258 9.03359C17.4105 9.00352 17.6039 8.84023 17.6898 8.63828C17.7285 8.54805 17.75 8.3332 17.75 8.04961C17.75 7.67578 17.7371 7.57695 17.6555 7.41797C17.4707 7.06133 17.4449 7.05273 15.9582 7.03984L14.6562 7.02695V6.66172V6.30078H14.8883C15.1848 6.30078 15.318 6.20195 15.3137 5.99141C15.3137 5.90547 15.2148 5.66055 15.0902 5.40703C14.9699 5.16641 14.8711 4.96016 14.8711 4.94727C14.8711 4.93437 14.927 4.92578 14.9957 4.92578C15.0645 4.92578 15.1633 4.89141 15.2191 4.84414C15.3695 4.72383 15.3395 4.53047 15.0902 4.03203C14.9699 3.79141 14.8711 3.58516 14.8711 3.57227C14.8711 3.55937 14.927 3.55078 14.9957 3.55078C15.1848 3.55078 15.318 3.41758 15.3137 3.24141C15.3094 3.07812 14.6691 1.75898 14.5273 1.61719C14.4629 1.55273 14.3855 1.53125 14.2051 1.53125H13.9688V1.1918C13.9688 1.00273 13.9473 0.796484 13.9258 0.732031C13.8355 0.495703 13.6336 0.435547 13.4359 0.590235C13.3285 0.676172 13.3242 0.693359 13.3242 1.10586V1.53125H13.0965C12.959 1.53125 12.8344 1.55703 12.7742 1.6C12.6453 1.69023 11.9492 3.08242 11.9492 3.2457C11.9492 3.40039 12.1211 3.55078 12.2973 3.55078H12.4219L12.1855 4.02344C12.0566 4.28125 11.9492 4.55195 11.9492 4.6207C11.9492 4.77539 12.1211 4.92578 12.2973 4.92578H12.4219L12.1855 5.39844C12.0566 5.65625 11.9492 5.92266 11.9492 5.99141C11.9492 6.18047 12.0996 6.29219 12.3789 6.30937L12.6152 6.32227L12.6281 6.67461L12.641 7.03125H11.584H10.5312V6.66602V6.30078H10.7676C11.0469 6.30078 11.1758 6.20625 11.1758 6C11.1758 5.92695 11.0684 5.65625 10.9395 5.39844L10.7031 4.92578H10.8449C11.0297 4.92578 11.1758 4.79258 11.1758 4.6207C11.1758 4.55195 11.0684 4.28125 10.9395 4.02344L10.7031 3.55078H10.8277C11.0039 3.55078 11.1758 3.40039 11.1758 3.2457C11.1758 3.17695 11.0168 2.79883 10.802 2.37344C10.398 1.56133 10.368 1.53125 10.0371 1.53125H9.84375V1.21758C9.84375 0.783594 9.78789 0.607422 9.62891 0.542969C9.52578 0.5 9.47422 0.5 9.37109 0.542969C9.21211 0.607422 9.15625 0.783594 9.15625 1.21758V1.53125H8.96289C8.63203 1.53125 8.60195 1.56133 8.19805 2.37344C7.9832 2.79883 7.82422 3.17695 7.82422 3.2457C7.82422 3.40039 7.99609 3.55078 8.17227 3.55078H8.29688L8.06055 4.02344C7.93164 4.28125 7.82422 4.55195 7.82422 4.6207C7.82422 4.79258 7.97031 4.92578 8.15508 4.92578H8.29688L8.06055 5.39844C7.93164 5.65625 7.82422 5.92695 7.82422 6C7.82422 6.20625 7.95312 6.30078 8.23242 6.30078H8.46875V6.66602V7.03125H7.41602H6.35898L6.37188 6.67461L6.38477 6.32227L6.62109 6.30937C6.90039 6.29219 7.05078 6.18047 7.05078 5.99141C7.05078 5.92266 6.94336 5.65625 6.81445 5.39844L6.57812 4.92578H6.70273C6.87891 4.92578 7.05078 4.77539 7.05078 4.6207C7.05078 4.55195 6.94336 4.28125 6.81445 4.02344L6.57812 3.55078H6.70273C6.87891 3.55078 7.05078 3.40039 7.05078 3.2457C7.05078 3.08242 6.35469 1.69023 6.22578 1.6C6.16563 1.55703 6.04102 1.53125 5.90352 1.53125H5.67578V1.10586C5.67578 0.693359 5.67148 0.676172 5.56406 0.590235C5.43516 0.487108 5.30195 0.478516 5.19453 0.560156ZM6.01953 2.51953C6.11406 2.70859 6.19141 2.87187 6.19141 2.88477C6.19141 2.89766 5.81328 2.90625 5.35352 2.90625H4.51562L4.69609 2.54102L4.87656 2.17578H5.36211H5.84766L6.01953 2.51953ZM10.1789 2.54102L10.3594 2.90625H9.5H8.64062L8.82109 2.54102L9.00156 2.17578H9.5H9.99844L10.1789 2.54102ZM14.3039 2.54102L14.4844 2.90625H13.6465C13.1867 2.90625 12.8086 2.89766 12.8086 2.88477C12.8086 2.87187 12.8859 2.70859 12.9805 2.51953L13.1523 2.17578H13.6379H14.1234L14.3039 2.54102ZM6.01953 3.89453C6.11406 4.08359 6.19141 4.24687 6.19141 4.25977C6.19141 4.27266 5.81328 4.28125 5.35352 4.28125H4.51562L4.69609 3.91602L4.87656 3.55078H5.36211H5.84766L6.01953 3.89453ZM10.1789 3.91602L10.3594 4.28125H9.5H8.64062L8.82109 3.91602L9.00156 3.55078H9.5H9.99844L10.1789 3.91602ZM14.3039 3.91602L14.4844 4.28125H13.6465C13.1867 4.28125 12.8086 4.27266 12.8086 4.25977C12.8086 4.24687 12.8859 4.08359 12.9805 3.89453L13.1523 3.55078H13.6379H14.1234L14.3039 3.91602ZM6.01953 5.26953C6.11406 5.45859 6.19141 5.62187 6.19141 5.63477C6.19141 5.64766 5.81328 5.65625 5.35352 5.65625H4.51562L4.69609 5.29102L4.87656 4.92578H5.36211H5.84766L6.01953 5.26953ZM10.1789 5.29961L10.3637 5.65625H9.5H8.64062L8.79531 5.34258C8.88125 5.175 8.97148 5.00742 8.99727 4.97734C9.02734 4.93867 9.16914 4.92578 9.51719 4.93437L9.99414 4.94727L10.1789 5.29961ZM14.3039 5.29102L14.4844 5.65625H13.6465C13.1867 5.65625 12.8086 5.64766 12.8086 5.63477C12.8086 5.62187 12.8859 5.45859 12.9805 5.26953L13.1523 4.92578H13.6379H14.1234L14.3039 5.29102ZM5.71875 6.66602V7.03125H5.35352H4.98828V6.66602V6.30078H5.35352H5.71875V6.66602ZM9.87813 6.67461L9.89102 7.03125H9.5H9.11328V6.69609C9.11328 6.51133 9.12617 6.34375 9.14336 6.32656C9.16055 6.30937 9.32812 6.30508 9.52148 6.30937L9.86523 6.32227L9.87813 6.67461ZM14.0117 6.66602V7.03125H13.6465H13.2812V6.66602V6.30078H13.6465H14.0117V6.66602ZM17.0969 8.04961L17.1098 8.40625H16.5984C16.057 8.40625 15.8422 8.45352 15.7734 8.57812C15.7047 8.70703 15.7219 8.85312 15.8164 8.95625C15.8895 9.03359 15.9539 9.05078 16.1602 9.05078H16.418V14.4219V19.793H10.3422C6.99922 19.793 4.23203 19.8059 4.19336 19.8187C4.15898 19.8359 4.09453 19.9047 4.06016 19.9734C3.97852 20.1324 4.03867 20.3172 4.19766 20.3902C4.275 20.4246 6.08398 20.4375 10.875 20.4375H17.4492V21.1465V21.8555H9.5H1.55078V21.1465V20.4375H2.30273C3.04609 20.4375 3.05898 20.4375 3.16211 20.3301C3.41563 20.0809 3.22656 19.793 2.81406 19.793H2.58203V14.4219V9.05078H3.80234H5.02266L5.03984 9.30859C5.06133 9.61367 5.15156 9.73828 5.35352 9.73828C5.58125 9.73828 5.65 9.65234 5.67578 9.34297L5.69727 9.07227L7.42891 9.05937L9.15625 9.05078L9.16055 9.20977C9.16055 9.47188 9.24648 9.66523 9.38398 9.7125C9.65039 9.80703 9.83516 9.60508 9.83945 9.20977L9.84375 9.05078L11.5754 9.05937L13.3027 9.07227L13.3242 9.34297C13.35 9.65234 13.4187 9.73828 13.6465 9.73828C13.8484 9.73828 13.9387 9.61367 13.9602 9.30859L13.9773 9.05078H14.3984C14.7594 9.05078 14.8238 9.03789 14.8926 8.96484C15 8.84453 14.9914 8.63828 14.8754 8.52227L14.7809 8.42773L8.33984 8.41484L1.89453 8.40625V8.07109C1.89453 7.88633 1.90742 7.71875 1.92461 7.70586C1.9375 7.68867 5.35781 7.68008 9.51719 7.68437L17.084 7.69727L17.0969 8.04961Z" fill="#6D63EB"/>
</svg>
