<svg width="24" height="24" viewBox="0 0 24 24" fill="none" xmlns="http://www.w3.org/2000/svg">
<rect x="0.5" y="0.5" width="23" height="23" rx="11.5" fill="#EFEEFC"/>
<path d="M17.5 12C17.5 11.2515 17.0831 10.5612 16.3829 10.0079C16.3819 10.0073 16.3808 10.0073 16.3802 10.0063C16.1811 8.04165 14.2974 6.5 12 6.5C9.70265 6.5 7.8189 8.04165 7.6198 10.0063C7.61925 10.0073 7.61815 10.0073 7.61705 10.0079C6.9169 10.5612 6.5 11.2515 6.5 12C6.5 13.7116 8.67085 15.118 11.45 15.2835V15.85C11.45 16.4 10.4485 16.901 10.4485 16.901C10.4218 16.915 10.401 16.938 10.39 16.966C10.379 16.994 10.3785 17.025 10.3885 17.0534C10.3885 17.0534 10.5563 17.5 10.9 17.5C11.2438 17.5 11.5182 17.225 12.2057 17.225C12.8932 17.225 13.5472 17.4626 13.5472 17.4626C13.5782 17.4721 13.6112 17.4734 13.6429 17.4664C13.6746 17.4593 13.704 17.4442 13.7281 17.4225L14.1225 17.0281C14.1654 16.9852 14.1543 16.933 14.0971 16.9115C14.0971 16.9115 13.1006 16.5375 13.1006 15.85V15.2334C15.6108 14.9282 17.5 13.5967 17.5 12ZM7.6 12C7.6 11.4395 8.0224 10.9303 8.7121 10.542C8.7066 10.4782 8.7 10.4144 8.7 10.35C8.7 8.8309 10.1779 7.6 12 7.6C13.8222 7.6 15.3 8.8309 15.3 10.35C15.3 10.4144 15.2934 10.4782 15.2885 10.542C15.9776 10.9303 16.4 11.4395 16.4 12C16.4 13.0252 14.997 13.8832 13.1006 14.128V13.7606C13.1042 13.6912 13.1325 13.6255 13.1803 13.5752L14.1885 12.6259C14.2363 12.5756 14.2647 12.5099 14.2688 12.4405V11.9725C14.2688 11.912 14.2259 11.8872 14.1741 11.918L13.1957 12.4939C13.1429 12.5247 13.1006 12.5005 13.1006 12.4394V10.46C13.1006 10.3995 13.0538 10.3654 12.996 10.3847L11.5545 10.8653C11.525 10.8768 11.4995 10.8966 11.4811 10.9223C11.4626 10.9479 11.452 10.9784 11.4506 11.01V12.44C11.4506 12.5005 11.4071 12.5269 11.3532 12.4988L10.2411 11.9137C10.2126 11.9002 10.1808 11.8956 10.1496 11.9003C10.1185 11.905 10.0895 11.9188 10.0662 11.9401L9.8781 12.1281C9.86799 12.138 9.86004 12.1499 9.85477 12.163C9.84949 12.1761 9.84701 12.1902 9.84748 12.2043C9.84794 12.2184 9.85135 12.2323 9.85747 12.2451C9.8636 12.2578 9.87231 12.2691 9.88305 12.2783L11.3681 13.5768C11.4137 13.617 11.4506 13.699 11.4506 13.7595V14.1802C9.2808 14.0455 7.6 13.122 7.6 12Z" fill="#011F3B"/>
<rect x="0.5" y="0.5" width="23" height="23" rx="11.5" stroke="#C8CCDD"/>
</svg>
