<svg width="48" height="49" viewBox="0 0 48 49" fill="none" xmlns="http://www.w3.org/2000/svg">
<rect x="0.28" y="0.880006" width="47.04" height="47.04" rx="23.52" fill="url(#paint0_linear_114_3476)"/>
<path d="M22.8473 27.4204L20.7798 25.3528L22.8473 23.2853L21.5039 21.9324L18.0835 25.3528L21.5039 28.7733L22.8473 27.4204ZM26.0963 28.7733L29.5168 25.3528L26.0963 21.9324L24.7529 23.2853L26.8204 25.3528L24.7529 27.4204L26.0963 28.7733Z" fill="url(#paint1_linear_114_3476)"/>
<path d="M30.4694 16.7778H26.4868C26.0867 15.6725 25.0386 14.8722 23.8 14.8722C22.5614 14.8722 21.5133 15.6725 21.1132 16.7778H17.1306C16.9972 16.7778 16.8733 16.7873 16.7495 16.8159C16.446 16.8795 16.1626 17.016 15.9236 17.2135C15.6846 17.411 15.4972 17.6637 15.3775 17.9497C15.2822 18.1688 15.225 18.4165 15.225 18.6833V32.0222C15.225 32.2795 15.2822 32.5367 15.3775 32.7654C15.4727 32.994 15.6156 33.1941 15.7871 33.3752C16.0444 33.6324 16.3779 33.823 16.7495 33.8992C16.8733 33.9182 16.9972 33.9278 17.1306 33.9278H30.4694C31.5175 33.9278 32.375 33.0703 32.375 32.0222V18.6833C32.375 17.6353 31.5175 16.7778 30.4694 16.7778ZM23.8 16.5396C24.1906 16.5396 24.5146 16.8635 24.5146 17.2542C24.5146 17.6448 24.1906 17.9687 23.8 17.9687C23.4094 17.9687 23.0854 17.6448 23.0854 17.2542C23.0854 16.8635 23.4094 16.5396 23.8 16.5396ZM30.4694 28.2111V32.0222H17.1306V18.6833H30.4694V28.2111Z" fill="url(#paint2_linear_114_3476)"/>
<rect x="0.28" y="0.880006" width="47.04" height="47.04" rx="23.52" stroke="#C8CCDD" stroke-width="0.56"/>
<defs>
<linearGradient id="paint0_linear_114_3476" x1="1.03084e-07" y1="1.10576" x2="16.497" y2="51.049" gradientUnits="userSpaceOnUse">
<stop stop-color="#F2F7FF"/>
<stop offset="1" stop-color="#D7DEFA"/>
</linearGradient>
<linearGradient id="paint1_linear_114_3476" x1="18.3058" y1="25.3046" x2="29.8344" y2="25.3046" gradientUnits="userSpaceOnUse">
<stop stop-color="#5F296D"/>
<stop offset="1" stop-color="#33296D"/>
</linearGradient>
<linearGradient id="paint2_linear_114_3476" x1="15.5585" y1="24.2657" x2="32.8514" y2="24.2657" gradientUnits="userSpaceOnUse">
<stop stop-color="#5F296D"/>
<stop offset="1" stop-color="#33296D"/>
</linearGradient>
</defs>
</svg>
