<svg width="48" height="48" viewBox="0 0 48 48" fill="none" xmlns="http://www.w3.org/2000/svg">
<rect x="0.28" y="0.28" width="47.04" height="47.04" rx="23.52" fill="url(#paint0_linear_139_4321)"/>
<path d="M31.3445 27.5605V29.8366C31.3453 30.0479 31.302 30.2571 31.2174 30.4507C31.1327 30.6443 31.0086 30.8181 30.8529 30.9609C30.6972 31.1038 30.5133 31.2126 30.3132 31.2803C30.113 31.3479 29.9009 31.3731 29.6904 31.3541C27.3557 31.1004 25.1131 30.3026 23.1427 29.0248C21.3095 27.8599 19.7552 26.3057 18.5903 24.4725C17.3081 22.4931 16.5101 20.2395 16.261 17.8943C16.2421 17.6845 16.267 17.4731 16.3343 17.2734C16.4015 17.0738 16.5096 16.8903 16.6516 16.7347C16.7936 16.5791 16.9665 16.4548 17.1592 16.3697C17.3519 16.2846 17.5602 16.2405 17.7709 16.2403H20.0471C20.4153 16.2367 20.7723 16.3671 21.0514 16.6072C21.3306 16.8473 21.513 17.1807 21.5645 17.5453C21.6606 18.2737 21.8388 18.989 22.0956 19.6773C22.1977 19.9489 22.2198 20.244 22.1593 20.5278C22.0988 20.8115 21.9582 21.0719 21.7542 21.2782L20.7906 22.2418C21.8707 24.1413 23.4435 25.7141 25.343 26.7941L26.3065 25.8306C26.5128 25.6266 26.7733 25.486 27.057 25.4255C27.3407 25.365 27.6359 25.3871 27.9074 25.4891C28.5958 25.746 29.311 25.9242 30.0395 26.0202C30.408 26.0722 30.7446 26.2579 30.9852 26.5419C31.2258 26.8258 31.3537 27.1884 31.3445 27.5605Z" stroke="url(#paint1_linear_139_4321)" stroke-width="1.68" stroke-linecap="round" stroke-linejoin="round"/>
<rect x="0.28" y="0.28" width="47.04" height="47.04" rx="23.52" stroke="#C8CCDD" stroke-width="0.56"/>
<defs>
<linearGradient id="paint0_linear_139_4321" x1="1.03084e-07" y1="0.50575" x2="16.497" y2="50.449" gradientUnits="userSpaceOnUse">
<stop stop-color="#F2F7FF"/>
<stop offset="1" stop-color="#D7DEFA"/>
</linearGradient>
<linearGradient id="paint1_linear_139_4321" x1="16.5483" y1="23.6937" x2="31.7641" y2="23.6937" gradientUnits="userSpaceOnUse">
<stop stop-color="#5F296D"/>
<stop offset="1" stop-color="#33296D"/>
</linearGradient>
</defs>
</svg>
