<svg width="29" height="30" viewBox="0 0 29 30" fill="none" xmlns="http://www.w3.org/2000/svg">
<rect x="0.0480957" y="0.888184" width="28.224" height="28.224" rx="14.112" fill="white"/>
<path fill-rule="evenodd" clip-rule="evenodd" d="M6.3134 12.802C5.83831 12.6689 5.68238 12.0735 6.03124 11.7246L10.8847 6.87119C11.2336 6.52227 11.829 6.67826 11.962 7.15334L13.7979 13.7072L13.8506 13.8953C13.8923 14.044 13.8791 14.1891 13.8268 14.3149C13.761 14.4732 13.6333 14.6009 13.475 14.6667C13.3492 14.719 13.2041 14.7322 13.0554 14.6906L6.3134 12.802ZM13.475 15.3333C13.3492 15.281 13.2041 15.2678 13.0554 15.3094L6.31339 17.198C5.83831 17.3311 5.68237 17.9265 6.03124 18.2754L10.8847 23.1288C11.2336 23.4777 11.829 23.3217 11.962 22.8467L13.7979 16.2928L13.8506 16.1047C13.8923 15.956 13.8791 15.8109 13.8268 15.6851C13.761 15.5268 13.6333 15.3991 13.475 15.3333ZM14.4933 15.6851C14.4411 15.8109 14.4279 15.956 14.4695 16.1047L14.5222 16.2928L16.3581 22.8467C16.4912 23.3218 17.0866 23.4777 17.4355 23.1288L22.2889 18.2754C22.6378 17.9265 22.4818 17.3311 22.0068 17.198L15.4529 15.3622L15.2647 15.3095C15.1161 15.2678 14.9709 15.281 14.8451 15.3333C14.6869 15.3991 14.5591 15.5268 14.4933 15.6851ZM14.8451 14.6668C14.9709 14.719 15.1161 14.7322 15.2647 14.6905L15.4529 14.6378L22.0068 12.802C22.4819 12.6689 22.6378 12.0735 22.2889 11.7246L17.4355 6.87117C17.0866 6.5223 16.4911 6.67827 16.3581 7.15331L14.5222 13.7072L14.4695 13.8953C14.4279 14.044 14.441 14.1891 14.4933 14.3149C14.5591 14.4732 14.6868 14.601 14.8451 14.6668ZM12.2222 12.0681C12.3918 12.6737 11.8338 13.2318 11.2282 13.0621L8.63899 12.3368C8.04513 12.1705 7.85021 11.4262 8.2863 10.9901L10.1502 9.12623C10.5863 8.69015 11.3306 8.88507 11.4969 9.47893L12.2222 12.0681ZM11.2282 16.9379C11.8338 16.7682 12.3918 17.3263 12.2222 17.9319L11.4969 20.5211C11.3306 21.1149 10.5863 21.3099 10.1502 20.8738L8.28629 19.0099C7.8502 18.5738 8.04513 17.8295 8.63898 17.6631L11.2282 16.9379ZM16.098 17.9319C15.9283 17.3263 16.4864 16.7683 17.092 16.9379L19.6811 17.6632C20.275 17.8295 20.4699 18.5738 20.0338 19.0099L18.17 20.8738C17.7339 21.3099 16.9896 21.1149 16.8232 20.5211L16.098 17.9319ZM15.7112 13.4489L16.8232 9.47892C16.9896 8.88507 17.7339 8.69015 18.17 9.12623L20.0338 10.9901C20.4699 11.4262 20.275 12.1705 19.6811 12.3368L15.7112 13.4489Z" fill="#5A296E"/>
</svg>
