<svg width="28" height="28" viewBox="0 0 28 28" fill="none" xmlns="http://www.w3.org/2000/svg">
<rect width="28" height="28" rx="14" fill="white"/>
<path fill-rule="evenodd" clip-rule="evenodd" d="M16.5709 19.163C15.7946 20.4569 14.8558 21.04 14 21.04C13.1442 21.04 12.2054 20.4569 11.4291 19.163C10.6642 17.8882 10.16 16.065 10.16 14C10.16 11.9349 10.6642 10.1119 11.4291 8.83706C12.2054 7.54316 13.1442 6.96 14 6.96C14.8558 6.96 15.7946 7.54316 16.5709 8.83706C17.3358 10.1119 17.84 11.9349 17.84 14C17.84 16.065 17.3358 17.8882 16.5709 19.163ZM22 14C22 9.58172 18.4182 6 14 6C9.58172 6 6 9.58172 6 14C6 18.4182 9.58172 22 14 22C18.4182 22 22 18.4182 22 14ZM6.96 14C6.96 16.8744 8.68261 19.3464 11.1518 20.44C9.96786 18.9831 9.2 16.641 9.2 14C9.2 11.359 9.96786 9.01686 11.1518 7.55996C8.68261 8.65361 6.96 11.1256 6.96 14ZM21.04 14C21.04 16.8744 19.3174 19.3464 16.8482 20.44C18.0322 18.9831 18.8 16.641 18.8 14C18.8 11.359 18.0322 9.01686 16.8482 7.55996C19.3174 8.65361 21.04 11.1256 21.04 14ZM14 14.88C14.486 14.88 14.88 14.486 14.88 14C14.88 13.514 14.486 13.12 14 13.12C13.514 13.12 13.12 13.514 13.12 14C13.12 14.486 13.514 14.88 14 14.88Z" fill="#5A296E"/>
</svg>
