<svg width="48" height="48" viewBox="0 0 48 48" fill="none" xmlns="http://www.w3.org/2000/svg">
<rect x="0.28" y="0.28" width="47.04" height="47.04" rx="23.52" fill="url(#paint0_linear_114_3492)"/>
<path d="M22.2375 14.5437C23.3463 14.5437 24.3917 14.8226 25.3043 15.3131C25.2312 15.741 25.0889 16.044 24.8946 16.2392C24.7736 16.3557 24.6308 16.4472 24.4744 16.5084C23.8742 16.2266 23.2245 16.0657 22.5622 16.0349C21.8998 16.0041 21.2379 16.1041 20.6143 16.3292C19.9906 16.5542 19.4174 16.8999 18.9273 17.3464C18.4372 17.793 18.0399 18.3318 17.758 18.9319C17.4761 19.532 17.3152 20.1818 17.2844 20.8441C17.2537 21.5064 17.3537 22.1683 17.5787 22.792C17.8037 23.4156 18.1494 23.9889 18.596 24.479C19.0426 24.9691 19.5813 25.3664 20.1814 25.6483C20.8431 25.906 21.4547 26.0483 22.0144 26.0781L22.2375 26.0839C22.8578 26.0839 23.5425 25.9396 24.2926 25.6492C25.1698 25.2566 25.9175 24.623 26.4487 23.822C27.0642 24.0336 27.8037 23.9047 28.2701 23.4364C27.8731 24.4312 27.2365 25.3125 26.417 26.0022L27.9758 30.6807C28.1 31.0531 28.09 31.4571 27.9478 31.8229C27.8055 32.1887 27.5399 32.4932 27.1969 32.6839C25.8784 33.4177 24.2224 33.7773 22.2375 33.7773C20.2526 33.7773 18.5966 33.4177 17.2781 32.6839C16.9351 32.4932 16.6695 32.1887 16.5272 31.8229C16.385 31.4571 16.375 31.0531 16.4992 30.6807L18.058 26.0022C17.0393 25.145 16.3087 23.9952 15.9654 22.7088C15.6221 21.4224 15.6827 20.0615 16.1389 18.8107C16.5951 17.5599 17.425 16.4796 18.5159 15.7163C19.6068 14.953 20.9061 14.5437 22.2375 14.5437ZM25.1774 26.8446L24.8312 26.9879L24.8138 26.9956C24.0977 27.3052 23.3313 27.4824 22.552 27.5187H22.5356C22.5123 27.5208 22.4889 27.5221 22.4654 27.5226L22.2375 27.5264L22.049 27.5226L21.924 27.5178C21.1443 27.4825 20.3775 27.3056 19.6612 26.9956L19.6439 26.9879C19.5276 26.9422 19.4122 26.8944 19.2976 26.8446L17.8676 31.1366C17.8497 31.1897 17.851 31.2475 17.8712 31.2998C17.8914 31.3522 17.9293 31.3958 17.9782 31.4231C19.0649 32.0261 20.4815 32.3348 22.2375 32.3348C23.9935 32.3348 25.411 32.0271 26.4968 31.4231C26.5455 31.3958 26.5833 31.3523 26.6034 31.3002C26.6236 31.2481 26.625 31.1906 26.6074 31.1375L25.1774 26.8446ZM21.9394 27.5197L22.049 27.5226L22.0808 27.5245L22.2375 27.5264C22.1375 27.5264 22.0384 27.5245 21.9394 27.5197ZM27.9999 14.4283L28.0076 14.5437C28.0076 15.6497 28.2672 16.4286 28.7577 16.9191C29.2106 17.3711 29.9098 17.6278 30.883 17.6644L31.133 17.6692C32.0543 17.6692 32.0928 18.9944 31.2484 19.104L31.133 19.1117C30.0271 19.1117 29.2481 19.3714 28.7577 19.8618C28.3057 20.3157 28.0489 21.0139 28.0124 21.9871L28.0076 22.2372C28.0076 23.1989 26.5651 23.1989 26.5651 22.2372C26.5651 21.1312 26.3054 20.3523 25.815 19.8618C25.361 19.4098 24.6629 19.1531 23.6896 19.1165L23.4396 19.1117C22.5183 19.1117 22.4798 17.7865 23.3242 17.6769L23.4396 17.6692C24.5455 17.6692 25.3245 17.4095 25.815 16.9191C26.3054 16.4286 26.5651 15.6497 26.5651 14.5437C26.5651 13.6224 27.8903 13.584 27.9999 14.4283ZM27.2863 17.3836L27.1478 17.5788C26.9069 17.8974 26.6128 18.172 26.2785 18.3905C26.6799 18.6534 27.023 18.9961 27.2863 19.3973C27.5493 18.9962 27.8921 18.6535 28.2932 18.3905C27.9595 18.1714 27.6658 17.8969 27.4248 17.5788L27.2863 17.3836Z" fill="url(#paint1_linear_114_3492)"/>
<rect x="0.28" y="0.28" width="47.04" height="47.04" rx="23.52" stroke="#C8CCDD" stroke-width="0.56"/>
<defs>
<linearGradient id="paint0_linear_114_3492" x1="1.03084e-07" y1="0.50575" x2="16.497" y2="50.449" gradientUnits="userSpaceOnUse">
<stop stop-color="#F2F7FF"/>
<stop offset="1" stop-color="#D7DEFA"/>
</linearGradient>
<linearGradient id="paint1_linear_114_3492" x1="16.0591" y1="23.6594" x2="32.3016" y2="23.6594" gradientUnits="userSpaceOnUse">
<stop stop-color="#5F296D"/>
<stop offset="1" stop-color="#33296D"/>
</linearGradient>
</defs>
</svg>
