<svg width="19" height="19" viewBox="0 0 19 19" fill="none" xmlns="http://www.w3.org/2000/svg">
<path d="M8.84699 0.560791L7.69016 2.87442L7.20531 1.42013L5.47656 2.28446V3.0706L6.79461 2.41161L7.55984 4.7072L8.90309 2.02087L10.778 5.14587L12.1572 2.38755L13.5234 3.07063V2.2845L11.8428 1.44423L10.7219 3.68579L8.84699 0.560791ZM2.97656 2.26743V4.06431H4.77344V2.26743H2.97656ZM14.2266 2.26743V4.06431H16.0234V2.26743H14.2266ZM2.35156 4.76743V16.5643H6.02344V12.1893H12.9766V16.5643H16.6484V4.76743H13.5245L12.2745 9.76743H6.72551L5.47551 4.76743H2.35156ZM6.29793 5.15806L6.47371 5.86118H12.5263L12.7021 5.15806H6.29793ZM6.62996 6.48618L6.80574 7.18931H12.1943L12.37 6.48618H6.62996ZM14.7734 7.54087C15.3086 7.54087 15.75 7.98228 15.75 8.51743C15.75 9.05259 15.3086 9.49399 14.7734 9.49399C14.2383 9.49399 13.7969 9.05259 13.7969 8.51743C13.7969 7.98228 14.2383 7.54087 14.7734 7.54087ZM6.96199 7.81431L7.13777 8.51743H11.8622L12.038 7.81431H6.96199ZM14.7734 10.0409C15.3086 10.0409 15.75 10.4823 15.75 11.0174C15.75 11.5526 15.3086 11.994 14.7734 11.994C14.2383 11.994 13.7969 11.5526 13.7969 11.0174C13.7969 10.4823 14.2383 10.0409 14.7734 10.0409ZM14.7734 12.5409C15.3086 12.5409 15.75 12.9823 15.75 13.5174C15.75 14.0526 15.3086 14.494 14.7734 14.494C14.2383 14.494 13.7969 14.0526 13.7969 13.5174C13.7969 12.9823 14.2383 12.5409 14.7734 12.5409ZM2.11719 17.2674L0.554688 18.4393H4.77344V17.2674H2.11719ZM14.2266 17.2674V18.4393H18.4453L16.8828 17.2674H14.2266Z" fill="#6D63EB"/>
</svg>
