<svg width="31" height="31" viewBox="0 0 31 31" fill="none" xmlns="http://www.w3.org/2000/svg">
<path d="M8.25 19V19.625C8.25 20.1458 8.0675 20.5887 7.7025 20.9538C7.3375 21.3188 6.895 21.5008 6.375 21.5C5.85417 21.5 5.41125 21.3175 5.04625 20.9525C4.68125 20.5875 4.49917 20.145 4.5 19.625V10.25L7.125 2.75C7.25 2.375 7.47375 2.07292 7.79625 1.84375C8.11875 1.61458 8.47834 1.5 8.875 1.5H22.625C23.0208 1.5 23.3804 1.61458 23.7038 1.84375C24.0271 2.07292 24.2508 2.375 24.375 2.75L27 10.25V19.625C27 20.1458 26.8179 20.5887 26.4538 20.9538C26.0896 21.3188 25.6467 21.5008 25.125 21.5C24.6042 21.5 24.1613 21.3175 23.7963 20.9525C23.4313 20.5875 23.2492 20.145 23.25 19.625V19H8.25ZM8 7.75H23.5L22.1875 4H9.3125L8 7.75ZM10.125 15.25C10.6458 15.25 11.0888 15.0675 11.4538 14.7025C11.8188 14.3375 12.0008 13.895 12 13.375C12 12.8542 11.8175 12.4113 11.4525 12.0463C11.0875 11.6813 10.645 11.4992 10.125 11.5C9.60417 11.5 9.16125 11.6825 8.79625 12.0475C8.43125 12.4125 8.24917 12.855 8.25 13.375C8.25 13.8958 8.4325 14.3387 8.7975 14.7037C9.1625 15.0687 9.605 15.2508 10.125 15.25ZM21.375 15.25C21.8958 15.25 22.3388 15.0675 22.7038 14.7025C23.0688 14.3375 23.2508 13.895 23.25 13.375C23.25 12.8542 23.0675 12.4113 22.7025 12.0463C22.3375 11.6813 21.895 11.4992 21.375 11.5C20.8542 11.5 20.4113 11.6825 20.0463 12.0475C19.6813 12.4125 19.4992 12.855 19.5 13.375C19.5 13.8958 19.6825 14.3387 20.0475 14.7037C20.4125 15.0687 20.855 15.2508 21.375 15.25ZM17 29L9.5 25.25H14.5V22.75L22 26.5H17V29ZM7 16.5H24.5V10.25H7V16.5Z" fill="#6D63EB"/>
</svg>
