<svg width="48" height="49" viewBox="0 0 48 49" fill="none" xmlns="http://www.w3.org/2000/svg">
<rect x="0.28" y="0.880006" width="47.04" height="47.04" rx="23.52" fill="url(#paint0_linear_114_3534)"/>
<path d="M27.5333 18.8L27.1227 19.3134C26.7307 19.7987 26.208 20.0134 25.6853 20.0134C24.7333 20.0134 23.8 19.2854 23.8 18.1467V15.0667C23.8 15.0667 16.3333 18.8 16.3333 25.3334C16.3333 29.4587 19.6747 32.8 23.8 32.8C27.9253 32.8 31.2667 29.4587 31.2667 25.3334C31.2667 22.5707 29.764 20.088 27.5333 18.8ZM23.8 30.9334C22.7733 30.9334 21.9333 30.1214 21.9333 29.1227C21.9333 28.6467 22.12 28.1987 22.4747 27.8534L23.8 26.5467L25.1347 27.8534C25.48 28.1987 25.6667 28.6467 25.6667 29.1227C25.6667 30.1214 24.8267 30.9334 23.8 30.9334ZM27.496 29.5334C27.5333 29.1974 27.7013 27.7694 26.4413 26.528L23.8 23.9334L21.1587 26.528C19.8893 27.7787 20.0667 29.216 20.104 29.5334C19.5058 29.0093 19.0265 28.3634 18.6981 27.6391C18.3698 26.9148 18.1999 26.1286 18.2 25.3334C18.2 22.384 20.188 20.06 21.9613 18.5667C22.0695 19.4788 22.5082 20.3197 23.1944 20.9302C23.8807 21.5407 24.7668 21.8787 25.6853 21.88C26.4133 21.88 27.1227 21.6654 27.72 21.264C28.7964 22.3447 29.4006 23.808 29.4 25.3334C29.4 27.004 28.6627 28.5067 27.496 29.5334Z" fill="url(#paint1_linear_114_3534)"/>
<rect x="0.28" y="0.880006" width="47.04" height="47.04" rx="23.52" stroke="#C8CCDD" stroke-width="0.56"/>
<defs>
<linearGradient id="paint0_linear_114_3534" x1="1.03084e-07" y1="1.10576" x2="16.497" y2="51.049" gradientUnits="userSpaceOnUse">
<stop stop-color="#F2F7FF"/>
<stop offset="1" stop-color="#D7DEFA"/>
</linearGradient>
<linearGradient id="paint1_linear_114_3534" x1="16.6237" y1="23.8084" x2="31.6815" y2="23.8084" gradientUnits="userSpaceOnUse">
<stop stop-color="#5F296D"/>
<stop offset="1" stop-color="#33296D"/>
</linearGradient>
</defs>
</svg>
