<svg width="28" height="28" viewBox="0 0 28 28" fill="none" xmlns="http://www.w3.org/2000/svg">
<rect width="28" height="28" rx="14" fill="white"/>
<path fill-rule="evenodd" clip-rule="evenodd" d="M7.31566 13.0818L7.31299 13.0863C7.14911 13.3623 7.06667 13.6596 7.06667 14C7.06667 14.3598 7.15168 14.6503 7.30525 14.9009L7.3119 14.9117L7.31828 14.9227C7.4752 15.193 7.68214 15.3999 7.95225 15.5568L7.95669 15.5593L7.96111 15.562C8.23721 15.7259 8.53458 15.8083 8.87504 15.8083C9.6526 15.8083 10.2343 15.5285 10.7101 14.9361C10.9969 14.5791 11.2922 14.262 11.5976 14.0032C11.5004 13.9133 11.4081 13.8194 11.3207 13.7239C10.75 13.1138 10.2906 12.7052 9.93741 12.4623C9.70881 12.3052 9.37725 12.1917 8.87504 12.1917C8.53096 12.1917 8.23129 12.2694 7.95687 12.4201C7.68336 12.5912 7.47492 12.8075 7.31828 13.0773L7.31566 13.0818ZM7.41664 11.5C7.86112 11.25 8.3472 11.125 8.87504 11.125C9.54168 11.125 10.0972 11.2778 10.5417 11.5833C10.9861 11.8889 11.507 12.3611 12.1042 13C12.2575 13.1681 12.4081 13.3064 12.5562 13.4146C12.5848 13.4355 12.6133 13.4553 12.6417 13.474C12.8556 13.6147 13.0639 13.6921 13.2667 13.706C13.289 13.7076 13.3112 13.7083 13.3334 13.7083L13.7083 13.7083L13.7083 13.3333C13.7083 13.3115 13.7072 13.2893 13.705 13.2667C13.6873 13.0848 13.5981 12.8765 13.4377 12.6417C13.4284 12.6282 13.419 12.6146 13.4092 12.6009C13.1943 12.2977 12.8634 11.9516 12.4166 11.5625C11.5555 10.8264 11.125 9.93055 11.125 8.875C11.125 8.34722 11.25 7.86111 11.5 7.41666C11.7639 6.98611 12.1111 6.63889 12.5417 6.375C12.9861 6.125 13.4722 6 14 6C14.5278 6 15.0069 6.125 15.4375 6.375C15.8819 6.63889 16.2292 6.98611 16.4792 7.41666C16.7431 7.86111 16.875 8.34722 16.875 8.875C16.875 9.91666 16.4514 10.8056 15.6042 11.5417C15.1588 11.9286 14.8306 12.2771 14.6193 12.5873C14.6069 12.6056 14.5949 12.6237 14.5832 12.6417C14.4346 12.8718 14.3523 13.0801 14.3362 13.2667C14.3343 13.2892 14.3333 13.3114 14.3333 13.3333L14.3333 13.7083L14.6667 13.7083C14.7026 13.7083 14.7387 13.7063 14.775 13.7023C14.9778 13.6798 15.1861 13.5943 15.4 13.4459C15.411 13.4383 15.4219 13.4305 15.4329 13.4225C15.5845 13.3131 15.7388 13.1723 15.8958 13L16.3333 12.5208C16.6528 12.1736 17.0347 11.8542 17.4792 11.5625C17.9375 11.2708 18.4861 11.125 19.125 11.125C19.6528 11.125 20.1319 11.25 20.5625 11.5C21.0069 11.7639 21.3542 12.1111 21.6042 12.5417C21.8681 12.9861 22 13.4722 22 14C22 14.5278 21.8681 15.007 21.6042 15.4375C21.3403 15.8819 20.9931 16.2292 20.5625 16.4792C20.1319 16.743 19.6528 16.875 19.125 16.875C18.0833 16.875 17.1944 16.4514 16.4583 15.6042C16.0788 15.1673 15.7362 14.8431 15.4305 14.6315C15.4203 14.6245 15.4101 14.6175 15.4 14.6107C15.1705 14.4563 14.9622 14.3663 14.775 14.3409C14.7381 14.3359 14.7019 14.3334 14.6667 14.3334L14.3333 14.3334L14.3333 14.6666C14.3333 14.7021 14.3357 14.7382 14.3405 14.775C14.365 14.9647 14.4528 15.173 14.6038 15.4C14.612 15.4123 14.6204 15.4247 14.629 15.4371C14.8405 15.744 15.1656 16.0844 15.6042 16.4583C16.4514 17.1666 16.875 18.0555 16.875 19.125C16.875 19.6528 16.7431 20.1319 16.4792 20.5625C16.2292 21.007 15.8889 21.3542 15.4583 21.6042C15.0278 21.8681 14.5417 22 14 22C13.4722 22 12.9861 21.8681 12.5417 21.6042C12.1111 21.3542 11.7639 21.007 11.5 20.5625C11.25 20.1319 11.125 19.6528 11.125 19.125C11.125 18.4722 11.2847 17.9098 11.6042 17.4375C11.9236 16.9792 12.3889 16.4653 13 15.8958C13.1712 15.7397 13.3114 15.5864 13.4205 15.4357C13.4292 15.4238 13.4376 15.4119 13.4458 15.4C13.5943 15.1861 13.6797 14.9778 13.7023 14.775C13.7063 14.7387 13.7083 14.7026 13.7083 14.6666L13.7083 14.3334L13.3334 14.3334C13.3113 14.3334 13.2891 14.3341 13.2667 14.3357C13.0702 14.3494 12.8618 14.4234 12.6417 14.5576C12.609 14.5775 12.5761 14.5987 12.543 14.6212C12.2321 14.8325 11.8983 15.1602 11.5417 15.6042C10.8611 16.4514 9.97224 16.875 8.87504 16.875C8.3472 16.875 7.86112 16.743 7.41664 16.4792C6.98608 16.2292 6.64584 15.8889 6.39584 15.4583C6.13192 15.0278 6 14.5417 6 14C6 13.4722 6.13192 12.9861 6.39584 12.5417C6.64584 12.1111 6.98608 11.7639 7.41664 11.5ZM14.0161 16.3883C13.9221 16.4909 13.8236 16.5882 13.7232 16.6799C13.1485 17.2158 12.7441 17.6689 12.4838 18.0409C12.3027 18.3112 12.1917 18.6567 12.1917 19.125C12.1917 19.4744 12.2717 19.7656 12.4199 20.0225C12.5942 20.3144 12.8116 20.5274 13.0773 20.6817L13.0818 20.6844L13.0863 20.687C13.3622 20.8509 13.6596 20.9333 14 20.9333C14.3598 20.9333 14.6504 20.8483 14.9009 20.6947L14.9117 20.6881L14.9227 20.6817C15.1845 20.5297 15.3905 20.3223 15.5495 20.0396L15.5593 20.0221L15.5697 20.0051C15.7261 19.75 15.8083 19.4653 15.8083 19.125C15.8083 18.3831 15.5339 17.7899 14.92 17.2767L14.9161 17.2734L14.9122 17.2701C14.5692 16.9777 14.2654 16.6838 14.0161 16.3883ZM16.3836 14.0204C16.676 14.2665 16.9694 14.5661 17.2635 14.9046C17.8148 15.539 18.4183 15.8083 19.125 15.8083C19.4654 15.8083 19.7501 15.726 20.0052 15.5697L20.016 15.5631L20.0269 15.5568C20.2939 15.4017 20.5123 15.1872 20.687 14.8929L20.6908 14.8865L20.6947 14.8801C20.851 14.6251 20.9333 14.3403 20.9333 14C20.9333 13.6596 20.8509 13.3623 20.687 13.0862L20.6843 13.0818L20.6817 13.0773C20.5274 12.8116 20.3144 12.5941 20.0225 12.4199C19.7656 12.2717 19.4744 12.1917 19.125 12.1917C18.6562 12.1917 18.3158 12.2961 18.0576 12.4588C17.681 12.7066 17.371 12.9687 17.1196 13.2417C17.1192 13.2421 17.1188 13.2426 17.1183 13.243L16.6841 13.7187C16.684 13.7188 16.6839 13.7189 16.6838 13.719C16.6837 13.719 16.6836 13.7191 16.6835 13.7192C16.5894 13.8225 16.4894 13.9238 16.3836 14.0204ZM14.005 11.6347C14.2541 11.3362 14.559 11.0367 14.9046 10.7365C15.539 10.1852 15.8083 9.58171 15.8083 8.875C15.8083 8.53464 15.7259 8.23727 15.562 7.96123L15.5593 7.95677L15.5567 7.95228C15.4024 7.68657 15.1894 7.46913 14.8975 7.29489C14.6406 7.14671 14.3494 7.06667 14 7.06667C13.6559 7.06667 13.3562 7.14442 13.0819 7.29508C12.8087 7.46591 12.591 7.68359 12.4201 7.95687C12.2694 8.2312 12.1917 8.5309 12.1917 8.875C12.1917 9.59369 12.466 10.2014 13.1097 10.7517L13.1135 10.7549L13.1172 10.7581C13.4575 11.0545 13.758 11.347 14.005 11.6347Z" fill="#5A296E"/>
</svg>
