<svg width="28" height="28" viewBox="0 0 28 28" fill="none" xmlns="http://www.w3.org/2000/svg">
<path d="M12.7705 0.341309L11.0352 3.81176L10.308 1.63031L7.71484 2.92682V4.10602L9.69191 3.11754L10.8398 6.56092L12.8546 2.53143L15.667 7.21893L17.7358 3.08145L19.7852 4.10607V2.92687L17.2642 1.66646L15.5829 5.02881L12.7705 0.341309ZM3.96484 2.90127V5.59658H6.66016V2.90127H3.96484ZM20.8398 2.90127V5.59658H23.5352V2.90127H20.8398ZM3.02734 6.65127V24.3466H8.53516V17.7841H18.9648V24.3466H24.4727V6.65127H19.7867L17.9117 14.1513H9.58826L7.71326 6.65127H3.02734ZM8.94689 7.23721L9.21057 8.29189H18.2894L18.5531 7.23721H8.94689ZM9.44494 9.22939L9.70861 10.2841H17.7914L18.0551 9.22939H9.44494ZM21.6602 10.8114C22.4629 10.8114 23.125 11.4735 23.125 12.2763C23.125 13.079 22.4629 13.7411 21.6602 13.7411C20.8574 13.7411 20.1953 13.079 20.1953 12.2763C20.1953 11.4735 20.8574 10.8114 21.6602 10.8114ZM9.94299 11.2216L10.2067 12.2763H17.2933L17.557 11.2216H9.94299ZM21.6602 14.5614C22.4629 14.5614 23.125 15.2235 23.125 16.0263C23.125 16.829 22.4629 17.4911 21.6602 17.4911C20.8574 17.4911 20.1953 16.829 20.1953 16.0263C20.1953 15.2235 20.8574 14.5614 21.6602 14.5614ZM21.6602 18.3114C22.4629 18.3114 23.125 18.9735 23.125 19.7763C23.125 20.579 22.4629 21.2411 21.6602 21.2411C20.8574 21.2411 20.1953 20.579 20.1953 19.7763C20.1953 18.9735 20.8574 18.3114 21.6602 18.3114ZM2.67578 25.4013L0.332031 27.1591H6.66016V25.4013H2.67578ZM20.8398 25.4013V27.1591H27.168L24.8242 25.4013H20.8398Z" fill="#6D63EB"/>
</svg>
