<svg width="15" height="15" viewBox="0 0 15 15" fill="none" xmlns="http://www.w3.org/2000/svg">
<path d="M1.207 0.5L0.5 1.207L1.74546 3.36085L2.55315 3.24238L7.48331 8.17308L7.06277 8.57692C6.84738 8.79231 6.84738 9.11862 7.06277 9.334L7.28138 9.55315C7.49677 9.76854 7.82631 9.76854 7.98785 9.55315L8.62754 10.1923C8.57369 10.5154 8.62754 10.8993 8.89677 11.1685L11.8077 14.0628C12.4 14.6551 13.3692 14.6551 13.9615 14.0628C14.6615 13.4166 14.6551 12.4506 14.0628 11.8583L11.1685 8.94685C10.8993 8.67762 10.5154 8.56992 10.1923 8.67762L9.48531 8.03846C9.64685 7.82308 9.64685 7.49354 9.48531 7.33146L9.28339 7.13008C9.23444 7.07903 9.17567 7.03841 9.11061 7.01067C9.04556 6.98292 8.97557 6.96862 8.90485 6.96862C8.83412 6.96862 8.76413 6.98292 8.69908 7.01067C8.63403 7.03841 8.57526 7.07903 8.52631 7.13008L8.17308 7.48331L3.24292 2.55315L3.36031 1.74546L1.207 0.5ZM11.707 0.516692C10.6446 0.428385 9.236 1.13269 8.57692 1.74492C7.766 2.55585 7.89846 3.61608 8.543 4.63969L7.39931 5.78392L8.207 6.69231C8.63777 6.31538 9.27315 6.31538 9.70392 6.69231L9.92308 6.91092L9.97369 6.96154L10.4448 6.49039C11.4184 7.06277 12.4318 7.14515 13.2045 6.37246C13.9583 5.67246 14.7757 3.94615 14.3988 2.92308L12.8846 4.48785C12.6692 4.70323 12.3429 4.70323 12.1275 4.48785L10.5622 2.92308C10.5112 2.87413 10.4706 2.81536 10.4428 2.75031C10.4151 2.68525 10.4008 2.61526 10.4008 2.54454C10.4008 2.47382 10.4151 2.40382 10.4428 2.33877C10.4706 2.27372 10.5112 2.21495 10.5622 2.166L12.1281 0.601231C11.9935 0.553846 11.8588 0.529615 11.707 0.516692ZM5.78392 7.23077L3.83146 9.18269C3.62165 9.13608 3.40722 9.1135 3.19231 9.11539C1.68462 9.11539 0.5 10.3 0.5 11.8077C0.5 13.3154 1.68462 14.5 3.19231 14.5C4.7 14.5 5.88462 13.3154 5.88462 11.8077C5.88462 11.5315 5.841 11.266 5.76669 11.0167L6.91092 9.87246L6.74292 9.65385C6.31215 9.22308 6.31538 8.57046 6.69231 8.13915L5.78392 7.23077ZM9.957 9.68777C10.0243 9.68777 10.0878 9.70069 10.1417 9.75508L13.3224 12.9352C13.4301 13.0429 13.4301 13.2142 13.3224 13.3218C13.2147 13.4295 13.0424 13.4295 12.9347 13.3218L9.75508 10.1417C9.64738 10.034 9.64738 9.86277 9.75508 9.75508C9.80892 9.70123 9.88969 9.68777 9.957 9.68777ZM3.56277 10.4104L4.58908 11.4372L4.21862 12.8335L2.82238 13.2039L1.79554 12.1771L2.166 10.7808L3.56277 10.4104Z" fill="#6D63EB"/>
</svg>
