<svg width="15" height="19" viewBox="0 0 15 19" fill="none" xmlns="http://www.w3.org/2000/svg">
<path d="M2.5 12V12.4167C2.5 12.7639 2.37834 13.0592 2.135 13.3025C1.89167 13.5458 1.59667 13.6672 1.25 13.6667C0.90278 13.6667 0.607502 13.545 0.364169 13.3017C0.120835 13.0583 -0.000553657 12.7633 1.89825e-06 12.4167V6.16667L1.75 1.16667C1.83334 0.916669 1.9825 0.71528 2.1975 0.562503C2.4125 0.409725 2.65222 0.333336 2.91667 0.333336H12.0833C12.3472 0.333336 12.5869 0.409725 12.8025 0.562503C13.0181 0.71528 13.1672 0.916669 13.25 1.16667L15 6.16667V12.4167C15 12.7639 14.8786 13.0592 14.6358 13.3025C14.3931 13.5458 14.0978 13.6672 13.75 13.6667C13.4028 13.6667 13.1075 13.545 12.8642 13.3017C12.6208 13.0583 12.4994 12.7633 12.5 12.4167V12H2.5ZM2.33334 4.5H12.6667L11.7917 2H3.20834L2.33334 4.5ZM3.75 9.5C4.09722 9.5 4.3925 9.37834 4.63584 9.135C4.87917 8.89167 5.00056 8.59667 5 8.25C5 7.90278 4.87834 7.6075 4.635 7.36417C4.39167 7.12084 4.09667 6.99945 3.75 7C3.40278 7 3.1075 7.12167 2.86417 7.365C2.62084 7.60834 2.49945 7.90334 2.5 8.25C2.5 8.59723 2.62167 8.8925 2.865 9.13584C3.10834 9.37917 3.40334 9.50056 3.75 9.5ZM11.25 9.5C11.5972 9.5 11.8925 9.37834 12.1358 9.135C12.3792 8.89167 12.5006 8.59667 12.5 8.25C12.5 7.90278 12.3783 7.6075 12.135 7.36417C11.8917 7.12084 11.5967 6.99945 11.25 7C10.9028 7 10.6075 7.12167 10.3642 7.365C10.1208 7.60834 9.99945 7.90334 10 8.25C10 8.59723 10.1217 8.8925 10.365 9.13584C10.6083 9.37917 10.9033 9.50056 11.25 9.5ZM8.33333 18.6667L3.33334 16.1667H6.66667V14.5L11.6667 17H8.33333V18.6667ZM1.66667 10.3333H13.3333V6.16667H1.66667V10.3333Z" fill="#6D63EB"/>
</svg>
