<svg width="17" height="25" viewBox="0 0 17 25" fill="none" xmlns="http://www.w3.org/2000/svg">
<path fill-rule="evenodd" clip-rule="evenodd" d="M8.11875 0.228671C8.14082 0.0977631 8.25555 0.00146943 8.39055 0.000549133L8.47012 6.64828e-06C8.60512 -0.000913646 8.72119 0.0938065 8.74511 0.224401L9.46874 4.17595C9.48347 4.25636 9.5341 4.32604 9.6067 4.36583L15.2246 7.44451C15.4745 7.58143 15.3756 7.95541 15.0895 7.95541H10.4927C10.3198 7.95541 10.189 8.10917 10.2197 8.27644L10.3518 8.99799C10.3675 9.08367 10.4238 9.15684 10.5035 9.19492L16.4689 12.0468C16.5851 12.1024 16.6469 12.2295 16.6179 12.3533L16.5957 12.4482C16.5667 12.572 16.4545 12.6597 16.3253 12.6597H11.3542C11.1813 12.6597 11.0505 12.8135 11.0811 12.9807L13.0736 23.8608C13.1042 24.0281 12.9734 24.1819 12.8005 24.1819H4.40763C4.23628 24.1819 4.1059 24.0307 4.13391 23.8646L5.96947 12.977C5.99748 12.8109 5.8671 12.6597 5.69575 12.6597H0.674741C0.54551 12.6597 0.433392 12.572 0.404375 12.4482L0.382112 12.3533C0.353095 12.2295 0.414863 12.1024 0.531063 12.0468L6.48827 9.19706C6.56911 9.15839 6.62587 9.08362 6.64057 8.99643L6.76258 8.27271C6.7906 8.10656 6.66021 7.95541 6.48887 7.95541H1.91809C1.79125 7.95541 1.68056 7.87086 1.64924 7.75004L1.62294 7.64862C1.59162 7.5278 1.64764 7.40149 1.75901 7.34182L7.31312 4.36617C7.38811 4.326 7.44009 4.25412 7.45405 4.1713L8.11875 0.228671ZM7.2238 5.53704C7.26159 5.31287 7.02027 5.14425 6.8173 5.253L3.7472 6.89782C3.49478 7.03306 3.5925 7.40999 3.87999 7.40999H6.67278C6.8085 7.40999 6.92431 7.31347 6.94649 7.18186L7.2238 5.53704ZM6.97632 10.3412C7.01207 10.1292 7.27167 10.0392 7.4348 10.1823L7.86292 10.5579C7.98599 10.6659 7.9866 10.8549 7.86424 10.9637L7.28618 11.4774C7.0913 11.6506 6.78344 11.4853 6.82639 11.2305L6.97632 10.3412ZM5.87966 12.1143C6.01539 12.1143 6.13119 12.0178 6.15338 11.8862L6.41809 10.316C6.45492 10.0976 6.22552 9.92935 6.02296 10.0262L2.74074 11.5964C2.47604 11.723 2.56777 12.1143 2.86216 12.1143H5.87966ZM6.85984 13.5717C6.69598 13.4321 6.4399 13.523 6.40445 13.7332L6.06162 15.7667C6.01901 16.0194 6.32236 16.1852 6.5183 16.0163L7.87522 14.8463C8.00172 14.7373 8.00111 14.5435 7.87393 14.4352L6.85984 13.5717ZM8.72064 15.1562C8.61588 15.067 8.46021 15.0675 8.35601 15.1573L6.17752 17.0357C6.0542 17.142 6.05115 17.3297 6.17094 17.4398L8.38374 19.4745C8.49093 19.573 8.65767 19.5725 8.76418 19.4732L10.9418 17.4438C11.0608 17.3329 11.0565 17.1453 10.9326 17.0398L8.72064 15.1562ZM11.486 18.2702C11.4469 18.0568 11.1822 17.9714 11.022 18.1207L9.1943 19.824C9.07837 19.932 9.07899 20.1138 9.19566 20.2211L11.7685 22.5868C11.9635 22.7661 12.2784 22.5977 12.2311 22.3393L11.486 18.2702ZM11.3951 23.6364C11.6467 23.6364 11.7684 23.3336 11.5846 23.1646L8.76794 20.5746C8.66075 20.4761 8.49401 20.4766 8.3875 20.5759L5.60847 23.1658C5.42651 23.3354 5.54861 23.6364 5.79937 23.6364H11.3951ZM4.95156 22.3509C4.90807 22.6089 5.22313 22.7733 5.41618 22.5934L7.95738 20.2251C8.07331 20.1171 8.07269 19.9354 7.95602 19.8281L6.10158 18.1229C5.93976 17.9741 5.67454 18.0626 5.63832 18.2775L4.95156 22.3509ZM11.0255 15.7556C11.0718 16.0087 10.7685 16.1784 10.5707 16.01L9.19948 14.8423C9.07229 14.734 9.07168 14.5403 9.19819 14.4312L10.1978 13.5693C10.36 13.4294 10.6156 13.5172 10.6538 13.726L11.0255 15.7556ZM10.8814 11.8899C10.9052 12.0198 11.0202 12.1143 11.1544 12.1143H14.1366C14.431 12.1143 14.5227 11.7229 14.2579 11.5963L10.9897 10.0339C10.7855 9.93627 10.555 10.1078 10.5952 10.3274L10.8814 11.8899ZM9.6036 7.99123C9.64594 8.2224 9.37447 8.38193 9.18735 8.23584C9.05717 8.13421 9.05662 7.9401 9.18622 7.83776C9.33952 7.71671 9.56877 7.801 9.6036 7.99123ZM9.28589 7.05943C9.36509 6.99688 9.40318 6.89679 9.38519 6.79851L8.72632 3.20065C8.67114 2.89933 8.23046 2.90233 8.17954 3.20437L7.57384 6.79703C7.55737 6.89475 7.59609 6.99356 7.675 7.05517L8.3142 7.55419C8.4157 7.63342 8.55948 7.63303 8.66053 7.55324L9.28589 7.05943ZM7.79046 8.24029C7.92047 8.13763 7.91992 7.94291 7.78933 7.84096C7.63411 7.71978 7.40356 7.80707 7.37115 7.99929C7.33213 8.23072 7.60441 8.3872 7.79046 8.24029ZM7.55193 9.12828C7.41826 9.23383 7.41302 9.43211 7.54094 9.54434L8.32137 10.229C8.42713 10.3218 8.58704 10.3213 8.6922 10.2279L9.45702 9.5482C9.58414 9.43523 9.57771 9.23712 9.44351 9.13236L8.66328 8.52323C8.56178 8.444 8.418 8.44439 8.31695 8.52418L7.55193 9.12828ZM8.69564 11.2885C8.58988 11.1957 8.42997 11.1962 8.32481 11.2897L6.94385 12.5169C6.82027 12.6267 6.82233 12.8181 6.94825 12.9253L8.35276 14.1213C8.45752 14.2105 8.61319 14.21 8.71739 14.1202L10.0985 12.9294C10.2238 12.8214 10.2246 12.63 10.1003 12.5209L8.69564 11.2885ZM10.1947 11.2192C10.2415 11.4743 9.93369 11.6436 9.73691 11.471L9.15409 10.9596C9.03103 10.8517 9.03041 10.6626 9.15277 10.5539L9.57349 10.18C9.73499 10.0365 9.99406 10.1234 10.0326 10.334L10.1947 11.2192ZM10.0199 7.18559C10.0437 7.31548 10.1587 7.40999 10.293 7.40999H12.9547C13.2408 7.40999 13.3397 7.03601 13.0898 6.89908L10.1311 5.2777C9.92659 5.16561 9.68148 5.33766 9.72297 5.56421L10.0199 7.18559ZM13.6329 24.7273C13.6329 24.8779 13.5086 25 13.3554 25H3.78336C3.63013 25 3.50591 24.8779 3.50591 24.7273C3.50591 24.5767 3.63013 24.4546 3.78336 24.4546H13.3554C13.5086 24.4546 13.6329 24.5767 13.6329 24.7273Z" fill="#6D63EB"/>
</svg>
