<svg width="19" height="21" viewBox="0 0 19 21" fill="none" xmlns="http://www.w3.org/2000/svg">
<path d="M7.94989 16.7351H8.63154V20.5H7.94989V16.7351ZM17.32 5.12334L18.25 4.55985L17.3204 3.99722L18.0021 3.15071L16.937 2.94207L17.2885 1.91086L16.2153 2.08187L16.1957 0.992091L15.2465 1.51753L14.8554 0.5L14.1439 1.32257L13.4291 0.5L13.0363 1.51753L12.0862 0.991236L12.0666 2.08102L10.9934 1.91L11.3449 2.94121L10.2798 3.14985L10.9615 3.99637L10.0315 4.55985L10.9615 5.12163H12.3849L13.6327 8.38542L14.1439 7.79713L14.8571 8.61971L15.2478 7.60389L16.1978 8.13018L16.2174 7.0404L17.2906 7.21141L16.9378 6.17764L18.0029 5.969L17.32 5.12334ZM6.47541 7.10325H2.59854L3.91923 10.5599H7.7961L6.47541 7.10325ZM11.0872 7.10325H7.21031L8.52844 10.5599H12.4053L11.0872 7.10325ZM8.07046 11.2683H4.19359L5.51173 14.7249H9.38859L8.07046 11.2683ZM12.6822 11.2683H8.80536L10.1235 14.7249H14.0004L12.6822 11.2683ZM15.8302 16.0511H4.65882L0.75 5.80569H11.9162L15.8302 16.0511ZM14.9913 15.4098L13.1462 10.5842L11.5579 6.4192H1.6093L5.03756 15.4089H14.993L14.9913 15.4098Z" fill="#6D63EB"/>
</svg>
