<svg width="28" height="29" viewBox="0 0 28 29" fill="none" xmlns="http://www.w3.org/2000/svg">
<path fill-rule="evenodd" clip-rule="evenodd" d="M14.2329 27.7955C20.9222 27.6332 26.984 22.449 27.3377 16.1413C27.3678 15.941 27.3748 15.7372 27.3567 15.5354C27.3567 12.5782 26.1141 10.6874 24.2996 8.86493C23.2401 7.8007 21.941 7.01235 20.5139 6.56754L11.7579 3.83832C11.393 3.72461 10.9961 3.83605 10.7415 4.12371L4.56006 11.1067C4.33632 11.3595 4.25633 11.7106 4.34816 12.0369L6.9326 21.2195C7.02891 21.5617 7.29957 21.8251 7.64135 21.9094L16.7685 24.1596C17.1114 24.2442 17.5516 24.1596 17.7139 23.8746C17.7139 23.8746 19.736 20.3917 20.0054 19.8559C20.2747 19.3201 20.3458 18.7585 19.8931 18.401C19.3897 18.028 18.8309 17.9974 18.15 18.1581C17.4691 18.3187 15.7613 18.7773 12.9751 19.6378C10.189 20.4984 8.2304 18.7344 8.81779 16.2837L10.2654 10.0353C10.7674 7.94076 13.2407 7.06976 14.9206 8.39595L23.2418 15.3401C24.6001 16.4124 24.756 18.4323 23.5787 19.7048L19.1417 25.2256C18.4182 26.0076 17.3341 26.3344 16.3054 26.0808L7.17825 23.8306C6.15291 23.5778 5.34091 22.7874 5.05199 21.7608L2.46755 12.5782C2.19205 11.5994 2.43202 10.546 3.10325 9.78775L9.28469 2.80474C10.0486 1.94179 11.2393 1.60744 12.3338 1.94858L21.0898 4.6778C22.8192 5.21684 24.3935 6.17219 25.6775 7.46188C25.7458 7.53053 25.8083 7.42875 25.7611 7.3438C23.3782 3.05111 18.7866 0.199169 13.5812 0.325478C6.0805 0.507484 0.145893 6.8044 0.32586 14.39C0.505828 21.9757 6.73222 27.9775 14.2329 27.7955Z" fill="url(#paint0_linear_454_846)"/>
<defs>
<linearGradient id="paint0_linear_454_846" x1="22.6899" y1="8.34483" x2="0.319742" y2="23.5926" gradientUnits="userSpaceOnUse">
<stop stop-color="#6A61EA"/>
<stop offset="1" stop-color="#C23D93"/>
</linearGradient>
</defs>
</svg>
